<?xml version="1.0" standalone="no"?>
<!DOCTYPE svg PUBLIC "-//W3C//DTD SVG 20010904//EN"
 "http://www.w3.org/TR/2001/REC-SVG-20010904/DTD/svg10.dtd">
<svg version="1.0" xmlns="http://www.w3.org/2000/svg"
 width="500.000000pt" height="500.000000pt" viewBox="0 0 500.000000 500.000000"
 preserveAspectRatio="xMidYMid meet">
<metadata>
Created by potrace 1.11, written by Peter Selinger 2001-2013
</metadata>
<g transform="translate(0.000000,500.000000) scale(0.100000,-0.100000)"
fill="#000000" stroke="none">
<path d="M0 2500 l0 -2500 2500 0 2500 0 0 2500 0 2500 -2500 0 -2500 0 0
-2500z m880 1086 c0 -2 -7 -7 -16 -10 -8 -3 -12 -2 -9 4 6 10 25 14 25 6z
m3200 -67 c94 -15 200 -69 268 -137 66 -65 102 -122 131 -208 19 -58 20 -86
21 -665 1 -421 -2 -619 -10 -653 -28 -125 -152 -282 -261 -333 -121 -57 -10
-54 -1659 -51 -1450 3 -1517 4 -1555 22 -22 10 -66 36 -97 57 -32 21 -68 39
-80 39 -13 0 -39 -14 -58 -31 -39 -35 -100 -64 -154 -75 l-36 -6 30 58 c17 33
35 86 40 119 6 35 10 357 10 760 l0 700 24 66 c58 166 207 298 376 335 73 16
2912 19 3010 3z m-3557 -1894 c-3 -9 -8 -14 -10 -11 -3 3 -2 9 2 15 9 16 15
13 8 -4z"/>
<path d="M2891 3264 c-21 -26 -28 -79 -13 -100 31 -44 98 -56 148 -25 40 24
50 61 29 105 -18 37 -37 46 -102 46 -33 0 -46 -5 -62 -26z"/>
<path d="M1010 3130 l0 -70 80 0 80 0 0 -240 0 -240 85 0 85 0 0 240 0 240 83
0 84 0 2 70 2 70 -250 0 -251 0 0 -70z"/>
<path d="M2560 3130 l0 -60 -30 0 -30 0 0 -70 0 -70 30 0 30 0 0 -108 c0 -92
3 -114 23 -152 30 -60 71 -82 164 -88 l74 -5 -3 74 -3 74 -35 3 c-19 2 -38 9
-42 15 -4 7 -8 51 -8 100 l0 87 45 0 45 0 0 70 0 70 -45 0 -45 0 0 60 0 60
-85 0 -85 0 0 -60z"/>
<path d="M1645 3069 c-57 -14 -112 -55 -143 -108 -24 -41 -27 -56 -27 -136 0
-80 3 -95 27 -136 15 -25 45 -58 68 -74 34 -24 54 -29 121 -33 116 -7 177 20
233 103 46 67 39 75 -59 75 -76 0 -86 -2 -109 -25 -14 -14 -37 -25 -51 -25
-31 0 -67 35 -63 61 3 20 11 21 158 22 l155 2 3 45 c5 67 -14 116 -63 165 -64
65 -151 87 -250 64z m127 -151 c33 -39 21 -50 -57 -50 -78 0 -93 14 -56 51 29
29 87 28 113 -1z"/>
<path d="M3405 3069 c-22 -5 -54 -24 -72 -41 l-33 -32 0 37 0 37 -85 0 -84 0
-3 -245 -3 -245 88 0 87 0 0 146 c0 182 9 204 82 204 26 0 44 -7 58 -22 18
-20 20 -35 20 -175 l0 -153 85 0 85 0 0 174 c0 103 -5 187 -11 207 -29 85
-118 130 -214 108z"/>
<path d="M3828 3066 c-63 -23 -85 -43 -115 -103 -24 -50 -28 -69 -28 -143 1
-92 14 -130 64 -183 38 -42 77 -59 135 -59 55 -1 86 11 123 45 13 11 25 19 27
16 2 -2 0 -28 -4 -58 -8 -65 -34 -91 -90 -91 -29 0 -43 6 -58 25 -18 23 -26
25 -102 25 l-82 0 6 -32 c10 -51 51 -104 103 -135 44 -25 57 -28 144 -28 89 0
99 2 145 30 37 23 56 44 77 84 l27 55 0 278 0 279 -82 -3 c-78 -3 -83 -4 -83
-25 -1 -29 -8 -29 -49 2 -41 31 -108 40 -158 21z m180 -172 c49 -56 17 -156
-54 -170 -26 -5 -38 0 -65 24 -30 27 -34 36 -33 78 1 40 6 52 34 77 26 23 38
28 64 23 17 -3 41 -17 54 -32z"/>
<path d="M1950 3064 c0 -3 36 -55 80 -116 l80 -111 -22 -36 c-12 -20 -45 -72
-73 -116 -28 -44 -54 -86 -59 -92 -5 -10 14 -13 87 -13 l93 0 34 60 c19 33 36
60 39 60 3 0 24 -27 46 -60 l40 -60 99 0 c77 0 96 3 89 13 -62 78 -163 220
-163 226 0 8 127 202 150 228 5 7 10 15 10 18 0 3 -42 5 -93 5 l-92 0 -33 -55
c-18 -30 -37 -55 -42 -55 -5 0 -26 25 -47 55 l-38 55 -92 0 c-51 0 -93 -3 -93
-6z"/>
<path d="M2880 2825 l0 -245 85 0 85 0 0 245 0 245 -85 0 -85 0 0 -245z"/>
<path d="M1010 2315 l0 -65 80 0 80 0 0 -240 0 -240 85 0 85 0 0 240 0 240 86
0 85 0 -2 65 -2 65 -249 0 -248 0 0 -65z"/>
<path d="M2507 2374 c-4 -4 -7 -31 -7 -61 0 -52 0 -53 -30 -53 l-31 0 3 -72
c3 -73 3 -73 31 -71 15 1 27 -1 27 -5 0 -4 2 -54 4 -112 4 -122 19 -166 67
-201 29 -21 46 -24 114 -24 l80 0 0 65 c0 57 -2 65 -20 68 -69 10 -65 3 -65
111 l0 98 38 -1 37 -1 3 73 3 72 -40 0 -40 0 -3 58 -3 57 -80 3 c-44 2 -84 0
-88 -4z"/>
<path d="M2983 2335 c-10 -27 7 -98 32 -137 24 -36 24 -37 10 -106 -29 -136
16 -244 129 -317 98 -62 213 -65 318 -8 119 65 175 211 133 348 -14 48 -11 62
16 85 20 17 41 150 23 150 -3 0 -25 -11 -49 -25 -73 -43 -101 -47 -173 -25
-81 25 -138 25 -209 0 -65 -23 -111 -16 -175 26 -44 28 -47 29 -55 9z m419
-62 c46 -17 71 -33 64 -40 -2 -2 -12 0 -23 6 -61 33 -195 30 -273 -8 l-25 -12
24 18 c35 26 110 52 153 53 21 0 57 -7 80 -17z m-33 -199 l32 -7 -28 -30 c-16
-17 -23 -31 -17 -34 6 -2 9 -14 7 -26 -2 -12 3 -31 11 -42 12 -16 18 -18 33
-9 22 13 29 60 12 80 -10 13 -10 17 2 25 21 13 23 12 42 -34 19 -47 21 -67 8
-67 -4 0 -7 -10 -4 -22 10 -65 -124 -135 -208 -108 -101 34 -138 119 -92 208
11 19 23 30 31 27 8 -3 18 -5 23 -5 5 0 2 -11 -7 -24 -19 -30 -15 -65 8 -80
24 -14 44 8 51 56 5 31 1 41 -21 64 l-27 27 27 -5 c15 -3 25 -1 22 3 -6 10 50
12 95 3z"/>
<path d="M3400 1883 c-53 -29 -121 -28 -183 2 -49 23 -58 13 -22 -25 56 -59
167 -58 234 1 46 40 28 53 -29 22z"/>
<path d="M1594 2230 c-80 -40 -115 -94 -122 -191 -8 -120 32 -204 121 -252 33
-17 59 -22 122 -22 86 0 139 19 181 67 24 25 54 81 54 98 0 6 -33 10 -88 10
-75 0 -90 -3 -105 -20 -36 -42 -117 -15 -117 38 0 22 2 22 160 22 l160 0 0 51
c0 182 -192 287 -366 199z m171 -125 c45 -44 34 -55 -50 -55 -66 0 -75 2 -75
18 0 19 24 45 50 55 31 11 52 6 75 -18z"/>
<path d="M2102 2252 c-66 -20 -123 -107 -107 -165 20 -71 55 -97 160 -122 90
-21 119 -39 105 -65 -18 -33 -100 -20 -100 15 0 12 -17 15 -85 15 -95 0 -98
-2 -62 -65 42 -74 126 -111 232 -102 69 5 134 34 158 71 19 29 22 103 6 138
-16 37 -67 65 -164 90 -83 22 -90 26 -90 48 0 21 5 26 32 28 25 2 39 -3 57
-22 21 -24 31 -26 99 -26 l75 0 -11 36 c-15 49 -74 107 -123 122 -43 13 -143
15 -182 4z"/>
</g>
</svg>
