<?xml version="1.0" encoding="utf-8"?>
<!-- Generator: Adobe Illustrator 15.1.0, SVG Export Plug-In . SVG Version: 6.00 Build 0)  -->
<!DOCTYPE svg PUBLIC "-//W3C//DTD SVG 1.1//EN" "http://www.w3.org/Graphics/SVG/1.1/DTD/svg11.dtd">
<svg version="1.1" id="Layer_1" xmlns="http://www.w3.org/2000/svg" xmlns:xlink="http://www.w3.org/1999/xlink" x="0px" y="0px"
	 width="296px" height="136.5px" viewBox="-14 -13.5 296 136.5" enable-background="new -14 -13.5 296 136.5" xml:space="preserve">
<path id="button" d="M259.811,15.94l0.18,0.04c0.774,0.072,1.461-0.497,1.534-1.271c0.063-0.679-0.368-1.305-1.024-1.488l-0.17-0.03
	c-0.722-0.095-1.391,0.394-1.52,1.11c-0.184,0.719,0.251,1.45,0.97,1.633C259.79,15.936,259.8,15.938,259.811,15.94z M259.811,15.94
	l0.18,0.04c0.774,0.072,1.461-0.497,1.534-1.271c0.063-0.679-0.368-1.305-1.024-1.488l-0.17-0.03
	c-0.722-0.095-1.391,0.394-1.52,1.11c-0.184,0.719,0.251,1.45,0.97,1.633C259.79,15.936,259.8,15.938,259.811,15.94z M259.811,15.94
	l0.18,0.04c0.774,0.072,1.461-0.497,1.534-1.271c0.063-0.679-0.368-1.305-1.024-1.488l-0.17-0.03
	c-0.722-0.095-1.391,0.394-1.52,1.11c-0.184,0.719,0.251,1.45,0.97,1.633C259.79,15.936,259.8,15.938,259.811,15.94z
	 M254.311,14.521l0.18,0.06c0.691,0.214,1.425-0.173,1.639-0.864c0.008-0.025,0.016-0.051,0.021-0.076
	c0.23-0.689-0.109-1.44-0.78-1.72l-0.16-0.06c-0.705-0.168-1.423,0.225-1.66,0.91c-0.288,0.657,0.01,1.424,0.667,1.713
	C254.248,14.497,254.278,14.51,254.311,14.521L254.311,14.521z M254.311,14.521l0.18,0.06c0.691,0.214,1.425-0.173,1.639-0.864
	c0.008-0.025,0.016-0.051,0.021-0.076c0.23-0.689-0.109-1.44-0.78-1.72l-0.16-0.06c-0.705-0.168-1.423,0.225-1.66,0.91
	c-0.288,0.657,0.01,1.424,0.667,1.713C254.248,14.497,254.278,14.51,254.311,14.521L254.311,14.521z M254.311,14.521l0.18,0.06
	c0.691,0.214,1.425-0.173,1.639-0.864c0.008-0.025,0.016-0.051,0.021-0.076c0.23-0.689-0.109-1.44-0.78-1.72l-0.16-0.06
	c-0.705-0.168-1.423,0.225-1.66,0.91c-0.288,0.657,0.01,1.424,0.667,1.713C254.248,14.497,254.278,14.51,254.311,14.521
	L254.311,14.521z M249.05,12.24l0.16,0.1c0.714,0.31,1.544-0.017,1.854-0.731c0.271-0.623,0.059-1.349-0.503-1.729l-0.141-0.09
	c-0.656-0.309-1.439-0.055-1.79,0.58c-0.407,0.603-0.248,1.422,0.354,1.829C249.006,12.213,249.027,12.228,249.05,12.24
	L249.05,12.24z M249.05,12.24l0.16,0.1c0.714,0.31,1.544-0.017,1.854-0.731c0.271-0.623,0.059-1.349-0.503-1.729l-0.141-0.09
	c-0.656-0.309-1.439-0.055-1.79,0.58c-0.407,0.603-0.248,1.422,0.354,1.829C249.006,12.213,249.027,12.228,249.05,12.24
	L249.05,12.24z M249.05,12.24l0.16,0.1c0.714,0.31,1.544-0.017,1.854-0.731c0.271-0.623,0.059-1.349-0.503-1.729l-0.141-0.09
	c-0.656-0.309-1.439-0.055-1.79,0.58c-0.407,0.603-0.248,1.422,0.354,1.829C249.006,12.213,249.027,12.228,249.05,12.24
	L249.05,12.24z M244.33,8.88L244.46,9c0.618,0.471,1.501,0.352,1.972-0.266c0.414-0.542,0.379-1.302-0.082-1.804l-0.109-0.11
	c-0.559-0.458-1.375-0.405-1.87,0.12c-0.546,0.492-0.59,1.333-0.099,1.88C244.291,8.841,244.311,8.861,244.33,8.88L244.33,8.88z
	 M244.33,8.88L244.46,9c0.618,0.471,1.501,0.352,1.972-0.266c0.414-0.542,0.379-1.302-0.082-1.804l-0.109-0.11
	c-0.559-0.458-1.375-0.405-1.87,0.12c-0.546,0.492-0.59,1.333-0.099,1.88C244.291,8.841,244.311,8.861,244.33,8.88L244.33,8.88z
	 M244.33,8.88L244.46,9c0.618,0.471,1.501,0.352,1.972-0.266c0.414-0.542,0.379-1.302-0.082-1.804l-0.109-0.11
	c-0.559-0.458-1.375-0.405-1.87,0.12c-0.546,0.492-0.59,1.333-0.099,1.88C244.291,8.841,244.311,8.861,244.33,8.88L244.33,8.88z
	 M240.63,4.32l0.091,0.17c0.413,0.62,1.252,0.787,1.871,0.374c0.017-0.011,0.033-0.022,0.049-0.034
	c0.605-0.376,0.819-1.157,0.489-1.79l-0.069-0.14c-0.412-0.59-1.206-0.768-1.83-0.41c-0.658,0.3-0.949,1.076-0.649,1.733
	C240.596,4.257,240.612,4.289,240.63,4.32L240.63,4.32z M240.63,4.32l0.091,0.17c0.413,0.62,1.252,0.787,1.871,0.374
	c0.017-0.011,0.033-0.022,0.049-0.034c0.605-0.376,0.819-1.157,0.489-1.79l-0.069-0.14c-0.412-0.59-1.206-0.768-1.83-0.41
	c-0.658,0.3-0.949,1.076-0.649,1.733C240.596,4.257,240.612,4.289,240.63,4.32L240.63,4.32z M240.63,4.32l0.091,0.17
	c0.413,0.62,1.252,0.787,1.871,0.374c0.017-0.011,0.033-0.022,0.049-0.034c0.605-0.376,0.819-1.157,0.489-1.79l-0.069-0.14
	c-0.412-0.59-1.206-0.768-1.83-0.41c-0.658,0.3-0.949,1.076-0.649,1.733C240.596,4.257,240.612,4.289,240.63,4.32L240.63,4.32z
	 M234.34,0.37h0.18c0.776,0,1.406-0.629,1.406-1.405s-0.63-1.405-1.406-1.405l0,0h-0.18c-0.781,0-1.414,0.624-1.414,1.405
	S233.559,0.38,234.34,0.37L234.34,0.37z M234.34,0.37h0.18c0.776,0,1.406-0.629,1.406-1.405s-0.63-1.405-1.406-1.405l0,0h-0.18
	c-0.781,0-1.414,0.624-1.414,1.405S233.559,0.38,234.34,0.37L234.34,0.37z M234.34,0.37h0.18c0.776,0,1.406-0.629,1.406-1.405
	s-0.63-1.405-1.406-1.405l0,0h-0.18c-0.781,0-1.414,0.624-1.414,1.405S233.559,0.38,234.34,0.37L234.34,0.37z M228.4,0.37h0.189
	c0.776,0,1.405-0.629,1.405-1.405s-0.629-1.405-1.405-1.405H228.4c-0.781,0-1.415,0.624-1.415,1.405S227.619,0.38,228.4,0.37
	L228.4,0.37z M228.4,0.37h0.189c0.776,0,1.405-0.629,1.405-1.405s-0.629-1.405-1.405-1.405H228.4c-0.781,0-1.415,0.624-1.415,1.405
	S227.619,0.38,228.4,0.37L228.4,0.37z M228.4,0.37h0.189c0.776,0,1.405-0.629,1.405-1.405s-0.629-1.405-1.405-1.405H228.4
	c-0.781,0-1.415,0.624-1.415,1.405S227.619,0.38,228.4,0.37L228.4,0.37z M222.471,0.37h0.189c0.775,0,1.404-0.629,1.404-1.405
	s-0.629-1.405-1.404-1.405h-0.189c-0.782,0-1.415,0.624-1.416,1.405C221.055-0.253,221.688,0.38,222.471,0.37L222.471,0.37z
	 M222.471,0.37h0.189c0.775,0,1.404-0.629,1.404-1.405s-0.629-1.405-1.404-1.405h-0.189c-0.782,0-1.415,0.624-1.416,1.405
	C221.055-0.253,221.688,0.38,222.471,0.37L222.471,0.37z M222.471,0.37h0.189c0.775,0,1.404-0.629,1.404-1.405
	s-0.629-1.405-1.404-1.405h-0.189c-0.782,0-1.415,0.624-1.416,1.405C221.055-0.253,221.688,0.38,222.471,0.37L222.471,0.37z
	 M216.54,0.37h0.181c0.775,0,1.404-0.629,1.404-1.405s-0.629-1.405-1.404-1.405h-0.181c-0.776,0-1.405,0.629-1.405,1.405
	S215.764,0.371,216.54,0.37L216.54,0.37z M216.54,0.37h0.181c0.775,0,1.404-0.629,1.404-1.405s-0.629-1.405-1.404-1.405h-0.181
	c-0.776,0-1.405,0.629-1.405,1.405S215.764,0.371,216.54,0.37L216.54,0.37z M216.54,0.37h0.181c0.775,0,1.404-0.629,1.404-1.405
	s-0.629-1.405-1.404-1.405h-0.181c-0.776,0-1.405,0.629-1.405,1.405S215.764,0.371,216.54,0.37L216.54,0.37z M210.6,0.37h0.19
	c0.776,0,1.405-0.629,1.405-1.405s-0.629-1.405-1.405-1.405h-0.19c-0.781,0-1.414,0.624-1.414,1.405S209.818,0.38,210.6,0.37
	L210.6,0.37z M210.6,0.37h0.19c0.776,0,1.405-0.629,1.405-1.405s-0.629-1.405-1.405-1.405h-0.19c-0.781,0-1.414,0.624-1.414,1.405
	S209.818,0.38,210.6,0.37L210.6,0.37z M210.6,0.37h0.19c0.776,0,1.405-0.629,1.405-1.405s-0.629-1.405-1.405-1.405h-0.19
	c-0.781,0-1.414,0.624-1.414,1.405S209.818,0.38,210.6,0.37L210.6,0.37z M204.67,0.37h0.18c0.776,0,1.405-0.629,1.405-1.405
	s-0.629-1.405-1.405-1.405l0,0h-0.18c-0.775,0-1.405,0.629-1.405,1.405S203.895,0.371,204.67,0.37L204.67,0.37z M204.67,0.37h0.18
	c0.776,0,1.405-0.629,1.405-1.405s-0.629-1.405-1.405-1.405l0,0h-0.18c-0.775,0-1.405,0.629-1.405,1.405S203.895,0.371,204.67,0.37
	L204.67,0.37z M204.67,0.37h0.18c0.776,0,1.405-0.629,1.405-1.405s-0.629-1.405-1.405-1.405l0,0h-0.18
	c-0.775,0-1.405,0.629-1.405,1.405S203.895,0.371,204.67,0.37L204.67,0.37z M198.73,0.37h0.189c0.776,0,1.405-0.629,1.405-1.405
	s-0.629-1.405-1.405-1.405h-0.189c-0.781,0-1.415,0.624-1.415,1.405S197.949,0.38,198.73,0.37L198.73,0.37z M198.73,0.37h0.189
	c0.776,0,1.405-0.629,1.405-1.405s-0.629-1.405-1.405-1.405h-0.189c-0.781,0-1.415,0.624-1.415,1.405S197.949,0.38,198.73,0.37
	L198.73,0.37z M198.73,0.37h0.189c0.776,0,1.405-0.629,1.405-1.405s-0.629-1.405-1.405-1.405h-0.189
	c-0.781,0-1.415,0.624-1.415,1.405S197.949,0.38,198.73,0.37L198.73,0.37z M192.8,0.37h0.19c0.775,0,1.404-0.629,1.404-1.405
	s-0.629-1.405-1.404-1.405h-0.19c-0.776,0-1.405,0.629-1.405,1.405S192.023,0.371,192.8,0.37L192.8,0.37z M192.8,0.37h0.19
	c0.775,0,1.404-0.629,1.404-1.405s-0.629-1.405-1.404-1.405h-0.19c-0.776,0-1.405,0.629-1.405,1.405S192.023,0.371,192.8,0.37
	L192.8,0.37z M192.8,0.37h0.19c0.775,0,1.404-0.629,1.404-1.405s-0.629-1.405-1.404-1.405h-0.19c-0.776,0-1.405,0.629-1.405,1.405
	S192.023,0.371,192.8,0.37L192.8,0.37z M186.87,0.37h0.19c0.775,0,1.404-0.629,1.404-1.405s-0.629-1.405-1.404-1.405h-0.19
	c-0.776,0-1.405,0.629-1.405,1.405S186.094,0.371,186.87,0.37L186.87,0.37z M186.87,0.37h0.19c0.775,0,1.404-0.629,1.404-1.405
	s-0.629-1.405-1.404-1.405h-0.19c-0.776,0-1.405,0.629-1.405,1.405S186.094,0.371,186.87,0.37L186.87,0.37z M186.87,0.37h0.19
	c0.775,0,1.404-0.629,1.404-1.405s-0.629-1.405-1.404-1.405h-0.19c-0.776,0-1.405,0.629-1.405,1.405S186.094,0.371,186.87,0.37
	L186.87,0.37z M180.939,0.37h0.181c0.776,0,1.405-0.629,1.405-1.405s-0.629-1.405-1.405-1.405h-0.181
	c-0.775,0-1.404,0.629-1.404,1.405S180.164,0.371,180.939,0.37L180.939,0.37z M180.939,0.37h0.181c0.776,0,1.405-0.629,1.405-1.405
	s-0.629-1.405-1.405-1.405h-0.181c-0.775,0-1.404,0.629-1.404,1.405S180.164,0.371,180.939,0.37L180.939,0.37z M180.939,0.37h0.181
	c0.776,0,1.405-0.629,1.405-1.405s-0.629-1.405-1.405-1.405h-0.181c-0.775,0-1.404,0.629-1.404,1.405S180.164,0.371,180.939,0.37
	L180.939,0.37z M175,0.37h0.189c0.776,0,1.405-0.629,1.405-1.405s-0.629-1.405-1.405-1.405H175c-0.775,0-1.405,0.629-1.405,1.405
	S174.225,0.371,175,0.37L175,0.37z M175,0.37h0.189c0.776,0,1.405-0.629,1.405-1.405s-0.629-1.405-1.405-1.405H175
	c-0.775,0-1.405,0.629-1.405,1.405S174.225,0.371,175,0.37L175,0.37z M175,0.37h0.189c0.776,0,1.405-0.629,1.405-1.405
	s-0.629-1.405-1.405-1.405H175c-0.775,0-1.405,0.629-1.405,1.405S174.225,0.371,175,0.37L175,0.37z M169.07,0.37h0.18
	c0.775,0,1.405-0.629,1.405-1.405s-0.63-1.405-1.405-1.405h-0.18c-0.776,0-1.405,0.629-1.405,1.405S168.294,0.371,169.07,0.37
	L169.07,0.37z M169.07,0.37h0.18c0.775,0,1.405-0.629,1.405-1.405s-0.63-1.405-1.405-1.405h-0.18c-0.776,0-1.405,0.629-1.405,1.405
	S168.294,0.371,169.07,0.37L169.07,0.37z M169.07,0.37h0.18c0.775,0,1.405-0.629,1.405-1.405s-0.63-1.405-1.405-1.405h-0.18
	c-0.776,0-1.405,0.629-1.405,1.405S168.294,0.371,169.07,0.37L169.07,0.37z M163.13,0.37h0.19c0.775,0,1.404-0.629,1.404-1.405
	s-0.629-1.405-1.404-1.405h-0.19c-0.776,0-1.405,0.629-1.405,1.405S162.354,0.371,163.13,0.37L163.13,0.37z M163.13,0.37h0.19
	c0.775,0,1.404-0.629,1.404-1.405s-0.629-1.405-1.404-1.405h-0.19c-0.776,0-1.405,0.629-1.405,1.405S162.354,0.371,163.13,0.37
	L163.13,0.37z M163.13,0.37h0.19c0.775,0,1.404-0.629,1.404-1.405s-0.629-1.405-1.404-1.405h-0.19c-0.776,0-1.405,0.629-1.405,1.405
	S162.354,0.371,163.13,0.37L163.13,0.37z M157.2,0.37h0.189c0.776,0,1.405-0.629,1.405-1.405s-0.629-1.405-1.405-1.405H157.2
	c-0.776,0-1.405,0.629-1.405,1.405S156.424,0.371,157.2,0.37L157.2,0.37z M157.2,0.37h0.189c0.776,0,1.405-0.629,1.405-1.405
	s-0.629-1.405-1.405-1.405H157.2c-0.776,0-1.405,0.629-1.405,1.405S156.424,0.371,157.2,0.37L157.2,0.37z M157.2,0.37h0.189
	c0.776,0,1.405-0.629,1.405-1.405s-0.629-1.405-1.405-1.405H157.2c-0.776,0-1.405,0.629-1.405,1.405S156.424,0.371,157.2,0.37
	L157.2,0.37z M151.27,0.37h0.181c0.776,0,1.405-0.629,1.405-1.405s-0.629-1.405-1.405-1.405h-0.181
	c-0.781,0-1.414,0.624-1.414,1.405C149.855-0.253,150.488,0.38,151.27,0.37L151.27,0.37z M151.27,0.37h0.181
	c0.776,0,1.405-0.629,1.405-1.405s-0.629-1.405-1.405-1.405h-0.181c-0.781,0-1.414,0.624-1.414,1.405
	C149.855-0.253,150.488,0.38,151.27,0.37L151.27,0.37z M151.27,0.37h0.181c0.776,0,1.405-0.629,1.405-1.405
	s-0.629-1.405-1.405-1.405h-0.181c-0.781,0-1.414,0.624-1.414,1.405C149.855-0.253,150.488,0.38,151.27,0.37L151.27,0.37z
	 M145.33,0.37h0.189c0.776,0,1.405-0.629,1.405-1.405s-0.629-1.405-1.405-1.405l0,0h-0.189c-0.776,0-1.405,0.629-1.405,1.405
	S144.554,0.371,145.33,0.37L145.33,0.37z M145.33,0.37h0.189c0.776,0,1.405-0.629,1.405-1.405s-0.629-1.405-1.405-1.405l0,0h-0.189
	c-0.776,0-1.405,0.629-1.405,1.405S144.554,0.371,145.33,0.37L145.33,0.37z M145.33,0.37h0.189c0.776,0,1.405-0.629,1.405-1.405
	s-0.629-1.405-1.405-1.405l0,0h-0.189c-0.776,0-1.405,0.629-1.405,1.405S144.554,0.371,145.33,0.37L145.33,0.37z M139.4,0.37h0.18
	c0.775,0,1.404-0.629,1.404-1.405s-0.629-1.405-1.404-1.405h-0.18c-0.781,0-1.415,0.624-1.415,1.405
	C137.985-0.253,138.619,0.38,139.4,0.37L139.4,0.37z M139.4,0.37h0.18c0.775,0,1.404-0.629,1.404-1.405s-0.629-1.405-1.404-1.405
	h-0.18c-0.781,0-1.415,0.624-1.415,1.405C137.985-0.253,138.619,0.38,139.4,0.37L139.4,0.37z M139.4,0.37h0.18
	c0.775,0,1.404-0.629,1.404-1.405s-0.629-1.405-1.404-1.405h-0.18c-0.781,0-1.415,0.624-1.415,1.405
	C137.985-0.253,138.619,0.38,139.4,0.37L139.4,0.37z M133.46,0.37h0.19c0.776,0,1.405-0.629,1.405-1.405s-0.629-1.405-1.405-1.405
	h-0.19c-0.776,0-1.405,0.629-1.405,1.405S132.684,0.371,133.46,0.37L133.46,0.37z M133.46,0.37h0.19
	c0.776,0,1.405-0.629,1.405-1.405s-0.629-1.405-1.405-1.405h-0.19c-0.776,0-1.405,0.629-1.405,1.405S132.684,0.371,133.46,0.37
	L133.46,0.37z M133.46,0.37h0.19c0.776,0,1.405-0.629,1.405-1.405s-0.629-1.405-1.405-1.405h-0.19c-0.776,0-1.405,0.629-1.405,1.405
	S132.684,0.371,133.46,0.37L133.46,0.37z M127.53,0.37h0.19c0.776,0,1.405-0.629,1.405-1.405s-0.629-1.405-1.405-1.405h-0.19
	c-0.781,0-1.415,0.624-1.415,1.405C126.115-0.253,126.749,0.38,127.53,0.37L127.53,0.37z M127.53,0.37h0.19
	c0.776,0,1.405-0.629,1.405-1.405s-0.629-1.405-1.405-1.405h-0.19c-0.781,0-1.415,0.624-1.415,1.405
	C126.115-0.253,126.749,0.38,127.53,0.37L127.53,0.37z M127.53,0.37h0.19c0.776,0,1.405-0.629,1.405-1.405s-0.629-1.405-1.405-1.405
	h-0.19c-0.781,0-1.415,0.624-1.415,1.405C126.115-0.253,126.749,0.38,127.53,0.37L127.53,0.37z M121.59,0.37h0.19
	c0.776,0,1.405-0.629,1.405-1.405s-0.629-1.405-1.405-1.405h-0.19c-0.776,0-1.405,0.629-1.405,1.405S120.814,0.371,121.59,0.37
	L121.59,0.37z M121.59,0.37h0.19c0.776,0,1.405-0.629,1.405-1.405s-0.629-1.405-1.405-1.405h-0.19c-0.776,0-1.405,0.629-1.405,1.405
	S120.814,0.371,121.59,0.37L121.59,0.37z M121.59,0.37h0.19c0.776,0,1.405-0.629,1.405-1.405s-0.629-1.405-1.405-1.405h-0.19
	c-0.776,0-1.405,0.629-1.405,1.405S120.814,0.371,121.59,0.37L121.59,0.37z M115.66,0.37h0.189c0.776,0,1.405-0.629,1.405-1.405
	s-0.629-1.405-1.405-1.405h-0.189c-0.782,0-1.415,0.624-1.415,1.405C114.245-0.253,114.879,0.38,115.66,0.37L115.66,0.37z
	 M115.66,0.37h0.189c0.776,0,1.405-0.629,1.405-1.405s-0.629-1.405-1.405-1.405h-0.189c-0.782,0-1.415,0.624-1.415,1.405
	C114.245-0.253,114.879,0.38,115.66,0.37L115.66,0.37z M115.66,0.37h0.189c0.776,0,1.405-0.629,1.405-1.405
	s-0.629-1.405-1.405-1.405h-0.189c-0.782,0-1.415,0.624-1.415,1.405C114.245-0.253,114.879,0.38,115.66,0.37L115.66,0.37z
	 M109.73,0.37h0.18c0.776,0,1.405-0.629,1.405-1.405s-0.629-1.405-1.405-1.405l0,0h-0.18c-0.782,0-1.415,0.624-1.415,1.405
	C108.315-0.253,108.949,0.38,109.73,0.37L109.73,0.37z M109.73,0.37h0.18c0.776,0,1.405-0.629,1.405-1.405s-0.629-1.405-1.405-1.405
	l0,0h-0.18c-0.782,0-1.415,0.624-1.415,1.405C108.315-0.253,108.949,0.38,109.73,0.37L109.73,0.37z M109.73,0.37h0.18
	c0.776,0,1.405-0.629,1.405-1.405s-0.629-1.405-1.405-1.405l0,0h-0.18c-0.782,0-1.415,0.624-1.415,1.405
	C108.315-0.253,108.949,0.38,109.73,0.37L109.73,0.37z M103.79,0.37h0.19c0.776,0,1.405-0.629,1.405-1.405s-0.629-1.405-1.405-1.405
	h-0.19c-0.781,0-1.415,0.624-1.415,1.405C102.375-0.253,103.009,0.38,103.79,0.37L103.79,0.37z M103.79,0.37h0.19
	c0.776,0,1.405-0.629,1.405-1.405s-0.629-1.405-1.405-1.405h-0.19c-0.781,0-1.415,0.624-1.415,1.405
	C102.375-0.253,103.009,0.38,103.79,0.37L103.79,0.37z M103.79,0.37h0.19c0.776,0,1.405-0.629,1.405-1.405s-0.629-1.405-1.405-1.405
	h-0.19c-0.781,0-1.415,0.624-1.415,1.405C102.375-0.253,103.009,0.38,103.79,0.37L103.79,0.37z M97.86,0.37h0.18
	c0.776,0,1.405-0.629,1.405-1.405s-0.629-1.405-1.405-1.405h-0.18c-0.781,0-1.415,0.624-1.415,1.405
	C96.445-0.253,97.079,0.38,97.86,0.37L97.86,0.37z M97.86,0.37h0.18c0.776,0,1.405-0.629,1.405-1.405s-0.629-1.405-1.405-1.405
	h-0.18c-0.781,0-1.415,0.624-1.415,1.405C96.445-0.253,97.079,0.38,97.86,0.37L97.86,0.37z M97.86,0.37h0.18
	c0.776,0,1.405-0.629,1.405-1.405s-0.629-1.405-1.405-1.405h-0.18c-0.781,0-1.415,0.624-1.415,1.405
	C96.445-0.253,97.079,0.38,97.86,0.37L97.86,0.37z M91.92,0.37h0.19c0.776,0,1.405-0.629,1.405-1.405s-0.629-1.405-1.405-1.405
	h-0.19c-0.781,0-1.415,0.624-1.415,1.405C90.505-0.253,91.139,0.38,91.92,0.37L91.92,0.37z M91.92,0.37h0.19
	c0.776,0,1.405-0.629,1.405-1.405s-0.629-1.405-1.405-1.405h-0.19c-0.781,0-1.415,0.624-1.415,1.405
	C90.505-0.253,91.139,0.38,91.92,0.37L91.92,0.37z M91.92,0.37h0.19c0.776,0,1.405-0.629,1.405-1.405s-0.629-1.405-1.405-1.405
	h-0.19c-0.781,0-1.415,0.624-1.415,1.405C90.505-0.253,91.139,0.38,91.92,0.37L91.92,0.37z M85.99,0.37h0.19
	c0.776,0,1.405-0.629,1.405-1.405s-0.629-1.405-1.405-1.405h-0.19c-0.781,0-1.415,0.624-1.415,1.405
	C84.575-0.253,85.208,0.38,85.99,0.37L85.99,0.37z M85.99,0.37h0.19c0.776,0,1.405-0.629,1.405-1.405s-0.629-1.405-1.405-1.405
	h-0.19c-0.781,0-1.415,0.624-1.415,1.405C84.575-0.253,85.208,0.38,85.99,0.37L85.99,0.37z M85.99,0.37h0.19
	c0.776,0,1.405-0.629,1.405-1.405s-0.629-1.405-1.405-1.405h-0.19c-0.781,0-1.415,0.624-1.415,1.405
	C84.575-0.253,85.208,0.38,85.99,0.37L85.99,0.37z M80.06,0.37h0.18c0.776,0,1.405-0.629,1.405-1.405s-0.629-1.405-1.405-1.405
	h-0.18c-0.776,0-1.405,0.629-1.405,1.405C78.655-0.259,79.284,0.371,80.06,0.37L80.06,0.37z M80.06,0.37h0.18
	c0.776,0,1.405-0.629,1.405-1.405s-0.629-1.405-1.405-1.405h-0.18c-0.776,0-1.405,0.629-1.405,1.405
	C78.655-0.259,79.284,0.371,80.06,0.37L80.06,0.37z M80.06,0.37h0.18c0.776,0,1.405-0.629,1.405-1.405s-0.629-1.405-1.405-1.405
	h-0.18c-0.776,0-1.405,0.629-1.405,1.405C78.655-0.259,79.284,0.371,80.06,0.37L80.06,0.37z M74.12,0.37h0.189
	c0.776,0,1.405-0.629,1.405-1.405s-0.629-1.405-1.405-1.405H74.12c-0.782,0-1.415,0.624-1.415,1.405
	C72.705-0.253,73.339,0.38,74.12,0.37L74.12,0.37z M74.12,0.37h0.189c0.776,0,1.405-0.629,1.405-1.405s-0.629-1.405-1.405-1.405
	H74.12c-0.782,0-1.415,0.624-1.415,1.405C72.705-0.253,73.339,0.38,74.12,0.37L74.12,0.37z M74.12,0.37h0.189
	c0.776,0,1.405-0.629,1.405-1.405s-0.629-1.405-1.405-1.405H74.12c-0.782,0-1.415,0.624-1.415,1.405
	C72.705-0.253,73.339,0.38,74.12,0.37L74.12,0.37z M68.19,0.37h0.19c0.776,0,1.405-0.629,1.405-1.405s-0.629-1.405-1.405-1.405l0,0
	h-0.19c-0.782,0-1.415,0.624-1.415,1.405C66.775-0.253,67.409,0.38,68.19,0.37L68.19,0.37z M68.19,0.37h0.19
	c0.776,0,1.405-0.629,1.405-1.405s-0.629-1.405-1.405-1.405l0,0h-0.19c-0.782,0-1.415,0.624-1.415,1.405
	C66.775-0.253,67.409,0.38,68.19,0.37L68.19,0.37z M68.19,0.37h0.19c0.776,0,1.405-0.629,1.405-1.405s-0.629-1.405-1.405-1.405l0,0
	h-0.19c-0.782,0-1.415,0.624-1.415,1.405C66.775-0.253,67.409,0.38,68.19,0.37L68.19,0.37z M62.25,0.37h0.19
	c0.776,0,1.405-0.629,1.405-1.405s-0.629-1.405-1.405-1.405h-0.19c-0.781,0-1.415,0.624-1.415,1.405
	C60.835-0.253,61.469,0.38,62.25,0.37L62.25,0.37z M62.25,0.37h0.19c0.776,0,1.405-0.629,1.405-1.405s-0.629-1.405-1.405-1.405
	h-0.19c-0.781,0-1.415,0.624-1.415,1.405C60.835-0.253,61.469,0.38,62.25,0.37L62.25,0.37z M62.25,0.37h0.19
	c0.776,0,1.405-0.629,1.405-1.405s-0.629-1.405-1.405-1.405h-0.19c-0.781,0-1.415,0.624-1.415,1.405
	C60.835-0.253,61.469,0.38,62.25,0.37L62.25,0.37z M56.32,0.37h0.19c0.776,0,1.405-0.629,1.405-1.405s-0.629-1.405-1.405-1.405
	h-0.19c-0.781,0-1.415,0.624-1.415,1.405C54.905-0.253,55.539,0.38,56.32,0.37L56.32,0.37z M56.32,0.37h0.19
	c0.776,0,1.405-0.629,1.405-1.405s-0.629-1.405-1.405-1.405h-0.19c-0.781,0-1.415,0.624-1.415,1.405
	C54.905-0.253,55.539,0.38,56.32,0.37L56.32,0.37z M56.32,0.37h0.19c0.776,0,1.405-0.629,1.405-1.405s-0.629-1.405-1.405-1.405
	h-0.19c-0.781,0-1.415,0.624-1.415,1.405C54.905-0.253,55.539,0.38,56.32,0.37L56.32,0.37z M50.39,0.37h0.19
	c0.776,0,1.405-0.629,1.405-1.405s-0.629-1.405-1.405-1.405l0,0h-0.19c-0.776,0-1.405,0.629-1.405,1.405S49.614,0.371,50.39,0.37
	L50.39,0.37z M50.39,0.37h0.19c0.776,0,1.405-0.629,1.405-1.405s-0.629-1.405-1.405-1.405l0,0h-0.19
	c-0.776,0-1.405,0.629-1.405,1.405S49.614,0.371,50.39,0.37L50.39,0.37z M50.39,0.37h0.19c0.776,0,1.405-0.629,1.405-1.405
	s-0.629-1.405-1.405-1.405l0,0h-0.19c-0.776,0-1.405,0.629-1.405,1.405S49.614,0.371,50.39,0.37L50.39,0.37z M44.46,0.37h0.18
	c0.776,0,1.405-0.629,1.405-1.405s-0.629-1.405-1.405-1.405h-0.18c-0.776,0-1.405,0.629-1.405,1.405S43.684,0.371,44.46,0.37
	L44.46,0.37z M44.46,0.37h0.18c0.776,0,1.405-0.629,1.405-1.405s-0.629-1.405-1.405-1.405h-0.18c-0.776,0-1.405,0.629-1.405,1.405
	S43.684,0.371,44.46,0.37L44.46,0.37z M44.46,0.37h0.18c0.776,0,1.405-0.629,1.405-1.405s-0.629-1.405-1.405-1.405h-0.18
	c-0.776,0-1.405,0.629-1.405,1.405S43.684,0.371,44.46,0.37L44.46,0.37z M38.52,0.37h0.19c0.776,0,1.405-0.629,1.405-1.405
	s-0.629-1.405-1.405-1.405h-0.19c-0.776,0-1.405,0.629-1.405,1.405C37.115-0.259,37.744,0.371,38.52,0.37L38.52,0.37z M38.52,0.37
	h0.19c0.776,0,1.405-0.629,1.405-1.405s-0.629-1.405-1.405-1.405h-0.19c-0.776,0-1.405,0.629-1.405,1.405
	C37.115-0.259,37.744,0.371,38.52,0.37L38.52,0.37z M38.52,0.37h0.19c0.776,0,1.405-0.629,1.405-1.405s-0.629-1.405-1.405-1.405
	h-0.19c-0.776,0-1.405,0.629-1.405,1.405C37.115-0.259,37.744,0.371,38.52,0.37L38.52,0.37z M32.59,0.37h0.18
	c0.776,0,1.405-0.629,1.405-1.405s-0.629-1.405-1.405-1.405l0,0h-0.18c-0.776,0-1.405,0.629-1.405,1.405
	C31.185-0.259,31.814,0.371,32.59,0.37L32.59,0.37z M32.59,0.37h0.18c0.776,0,1.405-0.629,1.405-1.405s-0.629-1.405-1.405-1.405l0,0
	h-0.18c-0.776,0-1.405,0.629-1.405,1.405C31.185-0.259,31.814,0.371,32.59,0.37L32.59,0.37z M32.59,0.37h0.18
	c0.776,0,1.405-0.629,1.405-1.405s-0.629-1.405-1.405-1.405l0,0h-0.18c-0.776,0-1.405,0.629-1.405,1.405
	C31.185-0.259,31.814,0.371,32.59,0.37L32.59,0.37z M26.42,4.61l0.09-0.16c0.368-0.616,0.166-1.415-0.451-1.782
	c-0.042-0.025-0.085-0.047-0.129-0.067C25.306,2.258,24.524,2.429,24.1,3l-0.08,0.13c-0.317,0.638-0.112,1.413,0.48,1.81
	c0.58,0.446,1.412,0.338,1.858-0.242C26.38,4.67,26.4,4.641,26.42,4.61L26.42,4.61z M26.42,4.61l0.09-0.16
	c0.368-0.616,0.166-1.415-0.451-1.782c-0.042-0.025-0.085-0.047-0.129-0.067C25.306,2.258,24.524,2.429,24.1,3l-0.08,0.13
	c-0.317,0.638-0.112,1.413,0.48,1.81c0.58,0.446,1.412,0.338,1.858-0.242C26.38,4.67,26.4,4.641,26.42,4.61L26.42,4.61z M26.42,4.61
	l0.09-0.16c0.368-0.616,0.166-1.415-0.451-1.782c-0.042-0.025-0.085-0.047-0.129-0.067C25.306,2.258,24.524,2.429,24.1,3l-0.08,0.13
	c-0.317,0.638-0.112,1.413,0.48,1.81c0.58,0.446,1.412,0.338,1.858-0.242C26.38,4.67,26.4,4.641,26.42,4.61L26.42,4.61z M22.56,9.05
	l0.14-0.12c0.536-0.486,0.575-1.315,0.089-1.85C22.763,7.052,22.737,7.025,22.71,7c-0.485-0.532-1.297-0.606-1.87-0.17l-0.12,0.11
	c-0.509,0.509-0.539,1.324-0.07,1.87c0.42,0.589,1.239,0.725,1.827,0.305C22.506,9.095,22.533,9.073,22.56,9.05L22.56,9.05z
	 M22.56,9.05l0.14-0.12c0.536-0.486,0.575-1.315,0.089-1.85C22.763,7.052,22.737,7.025,22.71,7c-0.485-0.532-1.297-0.606-1.87-0.17
	l-0.12,0.11c-0.509,0.509-0.539,1.324-0.07,1.87c0.42,0.589,1.239,0.725,1.827,0.305C22.506,9.095,22.533,9.073,22.56,9.05
	L22.56,9.05z M22.56,9.05l0.14-0.12c0.536-0.486,0.575-1.315,0.089-1.85C22.763,7.052,22.737,7.025,22.71,7
	c-0.485-0.532-1.297-0.606-1.87-0.17l-0.12,0.11c-0.509,0.509-0.539,1.324-0.07,1.87c0.42,0.589,1.239,0.725,1.827,0.305
	C22.506,9.095,22.533,9.073,22.56,9.05L22.56,9.05z M17.8,12.32l0.16-0.08c0.627-0.365,0.84-1.17,0.475-1.798
	c-0.014-0.024-0.029-0.048-0.045-0.072c-0.349-0.637-1.134-0.891-1.79-0.58l-0.15,0.07c-0.607,0.396-0.811,1.19-0.47,1.83
	c0.307,0.669,1.099,0.963,1.768,0.656C17.765,12.338,17.783,12.329,17.8,12.32L17.8,12.32z M17.8,12.32l0.16-0.08
	c0.627-0.365,0.84-1.17,0.475-1.798c-0.014-0.024-0.029-0.048-0.045-0.072c-0.349-0.637-1.134-0.891-1.79-0.58l-0.15,0.07
	c-0.607,0.396-0.811,1.19-0.47,1.83c0.307,0.669,1.099,0.963,1.768,0.656C17.765,12.338,17.783,12.329,17.8,12.32L17.8,12.32z
	 M17.8,12.32l0.16-0.08c0.627-0.365,0.84-1.17,0.475-1.798c-0.014-0.024-0.029-0.048-0.045-0.072
	c-0.349-0.637-1.134-0.891-1.79-0.58l-0.15,0.07c-0.607,0.396-0.811,1.19-0.47,1.83c0.307,0.669,1.099,0.963,1.768,0.656
	C17.765,12.338,17.783,12.329,17.8,12.32L17.8,12.32z M12.55,14.61l0.18-0.06c0.68-0.256,1.023-1.015,0.767-1.694
	c-0.008-0.022-0.017-0.044-0.027-0.066c-0.232-0.693-0.965-1.084-1.67-0.89l-0.15,0.05c-0.677,0.273-1.021,1.03-0.78,1.72
	c0.183,0.711,0.908,1.14,1.619,0.958C12.509,14.623,12.53,14.617,12.55,14.61L12.55,14.61z M12.55,14.61l0.18-0.06
	c0.68-0.256,1.023-1.015,0.767-1.694c-0.008-0.022-0.017-0.044-0.027-0.066c-0.232-0.693-0.965-1.084-1.67-0.89l-0.15,0.05
	c-0.677,0.273-1.021,1.03-0.78,1.72c0.183,0.711,0.908,1.14,1.619,0.958C12.509,14.623,12.53,14.617,12.55,14.61L12.55,14.61z
	 M12.55,14.61l0.18-0.06c0.68-0.256,1.023-1.015,0.767-1.694c-0.008-0.022-0.017-0.044-0.027-0.066
	c-0.232-0.693-0.965-1.084-1.67-0.89l-0.15,0.05c-0.677,0.273-1.021,1.03-0.78,1.72c0.183,0.711,0.908,1.14,1.619,0.958
	C12.509,14.623,12.53,14.617,12.55,14.61L12.55,14.61z M7.04,16.03L7.22,16c0.718-0.159,1.171-0.869,1.013-1.586
	c-0.004-0.018-0.008-0.036-0.013-0.054c-0.133-0.715-0.798-1.204-1.52-1.12l-0.17,0.04c-0.711,0.17-1.158,0.874-1.01,1.59
	c0.084,0.729,0.743,1.251,1.472,1.167C7.008,16.035,7.024,16.033,7.04,16.03L7.04,16.03z M7.04,16.03L7.22,16
	c0.718-0.159,1.171-0.869,1.013-1.586c-0.004-0.018-0.008-0.036-0.013-0.054c-0.133-0.715-0.798-1.204-1.52-1.12l-0.17,0.04
	c-0.711,0.17-1.158,0.874-1.01,1.59c0.084,0.729,0.743,1.251,1.472,1.167C7.008,16.035,7.024,16.033,7.04,16.03L7.04,16.03z
	 M7.04,16.03L7.22,16c0.718-0.159,1.171-0.869,1.013-1.586c-0.004-0.018-0.008-0.036-0.013-0.054
	c-0.133-0.715-0.798-1.204-1.52-1.12l-0.17,0.04c-0.711,0.17-1.158,0.874-1.01,1.59c0.084,0.729,0.743,1.251,1.472,1.167
	C7.008,16.035,7.024,16.033,7.04,16.03L7.04,16.03z M2.91,21.23v-0.19c0.005-0.779-0.623-1.414-1.401-1.419
	c-0.779-0.004-1.414,0.623-1.418,1.401c0,0.006,0,0.012,0,0.018v0.19c0,0.779,0.631,1.41,1.41,1.41
	C2.278,22.641,2.91,22.009,2.91,21.23L2.91,21.23z M2.91,21.23v-0.19c0.005-0.779-0.623-1.414-1.401-1.419
	c-0.779-0.004-1.414,0.623-1.418,1.401c0,0.006,0,0.012,0,0.018v0.19c0,0.779,0.631,1.41,1.41,1.41
	C2.278,22.641,2.91,22.009,2.91,21.23L2.91,21.23z M2.91,21.23v-0.19c0.005-0.779-0.623-1.414-1.401-1.419
	c-0.779-0.004-1.414,0.623-1.418,1.401c0,0.006,0,0.012,0,0.018v0.19c0,0.779,0.631,1.41,1.41,1.41
	C2.278,22.641,2.91,22.009,2.91,21.23L2.91,21.23z M2.91,27.291v-0.19c0.005-0.779-0.623-1.414-1.401-1.419
	s-1.414,0.623-1.418,1.401c0,0.006,0,0.012,0,0.018v0.19c0,0.779,0.631,1.41,1.41,1.41C2.278,28.701,2.91,28.069,2.91,27.291
	L2.91,27.291z M2.91,27.291v-0.19c0.005-0.779-0.623-1.414-1.401-1.419s-1.414,0.623-1.418,1.401c0,0.006,0,0.012,0,0.018v0.19
	c0,0.779,0.631,1.41,1.41,1.41C2.278,28.701,2.91,28.069,2.91,27.291L2.91,27.291z M2.91,27.291v-0.19
	c0.005-0.779-0.623-1.414-1.401-1.419s-1.414,0.623-1.418,1.401c0,0.006,0,0.012,0,0.018v0.19c0,0.779,0.631,1.41,1.41,1.41
	C2.278,28.701,2.91,28.069,2.91,27.291L2.91,27.291z M2.91,33.36v-0.2c0.005-0.778-0.623-1.414-1.401-1.418
	s-1.414,0.623-1.418,1.401c0,0.006,0,0.011,0,0.017v0.2c0,0.779,0.631,1.41,1.41,1.41C2.278,34.771,2.91,34.139,2.91,33.36
	L2.91,33.36z M2.91,33.36v-0.2c0.005-0.778-0.623-1.414-1.401-1.418s-1.414,0.623-1.418,1.401c0,0.006,0,0.011,0,0.017v0.2
	c0,0.779,0.631,1.41,1.41,1.41C2.278,34.771,2.91,34.139,2.91,33.36L2.91,33.36z M2.91,33.36v-0.2
	c0.005-0.778-0.623-1.414-1.401-1.418s-1.414,0.623-1.418,1.401c0,0.006,0,0.011,0,0.017v0.2c0,0.779,0.631,1.41,1.41,1.41
	C2.278,34.771,2.91,34.139,2.91,33.36L2.91,33.36z M2.91,39.42v-0.19c0.005-0.779-0.623-1.414-1.401-1.419
	c-0.779-0.004-1.414,0.623-1.418,1.401c0,0.006,0,0.012,0,0.018v0.19c0,0.779,0.631,1.41,1.41,1.41S2.91,40.199,2.91,39.42
	L2.91,39.42z M2.91,39.42v-0.19c0.005-0.779-0.623-1.414-1.401-1.419c-0.779-0.004-1.414,0.623-1.418,1.401c0,0.006,0,0.012,0,0.018
	v0.19c0,0.779,0.631,1.41,1.41,1.41S2.91,40.199,2.91,39.42L2.91,39.42z M2.91,39.42v-0.19c0.005-0.779-0.623-1.414-1.401-1.419
	c-0.779-0.004-1.414,0.623-1.418,1.401c0,0.006,0,0.012,0,0.018v0.19c0,0.779,0.631,1.41,1.41,1.41S2.91,40.199,2.91,39.42
	L2.91,39.42z M2.91,45.48v-0.19c-0.005-0.779-0.64-1.406-1.418-1.401c-0.772,0.005-1.396,0.629-1.401,1.401v0.19
	c0,0.779,0.631,1.41,1.41,1.41S2.91,46.259,2.91,45.48L2.91,45.48z M2.91,45.48v-0.19c-0.005-0.779-0.64-1.406-1.418-1.401
	c-0.772,0.005-1.396,0.629-1.401,1.401v0.19c0,0.779,0.631,1.41,1.41,1.41S2.91,46.259,2.91,45.48L2.91,45.48z M2.91,45.48v-0.19
	c-0.005-0.779-0.64-1.406-1.418-1.401c-0.772,0.005-1.396,0.629-1.401,1.401v0.19c0,0.779,0.631,1.41,1.41,1.41
	S2.91,46.259,2.91,45.48L2.91,45.48z M2.91,51.55v-0.19c0.005-0.778-0.623-1.414-1.401-1.418s-1.414,0.623-1.418,1.401
	c0,0.006,0,0.012,0,0.018v0.19c0,0.779,0.631,1.41,1.41,1.41S2.91,52.329,2.91,51.55L2.91,51.55z M2.91,51.55v-0.19
	c0.005-0.778-0.623-1.414-1.401-1.418s-1.414,0.623-1.418,1.401c0,0.006,0,0.012,0,0.018v0.19c0,0.779,0.631,1.41,1.41,1.41
	S2.91,52.329,2.91,51.55L2.91,51.55z M2.91,51.55v-0.19c0.005-0.778-0.623-1.414-1.401-1.418s-1.414,0.623-1.418,1.401
	c0,0.006,0,0.012,0,0.018v0.19c0,0.779,0.631,1.41,1.41,1.41S2.91,52.329,2.91,51.55L2.91,51.55z M2.91,57.609V57.42
	c0.005-0.777-0.623-1.413-1.401-1.417s-1.414,0.624-1.418,1.401c0,0.006,0,0.011,0,0.017v0.189c0,0.778,0.631,1.41,1.41,1.41
	S2.91,58.388,2.91,57.609L2.91,57.609z M2.91,57.609V57.42c0.005-0.777-0.623-1.413-1.401-1.417s-1.414,0.624-1.418,1.401
	c0,0.006,0,0.011,0,0.017v0.189c0,0.778,0.631,1.41,1.41,1.41S2.91,58.388,2.91,57.609L2.91,57.609z M2.91,57.609V57.42
	c0.005-0.777-0.623-1.413-1.401-1.417s-1.414,0.624-1.418,1.401c0,0.006,0,0.011,0,0.017v0.189c0,0.778,0.631,1.41,1.41,1.41
	S2.91,58.388,2.91,57.609L2.91,57.609z M2.91,63.68v-0.19c0.005-0.778-0.623-1.414-1.401-1.418c-0.779-0.006-1.414,0.622-1.418,1.4
	c0,0.006,0,0.012,0,0.018v0.19c0,0.778,0.631,1.41,1.41,1.41S2.91,64.458,2.91,63.68L2.91,63.68z M2.91,63.68v-0.19
	c0.005-0.778-0.623-1.414-1.401-1.418c-0.779-0.006-1.414,0.622-1.418,1.4c0,0.006,0,0.012,0,0.018v0.19
	c0,0.778,0.631,1.41,1.41,1.41S2.91,64.458,2.91,63.68L2.91,63.68z M2.91,63.68v-0.19c0.005-0.778-0.623-1.414-1.401-1.418
	c-0.779-0.006-1.414,0.622-1.418,1.4c0,0.006,0,0.012,0,0.018v0.19c0,0.778,0.631,1.41,1.41,1.41S2.91,64.458,2.91,63.68L2.91,63.68
	z M2.91,69.739V69.55c0.005-0.779-0.623-1.414-1.401-1.419s-1.414,0.622-1.418,1.401c0,0.006,0,0.012,0,0.018v0.189
	c0,0.779,0.631,1.41,1.41,1.41S2.91,70.519,2.91,69.739L2.91,69.739z M2.91,69.739V69.55c0.005-0.779-0.623-1.414-1.401-1.419
	s-1.414,0.622-1.418,1.401c0,0.006,0,0.012,0,0.018v0.189c0,0.779,0.631,1.41,1.41,1.41S2.91,70.519,2.91,69.739L2.91,69.739z
	 M2.91,69.739V69.55c0.005-0.779-0.623-1.414-1.401-1.419s-1.414,0.622-1.418,1.401c0,0.006,0,0.012,0,0.018v0.189
	c0,0.779,0.631,1.41,1.41,1.41S2.91,70.519,2.91,69.739L2.91,69.739z M2.91,75.81V75.62c0.005-0.779-0.623-1.414-1.401-1.42
	c-0.779-0.004-1.414,0.623-1.418,1.402c0,0.006,0,0.012,0,0.018v0.189c0,0.779,0.631,1.41,1.41,1.41S2.91,76.589,2.91,75.81
	L2.91,75.81z M2.91,75.81V75.62c0.005-0.779-0.623-1.414-1.401-1.42c-0.779-0.004-1.414,0.623-1.418,1.402c0,0.006,0,0.012,0,0.018
	v0.189c0,0.779,0.631,1.41,1.41,1.41S2.91,76.589,2.91,75.81L2.91,75.81z M2.91,75.81V75.62c0.005-0.779-0.623-1.414-1.401-1.42
	c-0.779-0.004-1.414,0.623-1.418,1.402c0,0.006,0,0.012,0,0.018v0.189c0,0.779,0.631,1.41,1.41,1.41S2.91,76.589,2.91,75.81
	L2.91,75.81z M2.91,81.87v-0.19c0.005-0.778-0.623-1.414-1.401-1.419s-1.414,0.623-1.418,1.401c0,0.006,0,0.012,0,0.018v0.19
	c0,0.778,0.631,1.41,1.41,1.41S2.91,82.648,2.91,81.87L2.91,81.87z M2.91,81.87v-0.19c0.005-0.778-0.623-1.414-1.401-1.419
	s-1.414,0.623-1.418,1.401c0,0.006,0,0.012,0,0.018v0.19c0,0.778,0.631,1.41,1.41,1.41S2.91,82.648,2.91,81.87L2.91,81.87z
	 M2.91,81.87v-0.19c0.005-0.778-0.623-1.414-1.401-1.419s-1.414,0.623-1.418,1.401c0,0.006,0,0.012,0,0.018v0.19
	c0,0.778,0.631,1.41,1.41,1.41S2.91,82.648,2.91,81.87L2.91,81.87z M2.91,87.93v-0.19c0.005-0.778-0.623-1.414-1.401-1.418
	c-0.779-0.005-1.414,0.622-1.418,1.4c0,0.006,0,0.012,0,0.018v0.19c0,0.778,0.631,1.41,1.41,1.41S2.91,88.708,2.91,87.93L2.91,87.93
	z M2.91,87.93v-0.19c0.005-0.778-0.623-1.414-1.401-1.418c-0.779-0.005-1.414,0.622-1.418,1.4c0,0.006,0,0.012,0,0.018v0.19
	c0,0.778,0.631,1.41,1.41,1.41S2.91,88.708,2.91,87.93L2.91,87.93z M2.91,87.93v-0.19c0.005-0.778-0.623-1.414-1.401-1.418
	c-0.779-0.005-1.414,0.622-1.418,1.4c0,0.006,0,0.012,0,0.018v0.19c0,0.778,0.631,1.41,1.41,1.41S2.91,88.708,2.91,87.93L2.91,87.93
	z M7.18,93.05L7,93.01c-0.726-0.116-1.408,0.378-1.525,1.104c-0.001,0.013-0.003,0.024-0.005,0.036
	c-0.15,0.711,0.279,1.417,0.98,1.61l0.17,0.03c0.722,0.1,1.395-0.385,1.53-1.101c0.197-0.7-0.211-1.429-0.912-1.625
	C7.218,93.059,7.199,93.054,7.18,93.05L7.18,93.05z M7.18,93.05L7,93.01c-0.726-0.116-1.408,0.378-1.525,1.104
	c-0.001,0.013-0.003,0.024-0.005,0.036c-0.15,0.711,0.279,1.417,0.98,1.61l0.17,0.03c0.722,0.1,1.395-0.385,1.53-1.101
	c0.197-0.7-0.211-1.429-0.912-1.625C7.218,93.059,7.199,93.054,7.18,93.05L7.18,93.05z M7.18,93.05L7,93.01
	c-0.726-0.116-1.408,0.378-1.525,1.104c-0.001,0.013-0.003,0.024-0.005,0.036c-0.15,0.711,0.279,1.417,0.98,1.61l0.17,0.03
	c0.722,0.1,1.395-0.385,1.53-1.101c0.197-0.7-0.211-1.429-0.912-1.625C7.218,93.059,7.199,93.054,7.18,93.05L7.18,93.05z
	 M12.64,94.55l-0.17-0.061c-0.701-0.219-1.447,0.172-1.667,0.873c-0.005,0.016-0.009,0.031-0.014,0.047
	c-0.258,0.68,0.069,1.441,0.74,1.721l0.16,0.06c0.7,0.201,1.434-0.182,1.67-0.87c0.297-0.67-0.006-1.455-0.676-1.752
	C12.669,94.562,12.654,94.556,12.64,94.55L12.64,94.55z M12.64,94.55l-0.17-0.061c-0.701-0.219-1.447,0.172-1.667,0.873
	c-0.005,0.016-0.009,0.031-0.014,0.047c-0.258,0.68,0.069,1.441,0.74,1.721l0.16,0.06c0.7,0.201,1.434-0.182,1.67-0.87
	c0.297-0.67-0.006-1.455-0.676-1.752C12.669,94.562,12.654,94.556,12.64,94.55L12.64,94.55z M12.64,94.55l-0.17-0.061
	c-0.701-0.219-1.447,0.172-1.667,0.873c-0.005,0.016-0.009,0.031-0.014,0.047c-0.258,0.68,0.069,1.441,0.74,1.721l0.16,0.06
	c0.7,0.201,1.434-0.182,1.67-0.87c0.297-0.67-0.006-1.455-0.676-1.752C12.669,94.562,12.654,94.556,12.64,94.55L12.64,94.55z
	 M17.82,96.89l-0.15-0.09c-0.657-0.336-1.461-0.076-1.796,0.581c-0.008,0.017-0.016,0.032-0.024,0.049
	c-0.351,0.633-0.149,1.43,0.46,1.819l0.14,0.09c0.657,0.306,1.437,0.053,1.79-0.579c0.409-0.594,0.26-1.406-0.333-1.815
	C17.878,96.925,17.85,96.907,17.82,96.89L17.82,96.89z M17.82,96.89l-0.15-0.09c-0.657-0.336-1.461-0.076-1.796,0.581
	c-0.008,0.017-0.016,0.032-0.024,0.049c-0.351,0.633-0.149,1.43,0.46,1.819l0.14,0.09c0.657,0.306,1.437,0.053,1.79-0.579
	c0.409-0.594,0.26-1.406-0.333-1.815C17.878,96.925,17.85,96.907,17.82,96.89L17.82,96.89z M17.82,96.89l-0.15-0.09
	c-0.657-0.336-1.461-0.076-1.796,0.581c-0.008,0.017-0.016,0.032-0.024,0.049c-0.351,0.633-0.149,1.43,0.46,1.819l0.14,0.09
	c0.657,0.306,1.437,0.053,1.79-0.579c0.409-0.594,0.26-1.406-0.333-1.815C17.878,96.925,17.85,96.907,17.82,96.89L17.82,96.89z
	 M22.53,100.189l-0.14-0.12c-0.561-0.465-1.392-0.389-1.857,0.172c-0.018,0.022-0.036,0.045-0.053,0.068
	c-0.47,0.545-0.439,1.361,0.07,1.87l0.12,0.11c0.577,0.429,1.385,0.351,1.87-0.181c0.528-0.492,0.556-1.319,0.064-1.847
	C22.58,100.237,22.556,100.213,22.53,100.189L22.53,100.189z M22.53,100.189l-0.14-0.12c-0.561-0.465-1.392-0.389-1.857,0.172
	c-0.018,0.022-0.036,0.045-0.053,0.068c-0.47,0.545-0.439,1.361,0.07,1.87l0.12,0.11c0.577,0.429,1.385,0.351,1.87-0.181
	c0.528-0.492,0.556-1.319,0.064-1.847C22.58,100.237,22.556,100.213,22.53,100.189L22.53,100.189z M22.53,100.189l-0.14-0.12
	c-0.561-0.465-1.392-0.389-1.857,0.172c-0.018,0.022-0.036,0.045-0.053,0.068c-0.47,0.545-0.439,1.361,0.07,1.87l0.12,0.11
	c0.577,0.429,1.385,0.351,1.87-0.181c0.528-0.492,0.556-1.319,0.064-1.847C22.58,100.237,22.556,100.213,22.53,100.189
	L22.53,100.189z M26.35,104.6l-0.1-0.16c-0.409-0.602-1.228-0.758-1.83-0.349c-0.027,0.018-0.054,0.038-0.08,0.059
	c-0.592,0.398-0.791,1.178-0.46,1.811l0.09,0.13c0.43,0.567,1.217,0.723,1.83,0.36c0.648-0.31,0.923-1.086,0.613-1.733
	C26.395,104.677,26.373,104.638,26.35,104.6L26.35,104.6z M26.35,104.6l-0.1-0.16c-0.409-0.602-1.228-0.758-1.83-0.349
	c-0.027,0.018-0.054,0.038-0.08,0.059c-0.592,0.398-0.791,1.178-0.46,1.811l0.09,0.13c0.43,0.567,1.217,0.723,1.83,0.36
	c0.648-0.31,0.923-1.086,0.613-1.733C26.395,104.677,26.373,104.638,26.35,104.6L26.35,104.6z M26.35,104.6l-0.1-0.16
	c-0.409-0.602-1.228-0.758-1.83-0.349c-0.027,0.018-0.054,0.038-0.08,0.059c-0.592,0.398-0.791,1.178-0.46,1.811l0.09,0.13
	c0.43,0.567,1.217,0.723,1.83,0.36c0.648-0.31,0.923-1.086,0.613-1.733C26.395,104.677,26.373,104.638,26.35,104.6L26.35,104.6z
	 M32.709,108.579h-0.19c-0.773,0-1.4,0.627-1.4,1.4s0.627,1.4,1.4,1.4h0.19c0.775,0,1.404-0.625,1.404-1.4
	S33.485,108.576,32.709,108.579L32.709,108.579z M32.709,108.579h-0.19c-0.773,0-1.4,0.627-1.4,1.4s0.627,1.4,1.4,1.4h0.19
	c0.775,0,1.404-0.625,1.404-1.4S33.485,108.576,32.709,108.579L32.709,108.579z M32.709,108.579h-0.19c-0.773,0-1.4,0.627-1.4,1.4
	s0.627,1.4,1.4,1.4h0.19c0.775,0,1.404-0.625,1.404-1.4S33.485,108.576,32.709,108.579L32.709,108.579z M38.64,108.579h-0.18
	c-0.773,0-1.4,0.627-1.4,1.4s0.627,1.4,1.4,1.4h0.18c0.775,0,1.404-0.625,1.404-1.4S39.415,108.576,38.64,108.579L38.64,108.579z
	 M38.64,108.579h-0.18c-0.773,0-1.4,0.627-1.4,1.4s0.627,1.4,1.4,1.4h0.18c0.775,0,1.404-0.625,1.404-1.4
	S39.415,108.576,38.64,108.579L38.64,108.579z M38.64,108.579h-0.18c-0.773,0-1.4,0.627-1.4,1.4s0.627,1.4,1.4,1.4h0.18
	c0.775,0,1.404-0.625,1.404-1.4S39.415,108.576,38.64,108.579L38.64,108.579z M44.58,108.579h-0.19c-0.773,0-1.4,0.627-1.4,1.4
	s0.626,1.4,1.4,1.4l0,0h0.19c0.779,0,1.41-0.621,1.41-1.4C45.99,109.201,45.358,108.569,44.58,108.579L44.58,108.579z
	 M44.58,108.579h-0.19c-0.773,0-1.4,0.627-1.4,1.4s0.626,1.4,1.4,1.4l0,0h0.19c0.779,0,1.41-0.621,1.41-1.4
	C45.99,109.201,45.358,108.569,44.58,108.579L44.58,108.579z M44.58,108.579h-0.19c-0.773,0-1.4,0.627-1.4,1.4s0.626,1.4,1.4,1.4
	l0,0h0.19c0.779,0,1.41-0.621,1.41-1.4C45.99,109.201,45.358,108.569,44.58,108.579L44.58,108.579z M50.51,108.579h-0.19
	c-0.773,0-1.4,0.627-1.4,1.4s0.626,1.4,1.4,1.4h0.19c0.778,0,1.41-0.621,1.41-1.4C51.92,109.201,51.289,108.569,50.51,108.579
	L50.51,108.579z M50.51,108.579h-0.19c-0.773,0-1.4,0.627-1.4,1.4s0.626,1.4,1.4,1.4h0.19c0.778,0,1.41-0.621,1.41-1.4
	C51.92,109.201,51.289,108.569,50.51,108.579L50.51,108.579z M50.51,108.579h-0.19c-0.773,0-1.4,0.627-1.4,1.4s0.626,1.4,1.4,1.4
	h0.19c0.778,0,1.41-0.621,1.41-1.4C51.92,109.201,51.289,108.569,50.51,108.579L50.51,108.579z M56.439,108.579h-0.18
	c-0.773,0-1.4,0.627-1.4,1.4s0.627,1.4,1.4,1.4h0.18c0.782,0,1.416-0.618,1.416-1.4C57.856,109.198,57.222,108.563,56.439,108.579
	L56.439,108.579z M56.439,108.579h-0.18c-0.773,0-1.4,0.627-1.4,1.4s0.627,1.4,1.4,1.4h0.18c0.782,0,1.416-0.618,1.416-1.4
	C57.856,109.198,57.222,108.563,56.439,108.579L56.439,108.579z M56.439,108.579h-0.18c-0.773,0-1.4,0.627-1.4,1.4
	s0.627,1.4,1.4,1.4h0.18c0.782,0,1.416-0.618,1.416-1.4C57.856,109.198,57.222,108.563,56.439,108.579L56.439,108.579z
	 M62.38,108.579h-0.19c-0.773,0-1.4,0.627-1.4,1.4s0.627,1.4,1.4,1.4l0,0h0.19c0.775,0,1.403-0.625,1.404-1.4
	C63.784,109.204,63.155,108.576,62.38,108.579L62.38,108.579z M62.38,108.579h-0.19c-0.773,0-1.4,0.627-1.4,1.4s0.627,1.4,1.4,1.4
	l0,0h0.19c0.775,0,1.403-0.625,1.404-1.4C63.784,109.204,63.155,108.576,62.38,108.579L62.38,108.579z M62.38,108.579h-0.19
	c-0.773,0-1.4,0.627-1.4,1.4s0.627,1.4,1.4,1.4l0,0h0.19c0.775,0,1.403-0.625,1.404-1.4
	C63.784,109.204,63.155,108.576,62.38,108.579L62.38,108.579z M68.31,108.579h-0.18c-0.773,0-1.4,0.627-1.4,1.4s0.627,1.4,1.4,1.4
	h0.18c0.775,0,1.404-0.625,1.404-1.4C69.714,109.204,69.085,108.576,68.31,108.579L68.31,108.579z M68.31,108.579h-0.18
	c-0.773,0-1.4,0.627-1.4,1.4s0.627,1.4,1.4,1.4h0.18c0.775,0,1.404-0.625,1.404-1.4C69.714,109.204,69.085,108.576,68.31,108.579
	L68.31,108.579z M68.31,108.579h-0.18c-0.773,0-1.4,0.627-1.4,1.4s0.627,1.4,1.4,1.4h0.18c0.775,0,1.404-0.625,1.404-1.4
	C69.714,109.204,69.085,108.576,68.31,108.579L68.31,108.579z M74.25,108.579h-0.19c-0.773,0-1.4,0.627-1.4,1.4s0.627,1.4,1.4,1.4
	h0.19c0.779,0,1.41-0.621,1.41-1.4C75.66,109.201,75.029,108.569,74.25,108.579L74.25,108.579z M74.25,108.579h-0.19
	c-0.773,0-1.4,0.627-1.4,1.4s0.627,1.4,1.4,1.4h0.19c0.779,0,1.41-0.621,1.41-1.4C75.66,109.201,75.029,108.569,74.25,108.579
	L74.25,108.579z M74.25,108.579h-0.19c-0.773,0-1.4,0.627-1.4,1.4s0.627,1.4,1.4,1.4h0.19c0.779,0,1.41-0.621,1.41-1.4
	C75.66,109.201,75.029,108.569,74.25,108.579L74.25,108.579z M80.18,108.579h-0.19c-0.773,0-1.4,0.627-1.4,1.4s0.627,1.4,1.4,1.4
	h0.19c0.779,0,1.41-0.621,1.41-1.4C81.59,109.201,80.959,108.569,80.18,108.579L80.18,108.579z M80.18,108.579h-0.19
	c-0.773,0-1.4,0.627-1.4,1.4s0.627,1.4,1.4,1.4h0.19c0.779,0,1.41-0.621,1.41-1.4C81.59,109.201,80.959,108.569,80.18,108.579
	L80.18,108.579z M80.18,108.579h-0.19c-0.773,0-1.4,0.627-1.4,1.4s0.627,1.4,1.4,1.4h0.19c0.779,0,1.41-0.621,1.41-1.4
	C81.59,109.201,80.959,108.569,80.18,108.579L80.18,108.579z M86.11,108.579h-0.18c-0.773,0-1.4,0.627-1.4,1.4s0.626,1.4,1.4,1.4
	l0,0h0.18c0.773,0,1.4-0.627,1.4-1.4S86.883,108.579,86.11,108.579L86.11,108.579z M86.11,108.579h-0.18c-0.773,0-1.4,0.627-1.4,1.4
	s0.626,1.4,1.4,1.4l0,0h0.18c0.773,0,1.4-0.627,1.4-1.4S86.883,108.579,86.11,108.579L86.11,108.579z M86.11,108.579h-0.18
	c-0.773,0-1.4,0.627-1.4,1.4s0.626,1.4,1.4,1.4l0,0h0.18c0.773,0,1.4-0.627,1.4-1.4S86.883,108.579,86.11,108.579L86.11,108.579z
	 M92.05,108.579h-0.19c-0.773,0-1.4,0.627-1.4,1.4s0.626,1.4,1.4,1.4h0.19c0.775,0,1.404-0.625,1.404-1.4
	S92.825,108.576,92.05,108.579L92.05,108.579z M92.05,108.579h-0.19c-0.773,0-1.4,0.627-1.4,1.4s0.626,1.4,1.4,1.4h0.19
	c0.775,0,1.404-0.625,1.404-1.4S92.825,108.576,92.05,108.579L92.05,108.579z M92.05,108.579h-0.19c-0.773,0-1.4,0.627-1.4,1.4
	s0.626,1.4,1.4,1.4h0.19c0.775,0,1.404-0.625,1.404-1.4S92.825,108.576,92.05,108.579L92.05,108.579z M97.979,108.579H97.8
	c-0.773,0-1.4,0.627-1.4,1.4s0.627,1.4,1.4,1.4h0.18c0.782,0,1.416-0.618,1.416-1.4C99.396,109.198,98.762,108.563,97.979,108.579
	L97.979,108.579z M97.979,108.579H97.8c-0.773,0-1.4,0.627-1.4,1.4s0.627,1.4,1.4,1.4h0.18c0.782,0,1.416-0.618,1.416-1.4
	C99.396,109.198,98.762,108.563,97.979,108.579L97.979,108.579z M97.979,108.579H97.8c-0.773,0-1.4,0.627-1.4,1.4s0.627,1.4,1.4,1.4
	h0.18c0.782,0,1.416-0.618,1.416-1.4C99.396,109.198,98.762,108.563,97.979,108.579L97.979,108.579z M103.92,108.579h-0.19
	c-0.773,0-1.4,0.627-1.4,1.4s0.627,1.4,1.4,1.4h0.19c0.778,0,1.41-0.621,1.41-1.4C105.33,109.201,104.699,108.569,103.92,108.579
	L103.92,108.579z M103.92,108.579h-0.19c-0.773,0-1.4,0.627-1.4,1.4s0.627,1.4,1.4,1.4h0.19c0.778,0,1.41-0.621,1.41-1.4
	C105.33,109.201,104.699,108.569,103.92,108.579L103.92,108.579z M103.92,108.579h-0.19c-0.773,0-1.4,0.627-1.4,1.4
	s0.627,1.4,1.4,1.4h0.19c0.778,0,1.41-0.621,1.41-1.4C105.33,109.201,104.699,108.569,103.92,108.579L103.92,108.579z
	 M109.85,108.579h-0.19c-0.773,0-1.4,0.627-1.4,1.4s0.627,1.4,1.4,1.4l0,0h0.19c0.782,0,1.416-0.618,1.416-1.4
	C111.266,109.198,110.632,108.563,109.85,108.579L109.85,108.579z M109.85,108.579h-0.19c-0.773,0-1.4,0.627-1.4,1.4
	s0.627,1.4,1.4,1.4l0,0h0.19c0.782,0,1.416-0.618,1.416-1.4C111.266,109.198,110.632,108.563,109.85,108.579L109.85,108.579z
	 M109.85,108.579h-0.19c-0.773,0-1.4,0.627-1.4,1.4s0.627,1.4,1.4,1.4l0,0h0.19c0.782,0,1.416-0.618,1.416-1.4
	C111.266,109.198,110.632,108.563,109.85,108.579L109.85,108.579z M115.78,108.579h-0.19c-0.773,0-1.4,0.627-1.4,1.4
	s0.626,1.4,1.4,1.4l0,0h0.19c0.782,0,1.416-0.618,1.416-1.4C117.196,109.198,116.562,108.563,115.78,108.579L115.78,108.579z
	 M115.78,108.579h-0.19c-0.773,0-1.4,0.627-1.4,1.4s0.626,1.4,1.4,1.4l0,0h0.19c0.782,0,1.416-0.618,1.416-1.4
	C117.196,109.198,116.562,108.563,115.78,108.579L115.78,108.579z M115.78,108.579h-0.19c-0.773,0-1.4,0.627-1.4,1.4
	s0.626,1.4,1.4,1.4l0,0h0.19c0.782,0,1.416-0.618,1.416-1.4C117.196,109.198,116.562,108.563,115.78,108.579L115.78,108.579z
	 M121.72,108.579h-0.19c-0.773,0-1.4,0.627-1.4,1.4s0.627,1.4,1.4,1.4h0.19c0.782,0,1.416-0.618,1.416-1.4
	C123.136,109.198,122.502,108.563,121.72,108.579L121.72,108.579z M121.72,108.579h-0.19c-0.773,0-1.4,0.627-1.4,1.4
	s0.627,1.4,1.4,1.4h0.19c0.782,0,1.416-0.618,1.416-1.4C123.136,109.198,122.502,108.563,121.72,108.579L121.72,108.579z
	 M121.72,108.579h-0.19c-0.773,0-1.4,0.627-1.4,1.4s0.627,1.4,1.4,1.4h0.19c0.782,0,1.416-0.618,1.416-1.4
	C123.136,109.198,122.502,108.563,121.72,108.579L121.72,108.579z M127.65,108.579h-0.18c-0.773,0-1.4,0.627-1.4,1.4
	s0.626,1.4,1.4,1.4h0.18c0.773,0,1.4-0.627,1.4-1.4S128.423,108.579,127.65,108.579L127.65,108.579z M127.65,108.579h-0.18
	c-0.773,0-1.4,0.627-1.4,1.4s0.626,1.4,1.4,1.4h0.18c0.773,0,1.4-0.627,1.4-1.4S128.423,108.579,127.65,108.579L127.65,108.579z
	 M127.65,108.579h-0.18c-0.773,0-1.4,0.627-1.4,1.4s0.626,1.4,1.4,1.4h0.18c0.773,0,1.4-0.627,1.4-1.4
	S128.423,108.579,127.65,108.579L127.65,108.579z M133.59,108.579h-0.19c-0.773,0-1.4,0.627-1.4,1.4s0.626,1.4,1.4,1.4h0.19
	c0.781,0,1.416-0.618,1.416-1.4C135.006,109.198,134.372,108.563,133.59,108.579L133.59,108.579z M133.59,108.579h-0.19
	c-0.773,0-1.4,0.627-1.4,1.4s0.626,1.4,1.4,1.4h0.19c0.781,0,1.416-0.618,1.416-1.4C135.006,109.198,134.372,108.563,133.59,108.579
	L133.59,108.579z M133.59,108.579h-0.19c-0.773,0-1.4,0.627-1.4,1.4s0.626,1.4,1.4,1.4h0.19c0.781,0,1.416-0.618,1.416-1.4
	C135.006,109.198,134.372,108.563,133.59,108.579L133.59,108.579z M139.52,108.579h-0.189c-0.773,0-1.4,0.627-1.4,1.4
	s0.627,1.4,1.4,1.4h0.189c0.782,0,1.416-0.618,1.416-1.4C140.936,109.198,140.302,108.563,139.52,108.579L139.52,108.579z
	 M139.52,108.579h-0.189c-0.773,0-1.4,0.627-1.4,1.4s0.627,1.4,1.4,1.4h0.189c0.782,0,1.416-0.618,1.416-1.4
	C140.936,109.198,140.302,108.563,139.52,108.579L139.52,108.579z M139.52,108.579h-0.189c-0.773,0-1.4,0.627-1.4,1.4
	s0.627,1.4,1.4,1.4h0.189c0.782,0,1.416-0.618,1.416-1.4C140.936,109.198,140.302,108.563,139.52,108.579L139.52,108.579z
	 M145.46,108.579h-0.19c-0.773,0-1.4,0.627-1.4,1.4s0.627,1.4,1.4,1.4h0.19c0.772,0,1.399-0.627,1.399-1.4
	S146.233,108.579,145.46,108.579L145.46,108.579z M145.46,108.579h-0.19c-0.773,0-1.4,0.627-1.4,1.4s0.627,1.4,1.4,1.4h0.19
	c0.772,0,1.399-0.627,1.399-1.4S146.233,108.579,145.46,108.579L145.46,108.579z M145.46,108.579h-0.19c-0.773,0-1.4,0.627-1.4,1.4
	s0.627,1.4,1.4,1.4h0.19c0.772,0,1.399-0.627,1.399-1.4S146.233,108.579,145.46,108.579L145.46,108.579z M151.39,108.579h-0.19
	c-0.772,0-1.399,0.627-1.399,1.4s0.627,1.4,1.399,1.4h0.19c0.782,0,1.416-0.618,1.416-1.4
	C152.806,109.198,152.172,108.563,151.39,108.579L151.39,108.579z M151.39,108.579h-0.19c-0.772,0-1.399,0.627-1.399,1.4
	s0.627,1.4,1.399,1.4h0.19c0.782,0,1.416-0.618,1.416-1.4C152.806,109.198,152.172,108.563,151.39,108.579L151.39,108.579z
	 M151.39,108.579h-0.19c-0.772,0-1.399,0.627-1.399,1.4s0.627,1.4,1.399,1.4h0.19c0.782,0,1.416-0.618,1.416-1.4
	C152.806,109.198,152.172,108.563,151.39,108.579L151.39,108.579z M157.32,108.579h-0.19c-0.773,0-1.399,0.627-1.399,1.4
	s0.626,1.4,1.399,1.4h0.19c0.747-0.199,1.18-1.012,0.98-1.76C158.172,109.135,157.793,108.755,157.32,108.579L157.32,108.579z
	 M157.32,108.579h-0.19c-0.773,0-1.399,0.627-1.399,1.4s0.626,1.4,1.399,1.4h0.19c0.747-0.199,1.18-1.012,0.98-1.76
	C158.172,109.135,157.793,108.755,157.32,108.579L157.32,108.579z M157.32,108.579h-0.19c-0.773,0-1.399,0.627-1.399,1.4
	s0.626,1.4,1.399,1.4h0.19c0.747-0.199,1.18-1.012,0.98-1.76C158.172,109.135,157.793,108.755,157.32,108.579L157.32,108.579z
	 M163.25,108.579h-0.18c-0.773,0-1.4,0.627-1.4,1.4s0.627,1.4,1.4,1.4h0.18c0.747-0.199,1.18-1.012,0.981-1.76
	C164.103,109.135,163.723,108.755,163.25,108.579L163.25,108.579z M163.25,108.579h-0.18c-0.773,0-1.4,0.627-1.4,1.4
	s0.627,1.4,1.4,1.4h0.18c0.747-0.199,1.18-1.012,0.981-1.76C164.103,109.135,163.723,108.755,163.25,108.579L163.25,108.579z
	 M163.25,108.579h-0.18c-0.773,0-1.4,0.627-1.4,1.4s0.627,1.4,1.4,1.4h0.18c0.747-0.199,1.18-1.012,0.981-1.76
	C164.103,109.135,163.723,108.755,163.25,108.579L163.25,108.579z M169.189,108.579H169c-0.773,0-1.4,0.627-1.4,1.4
	s0.627,1.4,1.4,1.4h0.189c0.773,0,1.4-0.627,1.4-1.4S169.963,108.579,169.189,108.579L169.189,108.579z M169.189,108.579H169
	c-0.773,0-1.4,0.627-1.4,1.4s0.627,1.4,1.4,1.4h0.189c0.773,0,1.4-0.627,1.4-1.4S169.963,108.579,169.189,108.579L169.189,108.579z
	 M169.189,108.579H169c-0.773,0-1.4,0.627-1.4,1.4s0.627,1.4,1.4,1.4h0.189c0.773,0,1.4-0.627,1.4-1.4
	S169.963,108.579,169.189,108.579L169.189,108.579z M175.12,108.579h-0.181c-0.773,0-1.399,0.627-1.399,1.4s0.626,1.4,1.399,1.4
	h0.181c0.772,0,1.399-0.627,1.399-1.4S175.893,108.579,175.12,108.579L175.12,108.579z M175.12,108.579h-0.181
	c-0.773,0-1.399,0.627-1.399,1.4s0.626,1.4,1.399,1.4h0.181c0.772,0,1.399-0.627,1.399-1.4S175.893,108.579,175.12,108.579
	L175.12,108.579z M175.12,108.579h-0.181c-0.773,0-1.399,0.627-1.399,1.4s0.626,1.4,1.399,1.4h0.181c0.772,0,1.399-0.627,1.399-1.4
	S175.893,108.579,175.12,108.579L175.12,108.579z M181.06,108.579h-0.189c-0.773,0-1.4,0.627-1.4,1.4s0.627,1.4,1.4,1.4h0.189
	c0.782,0,1.416-0.618,1.416-1.4C182.477,109.198,181.842,108.563,181.06,108.579L181.06,108.579z M181.06,108.579h-0.189
	c-0.773,0-1.4,0.627-1.4,1.4s0.627,1.4,1.4,1.4h0.189c0.782,0,1.416-0.618,1.416-1.4
	C182.477,109.198,181.842,108.563,181.06,108.579L181.06,108.579z M181.06,108.579h-0.189c-0.773,0-1.4,0.627-1.4,1.4
	s0.627,1.4,1.4,1.4h0.189c0.782,0,1.416-0.618,1.416-1.4C182.477,109.198,181.842,108.563,181.06,108.579L181.06,108.579z
	 M186.99,108.579h-0.19c-0.772,0-1.399,0.627-1.399,1.4s0.627,1.4,1.399,1.4h0.19c0.773,0,1.399-0.627,1.399-1.4
	C188.391,109.206,187.764,108.579,186.99,108.579L186.99,108.579z M186.99,108.579h-0.19c-0.772,0-1.399,0.627-1.399,1.4
	s0.627,1.4,1.399,1.4h0.19c0.773,0,1.399-0.627,1.399-1.4C188.391,109.206,187.764,108.579,186.99,108.579L186.99,108.579z
	 M186.99,108.579h-0.19c-0.772,0-1.399,0.627-1.399,1.4s0.627,1.4,1.399,1.4h0.19c0.773,0,1.399-0.627,1.399-1.4
	C188.391,109.206,187.764,108.579,186.99,108.579L186.99,108.579z M192.92,108.579h-0.18c-0.773,0-1.4,0.627-1.4,1.4
	s0.627,1.4,1.4,1.4h0.18c0.773,0,1.4-0.627,1.4-1.4S193.693,108.579,192.92,108.579L192.92,108.579z M192.92,108.579h-0.18
	c-0.773,0-1.4,0.627-1.4,1.4s0.627,1.4,1.4,1.4h0.18c0.773,0,1.4-0.627,1.4-1.4S193.693,108.579,192.92,108.579L192.92,108.579z
	 M192.92,108.579h-0.18c-0.773,0-1.4,0.627-1.4,1.4s0.627,1.4,1.4,1.4h0.18c0.773,0,1.4-0.627,1.4-1.4
	S193.693,108.579,192.92,108.579L192.92,108.579z M198.859,108.579h-0.189c-0.773,0-1.4,0.627-1.4,1.4s0.627,1.4,1.4,1.4h0.189
	c0.773,0,1.4-0.627,1.4-1.4S199.633,108.579,198.859,108.579L198.859,108.579z M198.859,108.579h-0.189c-0.773,0-1.4,0.627-1.4,1.4
	s0.627,1.4,1.4,1.4h0.189c0.773,0,1.4-0.627,1.4-1.4S199.633,108.579,198.859,108.579L198.859,108.579z M198.859,108.579h-0.189
	c-0.773,0-1.4,0.627-1.4,1.4s0.627,1.4,1.4,1.4h0.189c0.773,0,1.4-0.627,1.4-1.4S199.633,108.579,198.859,108.579L198.859,108.579z
	 M204.79,108.579h-0.181c-0.772,0-1.399,0.627-1.399,1.4s0.627,1.4,1.399,1.4l0,0h0.181c0.772,0,1.399-0.627,1.399-1.4
	S205.563,108.579,204.79,108.579L204.79,108.579z M204.79,108.579h-0.181c-0.772,0-1.399,0.627-1.399,1.4s0.627,1.4,1.399,1.4l0,0
	h0.181c0.772,0,1.399-0.627,1.399-1.4S205.563,108.579,204.79,108.579L204.79,108.579z M204.79,108.579h-0.181
	c-0.772,0-1.399,0.627-1.399,1.4s0.627,1.4,1.399,1.4l0,0h0.181c0.772,0,1.399-0.627,1.399-1.4S205.563,108.579,204.79,108.579
	L204.79,108.579z M210.73,108.579h-0.19c-0.773,0-1.4,0.627-1.4,1.4s0.627,1.4,1.4,1.4l0,0h0.19c0.772,0,1.399-0.627,1.399-1.4
	S211.503,108.579,210.73,108.579L210.73,108.579z M210.73,108.579h-0.19c-0.773,0-1.4,0.627-1.4,1.4s0.627,1.4,1.4,1.4l0,0h0.19
	c0.772,0,1.399-0.627,1.399-1.4S211.503,108.579,210.73,108.579L210.73,108.579z M210.73,108.579h-0.19c-0.773,0-1.4,0.627-1.4,1.4
	s0.627,1.4,1.4,1.4l0,0h0.19c0.772,0,1.399-0.627,1.399-1.4S211.503,108.579,210.73,108.579L210.73,108.579z M216.66,108.579h-0.19
	c-0.772,0-1.399,0.627-1.399,1.4s0.627,1.4,1.399,1.4h0.19c0.773,0,1.4-0.627,1.4-1.4S217.434,108.579,216.66,108.579
	L216.66,108.579z M216.66,108.579h-0.19c-0.772,0-1.399,0.627-1.399,1.4s0.627,1.4,1.399,1.4h0.19c0.773,0,1.4-0.627,1.4-1.4
	S217.434,108.579,216.66,108.579L216.66,108.579z M216.66,108.579h-0.19c-0.772,0-1.399,0.627-1.399,1.4s0.627,1.4,1.399,1.4h0.19
	c0.773,0,1.4-0.627,1.4-1.4S217.434,108.579,216.66,108.579L216.66,108.579z M222.59,108.579h-0.18c-0.773,0-1.4,0.627-1.4,1.4
	s0.627,1.4,1.4,1.4l0,0h0.18c0.773,0,1.4-0.627,1.4-1.4S223.363,108.579,222.59,108.579L222.59,108.579z M222.59,108.579h-0.18
	c-0.773,0-1.4,0.627-1.4,1.4s0.627,1.4,1.4,1.4l0,0h0.18c0.773,0,1.4-0.627,1.4-1.4S223.363,108.579,222.59,108.579L222.59,108.579z
	 M222.59,108.579h-0.18c-0.773,0-1.4,0.627-1.4,1.4s0.627,1.4,1.4,1.4l0,0h0.18c0.773,0,1.4-0.627,1.4-1.4
	S223.363,108.579,222.59,108.579L222.59,108.579z M228.529,108.579h-0.189c-0.773,0-1.4,0.627-1.4,1.4s0.627,1.4,1.4,1.4l0,0h0.189
	c0.773,0,1.4-0.627,1.4-1.4S229.303,108.579,228.529,108.579L228.529,108.579z M228.529,108.579h-0.189c-0.773,0-1.4,0.627-1.4,1.4
	s0.627,1.4,1.4,1.4l0,0h0.189c0.773,0,1.4-0.627,1.4-1.4S229.303,108.579,228.529,108.579L228.529,108.579z M228.529,108.579h-0.189
	c-0.773,0-1.4,0.627-1.4,1.4s0.627,1.4,1.4,1.4l0,0h0.189c0.773,0,1.4-0.627,1.4-1.4S229.303,108.579,228.529,108.579
	L228.529,108.579z M234.46,108.579h-0.181c-0.772,0-1.399,0.627-1.399,1.4s0.627,1.4,1.399,1.4h0.181c0.773,0,1.4-0.627,1.4-1.4
	S235.233,108.579,234.46,108.579L234.46,108.579z M234.46,108.579h-0.181c-0.772,0-1.399,0.627-1.399,1.4s0.627,1.4,1.399,1.4h0.181
	c0.773,0,1.4-0.627,1.4-1.4S235.233,108.579,234.46,108.579L234.46,108.579z M234.46,108.579h-0.181c-0.772,0-1.399,0.627-1.399,1.4
	s0.627,1.4,1.399,1.4h0.181c0.773,0,1.4-0.627,1.4-1.4S235.233,108.579,234.46,108.579L234.46,108.579z M240.7,104.43l-0.101,0.149
	c-0.369,0.616-0.17,1.414,0.445,1.784c0.041,0.024,0.082,0.046,0.125,0.066c0.613,0.354,1.395,0.196,1.82-0.37l0.09-0.13
	c0.33-0.63,0.131-1.406-0.46-1.8c-0.565-0.455-1.392-0.366-1.847,0.198C240.748,104.36,240.723,104.395,240.7,104.43L240.7,104.43z
	 M240.7,104.43l-0.101,0.149c-0.369,0.616-0.17,1.414,0.445,1.784c0.041,0.024,0.082,0.046,0.125,0.066
	c0.613,0.354,1.395,0.196,1.82-0.37l0.09-0.13c0.33-0.63,0.131-1.406-0.46-1.8c-0.565-0.455-1.392-0.366-1.847,0.198
	C240.748,104.36,240.723,104.395,240.7,104.43L240.7,104.43z M240.7,104.43l-0.101,0.149c-0.369,0.616-0.17,1.414,0.445,1.784
	c0.041,0.024,0.082,0.046,0.125,0.066c0.613,0.354,1.395,0.196,1.82-0.37l0.09-0.13c0.33-0.63,0.131-1.406-0.46-1.8
	c-0.565-0.455-1.392-0.366-1.847,0.198C240.748,104.36,240.723,104.395,240.7,104.43L240.7,104.43z M244.58,100.04l-0.141,0.119
	c-0.535,0.484-0.576,1.311-0.092,1.847c0.023,0.025,0.047,0.05,0.072,0.073c0.477,0.537,1.285,0.62,1.859,0.19l0.131-0.101
	c0.508-0.508,0.542-1.319,0.08-1.869c-0.416-0.594-1.234-0.738-1.828-0.323C244.635,99.997,244.606,100.018,244.58,100.04z
	 M244.58,100.04l-0.141,0.119c-0.535,0.484-0.576,1.311-0.092,1.847c0.023,0.025,0.047,0.05,0.072,0.073
	c0.477,0.537,1.285,0.62,1.859,0.19l0.131-0.101c0.508-0.508,0.542-1.319,0.08-1.869c-0.416-0.594-1.234-0.738-1.828-0.323
	C244.635,99.997,244.606,100.018,244.58,100.04z M244.58,100.04l-0.141,0.119c-0.535,0.484-0.576,1.311-0.092,1.847
	c0.023,0.025,0.047,0.05,0.072,0.073c0.477,0.537,1.285,0.62,1.859,0.19l0.131-0.101c0.508-0.508,0.542-1.319,0.08-1.869
	c-0.416-0.594-1.234-0.738-1.828-0.323C244.635,99.997,244.606,100.018,244.58,100.04z M249.35,96.819l-0.16,0.09
	c-0.625,0.353-0.847,1.146-0.494,1.771c0.017,0.03,0.035,0.06,0.055,0.089c0.348,0.638,1.129,0.899,1.79,0.601l0.14-0.08
	c0.617-0.385,0.823-1.186,0.471-1.82c-0.296-0.669-1.078-0.971-1.746-0.676C249.386,96.802,249.367,96.811,249.35,96.819
	L249.35,96.819z M249.35,96.819l-0.16,0.09c-0.625,0.353-0.847,1.146-0.494,1.771c0.017,0.03,0.035,0.06,0.055,0.089
	c0.348,0.638,1.129,0.899,1.79,0.601l0.14-0.08c0.617-0.385,0.823-1.186,0.471-1.82c-0.296-0.669-1.078-0.971-1.746-0.676
	C249.386,96.802,249.367,96.811,249.35,96.819L249.35,96.819z M249.35,96.819l-0.16,0.09c-0.625,0.353-0.847,1.146-0.494,1.771
	c0.017,0.03,0.035,0.06,0.055,0.089c0.348,0.638,1.129,0.899,1.79,0.601l0.14-0.08c0.617-0.385,0.823-1.186,0.471-1.82
	c-0.296-0.669-1.078-0.971-1.746-0.676C249.386,96.802,249.367,96.811,249.35,96.819L249.35,96.819z M254.57,94.56l-0.17,0.061
	c-0.685,0.262-1.026,1.028-0.764,1.713c0.007,0.019,0.015,0.037,0.023,0.057c0.236,0.688,0.968,1.074,1.67,0.88l0.15-0.06
	c0.678-0.271,1.016-1.035,0.76-1.721c-0.189-0.709-0.917-1.131-1.626-0.942C254.6,94.551,254.584,94.556,254.57,94.56L254.57,94.56z
	 M254.57,94.56l-0.17,0.061c-0.685,0.262-1.026,1.028-0.764,1.713c0.007,0.019,0.015,0.037,0.023,0.057
	c0.236,0.688,0.968,1.074,1.67,0.88l0.15-0.06c0.678-0.271,1.016-1.035,0.76-1.721c-0.189-0.709-0.917-1.131-1.626-0.942
	C254.6,94.551,254.584,94.556,254.57,94.56L254.57,94.56z M254.57,94.56l-0.17,0.061c-0.685,0.262-1.026,1.028-0.764,1.713
	c0.007,0.019,0.015,0.037,0.023,0.057c0.236,0.688,0.968,1.074,1.67,0.88l0.15-0.06c0.678-0.271,1.016-1.035,0.76-1.721
	c-0.189-0.709-0.917-1.131-1.626-0.942C254.6,94.551,254.584,94.556,254.57,94.56L254.57,94.56z M260.02,93.09l-0.18,0.03
	c-0.712,0.175-1.146,0.894-0.972,1.605c0.004,0.015,0.008,0.029,0.012,0.044c0.137,0.718,0.817,1.2,1.54,1.09l0.17-0.03
	c0.703-0.195,1.129-0.907,0.971-1.619c-0.109-0.73-0.79-1.232-1.52-1.124C260.033,93.087,260.027,93.089,260.02,93.09L260.02,93.09z
	 M260.02,93.09l-0.18,0.03c-0.712,0.175-1.146,0.894-0.972,1.605c0.004,0.015,0.008,0.029,0.012,0.044
	c0.137,0.718,0.817,1.2,1.54,1.09l0.17-0.03c0.703-0.195,1.129-0.907,0.971-1.619c-0.109-0.73-0.79-1.232-1.52-1.124
	C260.033,93.087,260.027,93.089,260.02,93.09L260.02,93.09z M260.02,93.09l-0.18,0.03c-0.712,0.175-1.146,0.894-0.972,1.605
	c0.004,0.015,0.008,0.029,0.012,0.044c0.137,0.718,0.817,1.2,1.54,1.09l0.17-0.03c0.703-0.195,1.129-0.907,0.971-1.619
	c-0.109-0.73-0.79-1.232-1.52-1.124C260.033,93.087,260.027,93.089,260.02,93.09L260.02,93.09z M264.09,87.77v0.19
	c-0.005,0.778,0.623,1.414,1.401,1.418c0.778,0.005,1.414-0.622,1.419-1.4c0-0.006,0-0.012,0-0.018v-0.19
	c0.008-0.778-0.615-1.417-1.395-1.426c-0.778-0.009-1.417,0.616-1.426,1.395C264.09,87.749,264.09,87.759,264.09,87.77L264.09,87.77
	z M264.09,87.77v0.19c-0.005,0.778,0.623,1.414,1.401,1.418c0.778,0.005,1.414-0.622,1.419-1.4c0-0.006,0-0.012,0-0.018v-0.19
	c0.008-0.778-0.615-1.417-1.395-1.426c-0.778-0.009-1.417,0.616-1.426,1.395C264.09,87.749,264.09,87.759,264.09,87.77L264.09,87.77
	z M264.09,87.77v0.19c-0.005,0.778,0.623,1.414,1.401,1.418c0.778,0.005,1.414-0.622,1.419-1.4c0-0.006,0-0.012,0-0.018v-0.19
	c0.008-0.778-0.615-1.417-1.395-1.426c-0.778-0.009-1.417,0.616-1.426,1.395C264.09,87.749,264.09,87.759,264.09,87.77L264.09,87.77
	z M264.09,81.7v0.189c-0.005,0.779,0.623,1.414,1.401,1.419s1.414-0.623,1.419-1.401c0-0.006,0-0.012,0-0.018V81.7
	c0.008-0.779-0.615-1.418-1.395-1.426c-0.778-0.01-1.417,0.615-1.426,1.394C264.09,81.679,264.09,81.688,264.09,81.7L264.09,81.7z
	 M264.09,81.7v0.189c-0.005,0.779,0.623,1.414,1.401,1.419s1.414-0.623,1.419-1.401c0-0.006,0-0.012,0-0.018V81.7
	c0.008-0.779-0.615-1.418-1.395-1.426c-0.778-0.01-1.417,0.615-1.426,1.394C264.09,81.679,264.09,81.688,264.09,81.7L264.09,81.7z
	 M264.09,81.7v0.189c-0.005,0.779,0.623,1.414,1.401,1.419s1.414-0.623,1.419-1.401c0-0.006,0-0.012,0-0.018V81.7
	c0.008-0.779-0.615-1.418-1.395-1.426c-0.778-0.01-1.417,0.615-1.426,1.394C264.09,81.679,264.09,81.688,264.09,81.7L264.09,81.7z
	 M264.09,75.63v0.189c-0.005,0.779,0.623,1.414,1.401,1.419s1.414-0.622,1.419-1.401c0-0.006,0-0.012,0-0.018V75.63
	c0.008-0.779-0.615-1.417-1.395-1.426c-0.778-0.009-1.417,0.615-1.426,1.395C264.09,75.608,264.09,75.619,264.09,75.63L264.09,75.63
	z M264.09,75.63v0.189c-0.005,0.779,0.623,1.414,1.401,1.419s1.414-0.622,1.419-1.401c0-0.006,0-0.012,0-0.018V75.63
	c0.008-0.779-0.615-1.417-1.395-1.426c-0.778-0.009-1.417,0.615-1.426,1.395C264.09,75.608,264.09,75.619,264.09,75.63L264.09,75.63
	z M264.09,75.63v0.189c-0.005,0.779,0.623,1.414,1.401,1.419s1.414-0.622,1.419-1.401c0-0.006,0-0.012,0-0.018V75.63
	c0.008-0.779-0.615-1.417-1.395-1.426c-0.778-0.009-1.417,0.615-1.426,1.395C264.09,75.608,264.09,75.619,264.09,75.63L264.09,75.63
	z M264.09,69.56v0.19c-0.005,0.778,0.623,1.413,1.401,1.419c0.778,0.004,1.414-0.623,1.419-1.402c0-0.006,0-0.011,0-0.017v-0.19
	c0.008-0.778-0.615-1.417-1.395-1.426c-0.778-0.009-1.417,0.615-1.426,1.395C264.09,69.538,264.09,69.549,264.09,69.56L264.09,69.56
	z M264.09,69.56v0.19c-0.005,0.778,0.623,1.413,1.401,1.419c0.778,0.004,1.414-0.623,1.419-1.402c0-0.006,0-0.011,0-0.017v-0.19
	c0.008-0.778-0.615-1.417-1.395-1.426c-0.778-0.009-1.417,0.615-1.426,1.395C264.09,69.538,264.09,69.549,264.09,69.56L264.09,69.56
	z M264.09,69.56v0.19c-0.005,0.778,0.623,1.413,1.401,1.419c0.778,0.004,1.414-0.623,1.419-1.402c0-0.006,0-0.011,0-0.017v-0.19
	c0.008-0.778-0.615-1.417-1.395-1.426c-0.778-0.009-1.417,0.615-1.426,1.395C264.09,69.538,264.09,69.549,264.09,69.56L264.09,69.56
	z M264.09,63.489v0.19c-0.005,0.778,0.623,1.414,1.401,1.419s1.414-0.623,1.419-1.401c0-0.006,0-0.012,0-0.018v-0.19
	c0.008-0.778-0.615-1.416-1.395-1.426c-0.778-0.008-1.417,0.615-1.426,1.395C264.09,63.469,264.09,63.479,264.09,63.489
	L264.09,63.489z M264.09,63.489v0.19c-0.005,0.778,0.623,1.414,1.401,1.419s1.414-0.623,1.419-1.401c0-0.006,0-0.012,0-0.018v-0.19
	c0.008-0.778-0.615-1.416-1.395-1.426c-0.778-0.008-1.417,0.615-1.426,1.395C264.09,63.469,264.09,63.479,264.09,63.489
	L264.09,63.489z M264.09,63.489v0.19c-0.005,0.778,0.623,1.414,1.401,1.419s1.414-0.623,1.419-1.401c0-0.006,0-0.012,0-0.018v-0.19
	c0.008-0.778-0.615-1.416-1.395-1.426c-0.778-0.008-1.417,0.615-1.426,1.395C264.09,63.469,264.09,63.479,264.09,63.489
	L264.09,63.489z M264.09,57.421v0.189c-0.005,0.778,0.623,1.413,1.401,1.418s1.414-0.622,1.419-1.4c0-0.006,0-0.012,0-0.018v-0.189
	c0.008-0.777-0.615-1.417-1.395-1.425c-0.778-0.009-1.417,0.616-1.426,1.393C264.09,57.399,264.09,57.41,264.09,57.421
	L264.09,57.421z M264.09,57.421v0.189c-0.005,0.778,0.623,1.413,1.401,1.418s1.414-0.622,1.419-1.4c0-0.006,0-0.012,0-0.018v-0.189
	c0.008-0.777-0.615-1.417-1.395-1.425c-0.778-0.009-1.417,0.616-1.426,1.393C264.09,57.399,264.09,57.41,264.09,57.421
	L264.09,57.421z M264.09,57.421v0.189c-0.005,0.778,0.623,1.413,1.401,1.418s1.414-0.622,1.419-1.4c0-0.006,0-0.012,0-0.018v-0.189
	c0.008-0.777-0.615-1.417-1.395-1.425c-0.778-0.009-1.417,0.616-1.426,1.393C264.09,57.399,264.09,57.41,264.09,57.421
	L264.09,57.421z M264.09,51.351v0.19c-0.005,0.778,0.623,1.414,1.401,1.418s1.414-0.623,1.419-1.401c0-0.006,0-0.012,0-0.018v-0.19
	c0.008-0.779-0.615-1.417-1.395-1.426c-0.778-0.009-1.417,0.615-1.426,1.394C264.09,51.33,264.09,51.34,264.09,51.351L264.09,51.351
	z M264.09,51.351v0.19c-0.005,0.778,0.623,1.414,1.401,1.418s1.414-0.623,1.419-1.401c0-0.006,0-0.012,0-0.018v-0.19
	c0.008-0.779-0.615-1.417-1.395-1.426c-0.778-0.009-1.417,0.615-1.426,1.394C264.09,51.33,264.09,51.34,264.09,51.351L264.09,51.351
	z M264.09,51.351v0.19c-0.005,0.778,0.623,1.414,1.401,1.418s1.414-0.623,1.419-1.401c0-0.006,0-0.012,0-0.018v-0.19
	c0.008-0.779-0.615-1.417-1.395-1.426c-0.778-0.009-1.417,0.615-1.426,1.394C264.09,51.33,264.09,51.34,264.09,51.351L264.09,51.351
	z M264.09,45.281v0.189c-0.005,0.779,0.623,1.414,1.401,1.419s1.414-0.623,1.419-1.401c0-0.006,0-0.012,0-0.018v-0.189
	c0.008-0.779-0.615-1.417-1.395-1.426c-0.778-0.009-1.417,0.615-1.426,1.394C264.09,45.26,264.09,45.27,264.09,45.281L264.09,45.281
	z M264.09,45.281v0.189c-0.005,0.779,0.623,1.414,1.401,1.419s1.414-0.623,1.419-1.401c0-0.006,0-0.012,0-0.018v-0.189
	c0.008-0.779-0.615-1.417-1.395-1.426c-0.778-0.009-1.417,0.615-1.426,1.394C264.09,45.26,264.09,45.27,264.09,45.281L264.09,45.281
	z M264.09,45.281v0.189c-0.005,0.779,0.623,1.414,1.401,1.419s1.414-0.623,1.419-1.401c0-0.006,0-0.012,0-0.018v-0.189
	c0.008-0.779-0.615-1.417-1.395-1.426c-0.778-0.009-1.417,0.615-1.426,1.394C264.09,45.26,264.09,45.27,264.09,45.281L264.09,45.281
	z M264.09,39.211v0.19c-0.005,0.779,0.623,1.414,1.401,1.419c0.778,0.004,1.414-0.623,1.419-1.401c0-0.006,0-0.012,0-0.018v-0.19
	c0.009-0.778-0.615-1.417-1.395-1.426c-0.778-0.009-1.417,0.615-1.426,1.394C264.09,39.189,264.09,39.2,264.09,39.211L264.09,39.211
	z M264.09,39.211v0.19c-0.005,0.779,0.623,1.414,1.401,1.419c0.778,0.004,1.414-0.623,1.419-1.401c0-0.006,0-0.012,0-0.018v-0.19
	c0.009-0.778-0.615-1.417-1.395-1.426c-0.778-0.009-1.417,0.615-1.426,1.394C264.09,39.189,264.09,39.2,264.09,39.211L264.09,39.211
	z M264.09,39.211v0.19c-0.005,0.779,0.623,1.414,1.401,1.419c0.778,0.004,1.414-0.623,1.419-1.401c0-0.006,0-0.012,0-0.018v-0.19
	c0.009-0.778-0.615-1.417-1.395-1.426c-0.778-0.009-1.417,0.615-1.426,1.394C264.09,39.189,264.09,39.2,264.09,39.211L264.09,39.211
	z M264.09,33.141v0.19c-0.005,0.779,0.623,1.414,1.401,1.419c0.778,0.004,1.414-0.623,1.419-1.401c0-0.006,0-0.012,0-0.018v-0.19
	c0.009-0.779-0.615-1.417-1.395-1.426c-0.778-0.009-1.417,0.615-1.426,1.394C264.09,33.12,264.09,33.13,264.09,33.141L264.09,33.141
	z M264.09,33.141v0.19c-0.005,0.779,0.623,1.414,1.401,1.419c0.778,0.004,1.414-0.623,1.419-1.401c0-0.006,0-0.012,0-0.018v-0.19
	c0.009-0.779-0.615-1.417-1.395-1.426c-0.778-0.009-1.417,0.615-1.426,1.394C264.09,33.12,264.09,33.13,264.09,33.141L264.09,33.141
	z M264.09,33.141v0.19c-0.005,0.779,0.623,1.414,1.401,1.419c0.778,0.004,1.414-0.623,1.419-1.401c0-0.006,0-0.012,0-0.018v-0.19
	c0.009-0.779-0.615-1.417-1.395-1.426c-0.778-0.009-1.417,0.615-1.426,1.394C264.09,33.12,264.09,33.13,264.09,33.141L264.09,33.141
	z M264.09,27.071v0.19c-0.005,0.779,0.623,1.414,1.401,1.418s1.414-0.623,1.419-1.401c0-0.006,0-0.011,0-0.017v-0.19
	c0.009-0.779-0.615-1.417-1.395-1.426c-0.778-0.009-1.417,0.615-1.426,1.394C264.09,27.049,264.09,27.06,264.09,27.071
	L264.09,27.071z M264.09,27.071v0.19c-0.005,0.779,0.623,1.414,1.401,1.418s1.414-0.623,1.419-1.401c0-0.006,0-0.011,0-0.017v-0.19
	c0.009-0.779-0.615-1.417-1.395-1.426c-0.778-0.009-1.417,0.615-1.426,1.394C264.09,27.049,264.09,27.06,264.09,27.071
	L264.09,27.071z M264.09,27.071v0.19c-0.005,0.779,0.623,1.414,1.401,1.418s1.414-0.623,1.419-1.401c0-0.006,0-0.011,0-0.017v-0.19
	c0.009-0.779-0.615-1.417-1.395-1.426c-0.778-0.009-1.417,0.615-1.426,1.394C264.09,27.049,264.09,27.06,264.09,27.071
	L264.09,27.071z M264.09,21.001v0.19c-0.005,0.778,0.623,1.414,1.401,1.418s1.414-0.623,1.419-1.401c0-0.006,0-0.011,0-0.017v-0.19
	c0.009-0.778-0.615-1.417-1.395-1.426c-0.778-0.009-1.417,0.615-1.426,1.394C264.09,20.979,264.09,20.99,264.09,21.001
	L264.09,21.001z M264.09,21.001v0.19c-0.005,0.778,0.623,1.414,1.401,1.418s1.414-0.623,1.419-1.401c0-0.006,0-0.011,0-0.017v-0.19
	c0.009-0.778-0.615-1.417-1.395-1.426c-0.778-0.009-1.417,0.615-1.426,1.394C264.09,20.979,264.09,20.99,264.09,21.001
	L264.09,21.001z M264.09,21.001v0.19c-0.005,0.778,0.623,1.414,1.401,1.418s1.414-0.623,1.419-1.401c0-0.006,0-0.011,0-0.017v-0.19
	c0.009-0.778-0.615-1.417-1.395-1.426c-0.778-0.009-1.417,0.615-1.426,1.394C264.09,20.979,264.09,20.99,264.09,21.001
	L264.09,21.001z M239.85-2.438H240l0.109,0.01l0.11,0.02l0.101,0.04l0.1,0.04l0.09,0.06l0.1,0.07l0.08,0.08l0.041,0.05l0.06,0.02
	l0.1,0.05l0.101,0.06l0.09,0.07l0.08,0.08l0.069,0.09l0.061,0.09l0.05,0.1l0.03,0.11l0.03,0.09l0.01,0.09l-0.01,0.1l-0.021,0.1
	l-0.04,0.09l-0.04,0.1l-0.06,0.09l-0.061,0.09l-0.17,0.17l-0.2,0.16l-0.239,0.13l-0.261,0.11l-0.18,0.05l-0.28,0.07l-0.13,0.01
	l-0.13,0.01l-0.131-0.01l-0.129-0.02l-0.121-0.02l-0.06-0.02l0,0v0.01l0,0l-0.01-0.01l-0.011-0.01l-0.01-0.02l-0.069-0.1
	l-0.061-0.11l-0.1-0.24l-0.07-0.26l-0.02-0.14l-0.011-0.15l0.011-0.14l0.02-0.14l0.07-0.26l0.1-0.24l0.061-0.11l0.069-0.1l0.07-0.09
	l0.08-0.08l0.08-0.07l0.1-0.061l0.09-0.04l0.1-0.04l0.101-0.02L239.85-2.438z M239.85-2.438H240l0.109,0.01l0.11,0.02l0.101,0.04
	l0.1,0.04l0.09,0.06l0.1,0.07l0.08,0.08l0.041,0.05l0.06,0.02l0.1,0.05l0.101,0.06l0.09,0.07l0.08,0.08l0.069,0.09l0.061,0.09
	l0.05,0.1l0.03,0.11l0.03,0.09l0.01,0.09l-0.01,0.1l-0.021,0.1l-0.04,0.09l-0.04,0.1l-0.06,0.09l-0.061,0.09l-0.17,0.17l-0.2,0.16
	l-0.239,0.13l-0.261,0.11l-0.18,0.05l-0.28,0.07l-0.13,0.01l-0.13,0.01l-0.131-0.01l-0.129-0.02l-0.121-0.02l-0.06-0.02l0,0v0.01
	l0,0l-0.01-0.01l-0.011-0.01l-0.01-0.02l-0.069-0.1l-0.061-0.11l-0.1-0.24l-0.07-0.26l-0.02-0.14l-0.011-0.15l0.011-0.14l0.02-0.14
	l0.07-0.26l0.1-0.24l0.061-0.11l0.069-0.1l0.07-0.09l0.08-0.08l0.08-0.07l0.1-0.061l0.09-0.04l0.1-0.04l0.101-0.02L239.85-2.438z
	 M239.85-2.438H240l0.109,0.01l0.11,0.02l0.101,0.04l0.1,0.04l0.09,0.06l0.1,0.07l0.08,0.08l0.041,0.05l0.06,0.02l0.1,0.05
	l0.101,0.06l0.09,0.07l0.08,0.08l0.069,0.09l0.061,0.09l0.05,0.1l0.03,0.11l0.03,0.09l0.01,0.09l-0.01,0.1l-0.021,0.1l-0.04,0.09
	l-0.04,0.1l-0.06,0.09l-0.061,0.09l-0.17,0.17l-0.2,0.16l-0.239,0.13l-0.261,0.11l-0.18,0.05l-0.28,0.07l-0.13,0.01l-0.13,0.01
	l-0.131-0.01l-0.129-0.02l-0.121-0.02l-0.06-0.02l0,0v0.01l0,0l-0.01-0.01l-0.011-0.01l-0.01-0.02l-0.069-0.1l-0.061-0.11l-0.1-0.24
	l-0.07-0.26l-0.02-0.14l-0.011-0.15l0.011-0.14l0.02-0.14l0.07-0.26l0.1-0.24l0.061-0.11l0.069-0.1l0.07-0.09l0.08-0.08l0.08-0.07
	l0.1-0.061l0.09-0.04l0.1-0.04l0.101-0.02L239.85-2.438z M25.67-1.169l0.03-0.15l0.02-0.12l0.04-0.12l0.05-0.11l0.06-0.1l0.08-0.09
	l0.08-0.09l0.09-0.09l0.05-0.03l0.04-0.05l0.09-0.09l0.1-0.08l0.09-0.07l0.11-0.06l0.11-0.05l0.12-0.03l0.12-0.02l0.13-0.01
	l0.11,0.01l0.12,0.02l0.11,0.03l0.1,0.05l0.11,0.06l0.09,0.07l0.09,0.08l0.08,0.09l0.07,0.1l0.07,0.11l0.06,0.11l0.05,0.12
	l0.04,0.13l0.02,0.14l0.02,0.14l0.01,0.14v0.19l-0.01,0.14l-0.02,0.14l-0.02,0.13l-0.04,0.13l-0.05,0.13l-0.06,0.11l-0.07,0.11
	l-0.03,0.05l0,0l0.02-0.02h-0.01l-0.01,0.01h-0.01l-0.03,0.02l-0.11,0.05l-0.13,0.04l-0.12,0.03l-0.13,0.02l-0.14,0.01h-0.14
	l-0.14-0.01l-0.14-0.03l-0.14-0.04l-0.13-0.05l-0.24-0.13l-0.21-0.15l-0.17-0.17l-0.14-0.18l-0.05-0.09l-0.04-0.1l-0.04-0.09
	l-0.01-0.1l-0.01-0.1L25.67-1.169z M25.67-1.169l0.03-0.15l0.02-0.12l0.04-0.12l0.05-0.11l0.06-0.1l0.08-0.09l0.08-0.09l0.09-0.09
	l0.05-0.03l0.04-0.05l0.09-0.09l0.1-0.08l0.09-0.07l0.11-0.06l0.11-0.05l0.12-0.03l0.12-0.02l0.13-0.01l0.11,0.01l0.12,0.02
	l0.11,0.03l0.1,0.05l0.11,0.06l0.09,0.07l0.09,0.08l0.08,0.09l0.07,0.1l0.07,0.11l0.06,0.11l0.05,0.12l0.04,0.13l0.02,0.14
	l0.02,0.14l0.01,0.14v0.19l-0.01,0.14l-0.02,0.14l-0.02,0.13l-0.04,0.13l-0.05,0.13l-0.06,0.11l-0.07,0.11l-0.03,0.05l0,0l0.02-0.02
	h-0.01l-0.01,0.01h-0.01l-0.03,0.02l-0.11,0.05l-0.13,0.04l-0.12,0.03l-0.13,0.02l-0.14,0.01h-0.14l-0.14-0.01l-0.14-0.03
	l-0.14-0.04l-0.13-0.05l-0.24-0.13l-0.21-0.15l-0.17-0.17l-0.14-0.18l-0.05-0.09l-0.04-0.1l-0.04-0.09l-0.01-0.1l-0.01-0.1
	L25.67-1.169z M25.67-1.169l0.03-0.15l0.02-0.12l0.04-0.12l0.05-0.11l0.06-0.1l0.08-0.09l0.08-0.09l0.09-0.09l0.05-0.03l0.04-0.05
	l0.09-0.09l0.1-0.08l0.09-0.07l0.11-0.06l0.11-0.05l0.12-0.03l0.12-0.02l0.13-0.01l0.11,0.01l0.12,0.02l0.11,0.03l0.1,0.05
	l0.11,0.06l0.09,0.07l0.09,0.08l0.08,0.09l0.07,0.1l0.07,0.11l0.06,0.11l0.05,0.12l0.04,0.13l0.02,0.14l0.02,0.14l0.01,0.14v0.19
	l-0.01,0.14l-0.02,0.14l-0.02,0.13l-0.04,0.13l-0.05,0.13l-0.06,0.11l-0.07,0.11l-0.03,0.05l0,0l0.02-0.02h-0.01l-0.01,0.01h-0.01
	l-0.03,0.02l-0.11,0.05l-0.13,0.04l-0.12,0.03l-0.13,0.02l-0.14,0.01h-0.14l-0.14-0.01l-0.14-0.03l-0.14-0.04l-0.13-0.05l-0.24-0.13
	l-0.21-0.15l-0.17-0.17l-0.14-0.18l-0.05-0.09l-0.04-0.1l-0.04-0.09l-0.01-0.1l-0.01-0.1L25.67-1.169z M0.09,15.361v-0.17l0.01-0.14
	l0.03-0.13l0.03-0.13l0.05-0.12l0.06-0.11l0.06-0.11l0.17-0.2l0.09-0.1l0.1-0.08l0.1-0.08l0.12-0.07l0.12-0.05l0.12-0.04l0.13-0.03
	l0.14-0.01h0.13l0.12,0.01l0.12,0.02l0.12,0.04l0.11,0.05l0.11,0.07l0.11,0.07l0.09,0.08l0.09,0.1l0.08,0.1l0.07,0.11l0.07,0.12
	l0.05,0.12l0.04,0.13l0.03,0.14l0.021,0.14l0.02,0.19v0.28l-0.03,0.14l-0.03,0.13l-0.04,0.13l-0.061,0.12l-0.07,0.11l-0.03,0.06l0,0
	l-0.01,0.01l-0.01,0.01l-0.02,0.02l-0.1,0.08l-0.11,0.08l-0.11,0.06l-0.13,0.06l-0.13,0.05l-0.13,0.03l-0.14,0.02l-0.15,0.01
	l-0.14-0.01l-0.14-0.02l-0.14-0.03l-0.13-0.05l-0.12-0.06l-0.11-0.06l-0.11-0.08l-0.1-0.08l-0.09-0.09l-0.09-0.1l-0.06-0.11
	l-0.06-0.12l-0.05-0.12l-0.03-0.12l-0.03-0.13L0.09,15.361z M0.09,15.361v-0.17l0.01-0.14l0.03-0.13l0.03-0.13l0.05-0.12l0.06-0.11
	l0.06-0.11l0.17-0.2l0.09-0.1l0.1-0.08l0.1-0.08l0.12-0.07l0.12-0.05l0.12-0.04l0.13-0.03l0.14-0.01h0.13l0.12,0.01l0.12,0.02
	l0.12,0.04l0.11,0.05l0.11,0.07l0.11,0.07l0.09,0.08l0.09,0.1l0.08,0.1l0.07,0.11l0.07,0.12l0.05,0.12l0.04,0.13l0.03,0.14
	l0.021,0.14l0.02,0.19v0.28l-0.03,0.14l-0.03,0.13l-0.04,0.13l-0.061,0.12l-0.07,0.11l-0.03,0.06l0,0l-0.01,0.01l-0.01,0.01
	l-0.02,0.02l-0.1,0.08l-0.11,0.08l-0.11,0.06l-0.13,0.06l-0.13,0.05l-0.13,0.03l-0.14,0.02l-0.15,0.01l-0.14-0.01l-0.14-0.02
	l-0.14-0.03l-0.13-0.05l-0.12-0.06l-0.11-0.06l-0.11-0.08l-0.1-0.08l-0.09-0.09l-0.09-0.1l-0.06-0.11l-0.06-0.12l-0.05-0.12
	l-0.03-0.12l-0.03-0.13L0.09,15.361z M0.09,15.361v-0.17l0.01-0.14l0.03-0.13l0.03-0.13l0.05-0.12l0.06-0.11l0.06-0.11l0.17-0.2
	l0.09-0.1l0.1-0.08l0.1-0.08l0.12-0.07l0.12-0.05l0.12-0.04l0.13-0.03l0.14-0.01h0.13l0.12,0.01l0.12,0.02l0.12,0.04l0.11,0.05
	l0.11,0.07l0.11,0.07l0.09,0.08l0.09,0.1l0.08,0.1l0.07,0.11l0.07,0.12l0.05,0.12l0.04,0.13l0.03,0.14l0.021,0.14l0.02,0.19v0.28
	l-0.03,0.14l-0.03,0.13l-0.04,0.13l-0.061,0.12l-0.07,0.11l-0.03,0.06l0,0l-0.01,0.01l-0.01,0.01l-0.02,0.02l-0.1,0.08l-0.11,0.08
	l-0.11,0.06l-0.13,0.06l-0.13,0.05l-0.13,0.03l-0.14,0.02l-0.15,0.01l-0.14-0.01l-0.14-0.02l-0.14-0.03l-0.13-0.05l-0.12-0.06
	l-0.11-0.06l-0.11-0.08l-0.1-0.08l-0.09-0.09l-0.09-0.1l-0.06-0.11l-0.06-0.12l-0.05-0.12l-0.03-0.12l-0.03-0.13L0.09,15.361z
	 M1.48,95.08l-0.17-0.02L1.17,95.04l-0.12-0.029L0.92,94.97l-0.11-0.06L0.7,94.841l-0.1-0.07l-0.19-0.18L0.32,94.5l-0.08-0.1
	l-0.07-0.11l-0.06-0.109l-0.04-0.12l-0.04-0.13L0.01,93.8L0,93.671l0.01-0.131l0.021-0.13l0.04-0.12l0.04-0.119l0.06-0.11l0.07-0.11
	l0.08-0.1l0.09-0.09l0.1-0.08l0.11-0.07l0.12-0.07l0.12-0.05l0.13-0.04l0.13-0.029L1.26,92.4l0.15-0.01H1.6l0.14,0.01l0.14,0.021
	l0.14,0.029l0.12,0.04l0.13,0.05l0.11,0.07l0.11,0.07l0.05,0.04l0,0v0.01h0.01l0.01,0.021l0.01,0.02l0.08,0.109l0.06,0.11l0.06,0.12
	l0.04,0.13l0.03,0.13l0.02,0.141v0.29l-0.03,0.14L2.8,94.07L2.75,94.2l-0.06,0.131L2.63,94.44l-0.08,0.11l-0.08,0.1l-0.09,0.101
	l-0.09,0.08L2.18,94.9l-0.1,0.06l-0.12,0.051l-0.11,0.04l-0.12,0.02L1.6,95.081L1.48,95.08L1.48,95.08z M1.48,95.08l-0.17-0.02
	L1.17,95.04l-0.12-0.029L0.92,94.97l-0.11-0.06L0.7,94.841l-0.1-0.07l-0.19-0.18L0.32,94.5l-0.08-0.1l-0.07-0.11l-0.06-0.109
	l-0.04-0.12l-0.04-0.13L0.01,93.8L0,93.671l0.01-0.131l0.021-0.13l0.04-0.12l0.04-0.119l0.06-0.11l0.07-0.11l0.08-0.1l0.09-0.09
	l0.1-0.08l0.11-0.07l0.12-0.07l0.12-0.05l0.13-0.04l0.13-0.029L1.26,92.4l0.15-0.01H1.6l0.14,0.01l0.14,0.021l0.14,0.029l0.12,0.04
	l0.13,0.05l0.11,0.07l0.11,0.07l0.05,0.04l0,0v0.01h0.01l0.01,0.021l0.01,0.02l0.08,0.109l0.06,0.11l0.06,0.12l0.04,0.13l0.03,0.13
	l0.02,0.141v0.29l-0.03,0.14L2.8,94.07L2.75,94.2l-0.06,0.131L2.63,94.44l-0.08,0.11l-0.08,0.1l-0.09,0.101l-0.09,0.08L2.18,94.9
	l-0.1,0.06l-0.12,0.051l-0.11,0.04l-0.12,0.02L1.6,95.081L1.48,95.08L1.48,95.08z M1.48,95.08l-0.17-0.02L1.17,95.04l-0.12-0.029
	L0.92,94.97l-0.11-0.06L0.7,94.841l-0.1-0.07l-0.19-0.18L0.32,94.5l-0.08-0.1l-0.07-0.11l-0.06-0.109l-0.04-0.12l-0.04-0.13
	L0.01,93.8L0,93.671l0.01-0.131l0.021-0.13l0.04-0.12l0.04-0.119l0.06-0.11l0.07-0.11l0.08-0.1l0.09-0.09l0.1-0.08l0.11-0.07
	l0.12-0.07l0.12-0.05l0.13-0.04l0.13-0.029L1.26,92.4l0.15-0.01H1.6l0.14,0.01l0.14,0.021l0.14,0.029l0.12,0.04l0.13,0.05l0.11,0.07
	l0.11,0.07l0.05,0.04l0,0v0.01h0.01l0.01,0.021l0.01,0.02l0.08,0.109l0.06,0.11l0.06,0.12l0.04,0.13l0.03,0.13l0.02,0.141v0.29
	l-0.03,0.14L2.8,94.07L2.75,94.2l-0.06,0.131L2.63,94.44l-0.08,0.11l-0.08,0.1l-0.09,0.101l-0.09,0.08L2.18,94.9l-0.1,0.06
	l-0.12,0.051l-0.11,0.04l-0.12,0.02L1.6,95.081L1.48,95.08L1.48,95.08z M27.15,111.38H27l-0.12-0.01l-0.11-0.02l-0.11-0.03
	l-0.11-0.05l-0.1-0.061l-0.09-0.07l-0.09-0.079l-0.04-0.04l-0.06-0.03l-0.1-0.06l-0.1-0.07l-0.09-0.08l-0.07-0.08l-0.07-0.09
	l-0.06-0.1l-0.04-0.11l-0.03-0.11l-0.021-0.1v-0.09l0.01-0.09l0.03-0.1l0.04-0.091l0.05-0.09l0.06-0.1l0.07-0.08l0.17-0.17l0.2-0.15
	l0.24-0.13l0.271-0.1l0.17-0.051l0.15-0.039l0.14-0.021l0.13-0.011h0.14l0.13,0.011l0.13,0.021l0.12,0.029l0.06,0.02l0,0l-0.02-0.01
	h0.01l0.01,0.01l0.02,0.031l0.07,0.1l0.06,0.109l0.06,0.11l0.05,0.13l0.07,0.26l0.02,0.141l0.01,0.14l-0.01,0.15l-0.02,0.14
	l-0.07,0.26l-0.05,0.12l-0.06,0.12l-0.06,0.1l-0.07,0.101l-0.08,0.09l-0.08,0.08l-0.09,0.069l-0.1,0.061l-0.1,0.05l-0.1,0.03
	l-0.11,0.02L27.15,111.38z M27.15,111.38H27l-0.12-0.01l-0.11-0.02l-0.11-0.03l-0.11-0.05l-0.1-0.061l-0.09-0.07l-0.09-0.079
	l-0.04-0.04l-0.06-0.03l-0.1-0.06l-0.1-0.07l-0.09-0.08l-0.07-0.08l-0.07-0.09l-0.06-0.1l-0.04-0.11l-0.03-0.11l-0.021-0.1v-0.09
	l0.01-0.09l0.03-0.1l0.04-0.091l0.05-0.09l0.06-0.1l0.07-0.08l0.17-0.17l0.2-0.15l0.24-0.13l0.271-0.1l0.17-0.051l0.15-0.039
	l0.14-0.021l0.13-0.011h0.14l0.13,0.011l0.13,0.021l0.12,0.029l0.06,0.02l0,0l-0.02-0.01h0.01l0.01,0.01l0.02,0.031l0.07,0.1
	l0.06,0.109l0.06,0.11l0.05,0.13l0.07,0.26l0.02,0.141l0.01,0.14l-0.01,0.15l-0.02,0.14l-0.07,0.26l-0.05,0.12l-0.06,0.12l-0.06,0.1
	l-0.07,0.101l-0.08,0.09l-0.08,0.08l-0.09,0.069l-0.1,0.061l-0.1,0.05l-0.1,0.03l-0.11,0.02L27.15,111.38z M27.15,111.38H27
	l-0.12-0.01l-0.11-0.02l-0.11-0.03l-0.11-0.05l-0.1-0.061l-0.09-0.07l-0.09-0.079l-0.04-0.04l-0.06-0.03l-0.1-0.06l-0.1-0.07
	l-0.09-0.08l-0.07-0.08l-0.07-0.09l-0.06-0.1l-0.04-0.11l-0.03-0.11l-0.021-0.1v-0.09l0.01-0.09l0.03-0.1l0.04-0.091l0.05-0.09
	l0.06-0.1l0.07-0.08l0.17-0.17l0.2-0.15l0.24-0.13l0.271-0.1l0.17-0.051l0.15-0.039l0.14-0.021l0.13-0.011h0.14l0.13,0.011
	l0.13,0.021l0.12,0.029l0.06,0.02l0,0l-0.02-0.01h0.01l0.01,0.01l0.02,0.031l0.07,0.1l0.06,0.109l0.06,0.11l0.05,0.13l0.07,0.26
	l0.02,0.141l0.01,0.14l-0.01,0.15l-0.02,0.14l-0.07,0.26l-0.05,0.12l-0.06,0.12l-0.06,0.1l-0.07,0.101l-0.08,0.09l-0.08,0.08
	l-0.09,0.069l-0.1,0.061l-0.1,0.05l-0.1,0.03l-0.11,0.02L27.15,111.38z M241.311,110.2l-0.03,0.141l-0.03,0.109l-0.04,0.11
	l-0.06,0.1l-0.07,0.09l-0.07,0.091l-0.09,0.079l-0.1,0.07l-0.051,0.03l-0.039,0.05l-0.08,0.09l-0.09,0.08l-0.09,0.069l-0.101,0.061
	l-0.11,0.05l-0.109,0.03l-0.11,0.02l-0.12,0.011l-0.109-0.011l-0.11-0.02l-0.11-0.03l-0.1-0.05l-0.1-0.061l-0.09-0.069l-0.08-0.08
	l-0.08-0.09l-0.07-0.101l-0.061-0.109l-0.06-0.12l-0.04-0.12l-0.04-0.13l-0.03-0.13l-0.01-0.141l-0.01-0.14v-0.19l0.01-0.14
	l0.01-0.14l0.03-0.141l0.04-0.129l0.04-0.121l0.06-0.119L239.07,109l0.04-0.05l0,0l-0.021,0.01h0.011l0.01-0.01h0.011l0.029-0.01
	l0.11-0.051l0.12-0.029l0.13-0.021l0.13-0.01l0.14-0.01l0.14,0.01l0.141,0.021l0.141,0.029l0.14,0.051l0.13,0.06l0.23,0.14
	l0.199,0.15l0.17,0.17l0.07,0.09l0.061,0.09l0.049,0.09l0.041,0.101l0.029,0.09l0.01,0.101v0.09L241.311,110.2z M241.311,110.2
	l-0.03,0.141l-0.03,0.109l-0.04,0.11l-0.06,0.1l-0.07,0.09l-0.07,0.091l-0.09,0.079l-0.1,0.07l-0.051,0.03l-0.039,0.05l-0.08,0.09
	l-0.09,0.08l-0.09,0.069l-0.101,0.061l-0.11,0.05l-0.109,0.03l-0.11,0.02l-0.12,0.011l-0.109-0.011l-0.11-0.02l-0.11-0.03l-0.1-0.05
	l-0.1-0.061l-0.09-0.069l-0.08-0.08l-0.08-0.09l-0.07-0.101l-0.061-0.109l-0.06-0.12l-0.04-0.12l-0.04-0.13l-0.03-0.13l-0.01-0.141
	l-0.01-0.14v-0.19l0.01-0.14l0.01-0.14l0.03-0.141l0.04-0.129l0.04-0.121l0.06-0.119L239.07,109l0.04-0.05l0,0l-0.021,0.01h0.011
	l0.01-0.01h0.011l0.029-0.01l0.11-0.051l0.12-0.029l0.13-0.021l0.13-0.01l0.14-0.01l0.14,0.01l0.141,0.021l0.141,0.029l0.14,0.051
	l0.13,0.06l0.23,0.14l0.199,0.15l0.17,0.17l0.07,0.09l0.061,0.09l0.049,0.09l0.041,0.101l0.029,0.09l0.01,0.101v0.09L241.311,110.2z
	 M241.311,110.2l-0.03,0.141l-0.03,0.109l-0.04,0.11l-0.06,0.1l-0.07,0.09l-0.07,0.091l-0.09,0.079l-0.1,0.07l-0.051,0.03
	l-0.039,0.05l-0.08,0.09l-0.09,0.08l-0.09,0.069l-0.101,0.061l-0.11,0.05l-0.109,0.03l-0.11,0.02l-0.12,0.011l-0.109-0.011
	l-0.11-0.02l-0.11-0.03l-0.1-0.05l-0.1-0.061l-0.09-0.069l-0.08-0.08l-0.08-0.09l-0.07-0.101l-0.061-0.109l-0.06-0.12l-0.04-0.12
	l-0.04-0.13l-0.03-0.13l-0.01-0.141l-0.01-0.14v-0.19l0.01-0.14l0.01-0.14l0.03-0.141l0.04-0.129l0.04-0.121l0.06-0.119L239.07,109
	l0.04-0.05l0,0l-0.021,0.01h0.011l0.01-0.01h0.011l0.029-0.01l0.11-0.051l0.12-0.029l0.13-0.021l0.13-0.01l0.14-0.01l0.14,0.01
	l0.141,0.021l0.141,0.029l0.14,0.051l0.13,0.06l0.23,0.14l0.199,0.15l0.17,0.17l0.07,0.09l0.061,0.09l0.049,0.09l0.041,0.101
	l0.029,0.09l0.01,0.101v0.09L241.311,110.2z M266.91,93.591v0.17l-0.01,0.13l-0.03,0.12l-0.03,0.119l-0.05,0.121l-0.06,0.109
	l-0.061,0.109l-0.09,0.091l-0.04,0.05l-0.04,0.05l-0.08,0.101l-0.09,0.09l-0.1,0.08L266.13,95l-0.11,0.061l-0.119,0.04l-0.131,0.04
	l-0.119,0.02l-0.131,0.011L265.4,95.16l-0.121-0.02l-0.109-0.04l-0.12-0.04l-0.1-0.07l-0.11-0.06l-0.09-0.08l-0.09-0.09l-0.08-0.101
	l-0.08-0.11l-0.061-0.119l-0.06-0.12l-0.05-0.13l-0.03-0.141l-0.03-0.14l-0.02-0.19l-0.01-0.14v-0.14l0.01-0.131l0.029-0.14
	l0.041-0.12l0.05-0.13l0.06-0.11l0.03-0.06l0,0l0.011-0.01l0.01-0.011l0.02-0.02l0.1-0.08l0.11-0.07l0.11-0.069l0.13-0.05l0.13-0.04
	l0.13-0.04l0.14-0.021l0.15-0.01l0.141,0.01l0.14,0.021l0.14,0.04l0.131,0.04l0.119,0.05l0.11,0.069l0.11,0.07l0.1,0.08l0.09,0.09
	l0.09,0.1l0.061,0.101l0.06,0.11l0.05,0.109l0.03,0.131l0.03,0.119L266.91,93.591z M266.91,93.591v0.17l-0.01,0.13l-0.03,0.12
	l-0.03,0.119l-0.05,0.121l-0.06,0.109l-0.061,0.109l-0.09,0.091l-0.04,0.05l-0.04,0.05l-0.08,0.101l-0.09,0.09l-0.1,0.08L266.13,95
	l-0.11,0.061l-0.119,0.04l-0.131,0.04l-0.119,0.02l-0.131,0.011L265.4,95.16l-0.121-0.02l-0.109-0.04l-0.12-0.04l-0.1-0.07
	l-0.11-0.06l-0.09-0.08l-0.09-0.09l-0.08-0.101l-0.08-0.11l-0.061-0.119l-0.06-0.12l-0.05-0.13l-0.03-0.141l-0.03-0.14l-0.02-0.19
	l-0.01-0.14v-0.14l0.01-0.131l0.029-0.14l0.041-0.12l0.05-0.13l0.06-0.11l0.03-0.06l0,0l0.011-0.01l0.01-0.011l0.02-0.02l0.1-0.08
	l0.11-0.07l0.11-0.069l0.13-0.05l0.13-0.04l0.13-0.04l0.14-0.021l0.15-0.01l0.141,0.01l0.14,0.021l0.14,0.04l0.131,0.04l0.119,0.05
	l0.11,0.069l0.11,0.07l0.1,0.08l0.09,0.09l0.09,0.1l0.061,0.101l0.06,0.11l0.05,0.109l0.03,0.131l0.03,0.119L266.91,93.591z
	 M266.91,93.591v0.17l-0.01,0.13l-0.03,0.12l-0.03,0.119l-0.05,0.121l-0.06,0.109l-0.061,0.109l-0.09,0.091l-0.04,0.05l-0.04,0.05
	l-0.08,0.101l-0.09,0.09l-0.1,0.08L266.13,95l-0.11,0.061l-0.119,0.04l-0.131,0.04l-0.119,0.02l-0.131,0.011L265.4,95.16
	l-0.121-0.02l-0.109-0.04l-0.12-0.04l-0.1-0.07l-0.11-0.06l-0.09-0.08l-0.09-0.09l-0.08-0.101l-0.08-0.11l-0.061-0.119l-0.06-0.12
	l-0.05-0.13l-0.03-0.141l-0.03-0.14l-0.02-0.19l-0.01-0.14v-0.14l0.01-0.131l0.029-0.14l0.041-0.12l0.05-0.13l0.06-0.11l0.03-0.06
	l0,0l0.011-0.01l0.01-0.011l0.02-0.02l0.1-0.08l0.11-0.07l0.11-0.069l0.13-0.05l0.13-0.04l0.13-0.04l0.14-0.021l0.15-0.01
	l0.141,0.01l0.14,0.021l0.14,0.04l0.131,0.04l0.119,0.05l0.11,0.069l0.11,0.07l0.1,0.08l0.09,0.09l0.09,0.1l0.061,0.101l0.06,0.11
	l0.05,0.109l0.03,0.131l0.03,0.119L266.91,93.591z M265.52,13.871l0.181,0.021l0.13,0.02l0.12,0.03l0.12,0.04l0.119,0.06l0.11,0.07
	l0.101,0.07l0.189,0.18l0.09,0.09l0.08,0.11l0.07,0.1l0.06,0.11l0.04,0.12l0.04,0.13l0.021,0.13l0.01,0.13l-0.01,0.13l-0.021,0.12
	l-0.04,0.13l-0.04,0.11l-0.06,0.11l-0.07,0.11l-0.08,0.09l-0.09,0.09l-0.1,0.09l-0.11,0.07l-0.12,0.06l-0.119,0.06l-0.131,0.04
	l-0.14,0.03l-0.13,0.02l-0.15,0.01H265.4l-0.141-0.01l-0.14-0.02l-0.14-0.03l-0.121-0.04l-0.129-0.06l-0.11-0.06l-0.11-0.07
	l-0.05-0.04h-0.01v-0.01l0.01,0.01v-0.01l0,0l-0.01-0.01l-0.011-0.01l-0.02-0.021l-0.07-0.11l-0.06-0.12l-0.06-0.12l-0.041-0.12
	l-0.029-0.14l-0.021-0.14l-0.01-0.14l0.01-0.14l0.021-0.14l0.039-0.14l0.051-0.13l0.05-0.12l0.07-0.12l0.069-0.11l0.08-0.1
	l0.09-0.09l0.101-0.08l0.11-0.07l0.1-0.06l0.119-0.05l0.11-0.03l0.13-0.021l0.12-0.01H265.52L265.52,13.871z M265.52,13.871
	l0.181,0.021l0.13,0.02l0.12,0.03l0.12,0.04l0.119,0.06l0.11,0.07l0.101,0.07l0.189,0.18l0.09,0.09l0.08,0.11l0.07,0.1l0.06,0.11
	l0.04,0.12l0.04,0.13l0.021,0.13l0.01,0.13l-0.01,0.13l-0.021,0.12l-0.04,0.13l-0.04,0.11l-0.06,0.11l-0.07,0.11l-0.08,0.09
	l-0.09,0.09l-0.1,0.09l-0.11,0.07l-0.12,0.06l-0.119,0.06l-0.131,0.04l-0.14,0.03l-0.13,0.02l-0.15,0.01H265.4l-0.141-0.01
	l-0.14-0.02l-0.14-0.03l-0.121-0.04l-0.129-0.06l-0.11-0.06l-0.11-0.07l-0.05-0.04h-0.01v-0.01l0.01,0.01v-0.01l0,0l-0.01-0.01
	l-0.011-0.01l-0.02-0.021l-0.07-0.11l-0.06-0.12l-0.06-0.12l-0.041-0.12l-0.029-0.14l-0.021-0.14l-0.01-0.14l0.01-0.14l0.021-0.14
	l0.039-0.14l0.051-0.13l0.05-0.12l0.07-0.12l0.069-0.11l0.08-0.1l0.09-0.09l0.101-0.08l0.11-0.07l0.1-0.06l0.119-0.05l0.11-0.03
	l0.13-0.021l0.12-0.01H265.52L265.52,13.871z M265.52,13.871l0.181,0.021l0.13,0.02l0.12,0.03l0.12,0.04l0.119,0.06l0.11,0.07
	l0.101,0.07l0.189,0.18l0.09,0.09l0.08,0.11l0.07,0.1l0.06,0.11l0.04,0.12l0.04,0.13l0.021,0.13l0.01,0.13l-0.01,0.13l-0.021,0.12
	l-0.04,0.13l-0.04,0.11l-0.06,0.11l-0.07,0.11l-0.08,0.09l-0.09,0.09l-0.1,0.09l-0.11,0.07l-0.12,0.06l-0.119,0.06l-0.131,0.04
	l-0.14,0.03l-0.13,0.02l-0.15,0.01H265.4l-0.141-0.01l-0.14-0.02l-0.14-0.03l-0.121-0.04l-0.129-0.06l-0.11-0.06l-0.11-0.07
	l-0.05-0.04h-0.01v-0.01l0.01,0.01v-0.01l0,0l-0.01-0.01l-0.011-0.01l-0.02-0.021l-0.07-0.11l-0.06-0.12l-0.06-0.12l-0.041-0.12
	l-0.029-0.14l-0.021-0.14l-0.01-0.14l0.01-0.14l0.021-0.14l0.039-0.14l0.051-0.13l0.05-0.12l0.07-0.12l0.069-0.11l0.08-0.1
	l0.09-0.09l0.101-0.08l0.11-0.07l0.1-0.06l0.119-0.05l0.11-0.03l0.13-0.021l0.12-0.01H265.52L265.52,13.871z"/>
<path fill="none" stroke="#000000" stroke-width="2" stroke-miterlimit="10" d="M272.529,97.639V10.687
	C257.4,9.495,247.635,3.073,245.112-6.871H22.718C21.448,1.921,10.43,9.844-4.695,10.687v86.952
	c14.597,1.108,25.541,8.547,27.413,17.548h222.394C247.055,105.679,258.164,99.062,272.529,97.639z"/>
</svg>
