<?xml version="1.0" encoding="utf-8"?>
<!-- Generator: Adobe Illustrator 15.1.0, SVG Export Plug-In . SVG Version: 6.00 Build 0)  -->
<!DOCTYPE svg PUBLIC "-//W3C//DTD SVG 1.1//EN" "http://www.w3.org/Graphics/SVG/1.1/DTD/svg11.dtd">
<svg version="1.1" id="Layer_1" xmlns="http://www.w3.org/2000/svg" xmlns:xlink="http://www.w3.org/1999/xlink" x="0px" y="0px"
	 width="199.829px" height="115.186px" viewBox="0 0 199.829 115.186" enable-background="new 0 0 199.829 115.186"
	 xml:space="preserve">
<path id="Top_Left_Corner_Shape" fill="#323333" d="M14.799,20.768c-2.291,0.055-4.559-0.463-6.6-1.506
	c-0.657-1.429-1.892-2.509-3.395-2.97C1.42,11.738,2.368,5.302,6.923,1.918c0.228-0.169,0.463-0.329,0.704-0.479l4.681-1.188
	l5.134,1.188c1.633,1.228,2.605,3.143,2.633,5.186c-0.033,2.73-2.17,5.185-4.761,5.472c-2.546,0.279-4.856-1.506-5.229-4.039
	c-0.154-1.049,0.107-2.116,0.729-2.976c0.536-0.75,1.343-1.261,2.25-1.423c0.796-0.146,1.619,0.023,2.293,0.473
	c1.247,0.835,1.61,2.506,0.823,3.782c-0.341,0.554-0.883,0.953-1.513,1.114c-0.237,0.062-0.483,0.084-0.728,0.067
	c0.329,0.164,0.698,0.229,1.064,0.189c1.177-0.13,2.222-1.388,2.241-2.69c-0.067-1.454-0.938-2.751-2.26-3.361
	c-1.463-0.631-3.119-0.643-4.591-0.034c-3.857,1.492-5.775,5.829-4.283,9.687C6.63,14.233,7.53,15.401,8.7,16.249
	c2.817,2.037,6.728,1.871,9.508,1.371c5.886-1.053,11.375-3.976,16.685-6.918c-1.987,1.763-3.75,3.764-5.248,5.957
	c-3.459,1.739-7.138,3-10.936,3.749C17.419,20.643,16.11,20.763,14.799,20.768z M156.27,3.334c-0.605-0.73-1.324-2.114-2.137-2.64
	h45.625c0.025,0.076,0.045,0.153,0.061,0.232c0.119,0.676-0.265,2.085-0.907,2.321c-22.978,8.398-47.437,21.043-70.726,36.568
	c-0.658,0.424-1.534,0.234-1.958-0.423c-0.415-0.644-0.243-1.501,0.388-1.935c21.063-14.039,43.082-25.746,64.131-34.125H156.27z
	 M111.997,48.505c2.078-11.543,0.443-23.447-4.671-34.002c0.742-0.611,1.507-1.196,2.293-1.753
	c5.683,11.498,7.574,24.943,4.922,37.464c-0.138,0.655-0.716,1.124-1.386,1.123h-11.422c0.359-0.934,0.687-1.878,0.982-2.832
	H111.997L111.997,48.505z M68.083,51.337c1.422-0.764,2.734-1.716,3.9-2.832h6.671c-0.558,0.932-1.171,1.875-1.839,2.832H68.083z
	 M86.263,51.337c0.596-0.924,1.148-1.871,1.669-2.832h6.945c-0.359,0.959-0.757,1.903-1.191,2.832H86.263z M103.595,7.966
	c-1.19-1.786-2.491-3.497-3.896-5.121c-0.335-0.389-0.43-1.671-0.26-2.15h15.494c-0.118,0.048-0.236,0.095-0.359,0.143
	c-1.281,0.526-2.539,1.858-3.769,2.497h-7.049c0.742,0.962,1.446,1.951,2.123,2.961C105.104,6.829,104.337,7.385,103.595,7.966
	L103.595,7.966z M145.026,0.694c-0.723,0.51-1.356,1.892-1.861,2.64h-7.4c-0.851-0.724-1.768-2.103-2.746-2.64H145.026z
	 M45.413,41.492c-2.633-5.714-1.938-12.974,1.773-18.496c3.418-5.081,9.338-8.723,15.844-9.742
	c7.877-1.235,15.924,1.56,20.505,7.121c2.212,2.755,3.684,6.03,4.274,9.514c-0.601,1.466-1.172,2.929-1.735,4.377
	c-0.26,0.665-0.515,1.323-0.775,1.981c0.431-5.358-0.959-10.443-3.948-14.072c-3.958-4.803-10.974-7.206-17.881-6.124
	c-5.74,0.898-10.95,4.087-13.933,8.525c-3.172,4.72-3.782,10.895-1.551,15.73c2.317,5.03,7.792,8.356,13.025,7.912
	c3.85-0.361,7.309-2.503,9.347-5.788c1.735-2.853,2.123-6.395,1.012-9.243c-1.163-2.976-4.052-5.161-7.026-5.314
	c-3.036-0.156-6.09,1.98-6.794,4.765c-0.341,1.328-0.147,2.737,0.539,3.925c0.507,0.888,1.342,1.542,2.326,1.822
	c0.716,0.207,1.485,0.126,2.142-0.226c0.028-0.015,0.052-0.03,0.08-0.048c-0.052,0.007-0.108,0.013-0.161,0.017
	c-0.599,0.038-1.189-0.158-1.645-0.548c-0.503-0.424-0.82-1.028-0.884-1.684c-0.072-0.728,0.142-1.454,0.596-2.026
	c0.279-0.349,0.635-0.628,1.04-0.815c0.749-0.344,1.603-0.38,2.378-0.102c0.885,0.312,1.612,0.959,2.028,1.801
	c0.479,0.968,0.561,2.085,0.227,3.112c-0.379,1.198-1.215,2.2-2.326,2.789c-1.305,0.699-2.832,0.861-4.255,0.449
	c-1.692-0.48-3.128-1.605-4-3.134c-1.056-1.823-1.355-3.988-0.832-6.03c1.04-4.095,5.295-7.124,9.688-6.897
	c4.113,0.213,7.938,3.07,9.518,7.113c1.428,3.653,0.955,8.154-1.229,11.746c-2.514,4.051-6.779,6.692-11.527,7.139
	C54.874,51.585,48.212,47.569,45.413,41.492z M141.188,13.975c0.364,0.234,0.743,0.447,1.135,0.636
	c2.656,1.287,5.688,1.303,7.914,0.04c2.336-1.323,3.617-4.179,2.912-6.499c-0.324-1.086-1.061-2.002-2.052-2.553
	c-0.728-0.407-1.586-0.516-2.392-0.301c-0.467,0.122-0.882,0.389-1.188,0.761c0.224-0.118,0.467-0.194,0.719-0.224
	c0.564-0.068,1.133,0.086,1.584,0.431c0.494,0.373,0.824,0.925,0.917,1.537c0.104,0.674-0.057,1.361-0.449,1.919
	c-0.438,0.621-1.101,1.049-1.849,1.189c-0.844,0.164-1.717-0.009-2.435-0.481c-0.824-0.535-1.406-1.372-1.622-2.33
	c-0.252-1.107-0.064-2.27,0.525-3.24c0.686-1.138,1.788-1.963,3.072-2.3c1.516-0.403,3.129-0.2,4.497,0.567
	c1.634,0.908,2.849,2.418,3.386,4.208c1.082,3.593-0.733,7.801-4.232,9.782c-1.575,0.869-3.35,1.316-5.148,1.298
	c-1.869-0.008-3.713-0.436-5.395-1.253c-0.037-0.018-0.076-0.038-0.113-0.056c0.052-0.263,0.094-0.527,0.127-0.794
	C141.194,15.537,141.223,14.756,141.188,13.975z M37.541,93.169c1.693-0.417,3.438-0.773,5.121-1.118
	c2.899-0.532,5.764-1.233,8.581-2.101c-6.246-0.331-12.723-2.461-17.593-5.991c-0.367-0.266-0.583-0.692-0.582-1.146V69.27
	c-0.005-0.78,0.624-1.418,1.404-1.424c0.765-0.006,1.396,0.599,1.423,1.363c0.501,1.128,5.82,3.306,11.456,4.681
	c15.328,3.745,30.614-0.257,40.893-10.702c8.25-8.383,12.524-20.79,11.153-32.379c-0.333-2.885-1.052-5.713-2.137-8.407
	c-0.354,0.552-0.695,1.111-1.021,1.68c-2.161,3.751-3.797,7.966-5.381,12.041c-2.671,6.868-5.437,13.969-10.808,19.309
	c-5.395,5.363-13.059,8.175-20.917,8.175c-5.237,0.009-10.398-1.249-15.044-3.665c-7.078-3.709-12.652-9.922-15.29-17.043
	c-0.683-1.849-1.17-3.764-1.457-5.713h1.631c0.409-0.001,0.814-0.069,1.201-0.202c0.261,1.683,0.69,3.335,1.281,4.932
	c2.397,6.474,7.479,12.129,13.947,15.519c10.86,5.69,24.59,4.004,32.651-4.01C83,48.507,85.534,41.993,88.215,35.096
	c1.626-4.174,3.305-8.49,5.569-12.427c0.643-1.116,1.332-2.2,2.066-3.253C93.439,14.954,89.9,11.2,85.586,8.531
	C75.445,2.205,61.072,2.085,48.07,8.218c-7.139,3.368-12.444,7.937-15.333,13.211c-1.426,2.631-2.337,5.51-2.686,8.482
	c-0.35-0.105-0.713-0.159-1.078-0.159H27.22c0.376-3.394,1.407-6.683,3.035-9.685c3.225-5.885,8.813-10.732,16.609-14.411
	c4.321-2.049,8.913-3.469,13.636-4.22l7.215-0.674l6.69,0.674c4.493,0.718,8.802,2.312,12.68,4.691
	c4.361,2.699,8.007,6.409,10.629,10.817c4.708-5.828,10.808-10.381,17.734-13.238c4.322-1.773,8.232-3.155,11.622-2.641
	c3.759,0.571,7.097,3.298,9.399,6.324c1.881,2.464,2.725,5.565,2.35,8.644c-0.301,2.536-1.582,4.854-3.57,6.459
	c-2.967,2.408-7.209,2.428-10.197,0.048c-1.385-1.097-2.284-2.692-2.506-4.444c-0.195-1.474,0.195-2.966,1.087-4.155
	c0.753-1.014,1.873-1.693,3.12-1.891c1.863-0.301,3.697,0.688,4.469,2.411c0.387,0.857,0.422,1.832,0.1,2.716
	c-0.281,0.777-0.855,1.414-1.599,1.773c-0.659,0.323-1.417,0.375-2.114,0.145c-0.629-0.205-1.153-0.647-1.461-1.234
	c-0.07-0.132-0.127-0.271-0.17-0.413c-0.17-0.576-0.113-1.195,0.161-1.729c0.159-0.306,0.39-0.568,0.671-0.767
	c-0.361,0.136-0.678,0.373-0.907,0.685c-0.452,0.6-0.649,1.354-0.548,2.099c0.129,1.021,0.654,1.951,1.461,2.592
	c1.949,1.552,4.717,1.539,6.652-0.03c1.414-1.143,2.324-2.793,2.538-4.599c0.286-2.347-0.356-4.713-1.792-6.592
	c-1.84-2.428-4.557-4.04-7.569-4.491c-2.88-0.437-6.284,0.142-10.118,1.716c-6.869,2.832-12.861,7.442-17.361,13.355
	c1.59,3.41,2.619,7.056,3.044,10.795c1.471,12.423-3.111,25.72-11.947,34.698C79.274,76.344,62.982,80.63,46.68,76.646
	c-2.41-0.601-4.786-1.333-7.116-2.194c-1.264-0.46-2.489-1.021-3.664-1.674v9.3c6.227,4.244,15.049,6.079,22.188,4.574
	c0.765-0.163,1.517,0.325,1.68,1.09c0.119,0.556-0.107,1.129-0.574,1.455c-4.747,3.331-10.449,4.499-15.966,5.626
	c-1.659,0.341-3.371,0.691-5.016,1.095c-7.413,1.841-14.427,5.022-20.694,9.387c-0.342-0.889-0.824-1.718-1.428-2.454
	C22.597,98.353,29.864,95.073,37.541,93.169L37.541,93.169z M2.922,82.159c0.095,0.005,0.189,0.015,0.284,0.015
	c1.545-0.002,3.017-0.654,4.057-1.797c0.396-0.008,0.793,0.028,1.182,0.106c1.649,0.322,3.022,1.459,3.645,3.02
	c0.402,1.055,0.373,2.226-0.08,3.26c-0.385,0.897-1.107,1.607-2.01,1.979c-0.788,0.33-1.673,0.34-2.468,0.026
	c-0.705-0.275-1.274-0.814-1.589-1.503c-0.282-0.617-0.313-1.319-0.09-1.959c0.204-0.582,0.626-1.061,1.178-1.337
	c0.507-0.255,1.094-0.302,1.636-0.132c0.203,0.063,0.394,0.158,0.567,0.28c-0.334-0.443-0.818-0.749-1.362-0.861
	c-0.818-0.137-1.658,0.032-2.359,0.476c-1.688,1.008-2.586,3.367-2.047,5.373c0.639,2.1,2.385,3.675,4.539,4.098
	c1.555,0.285,3.161,0.047,4.567-0.677c-0.626,1.221-1.321,2.404-2.081,3.547c-0.412,0.054-0.828,0.081-1.243,0.082
	c-0.608,0.001-1.215-0.06-1.811-0.18c-3.199-0.648-5.779-3.009-6.709-6.137C0,87.07,0.842,84.125,2.922,82.159L2.922,82.159z
	 M18.894,78.039V33.471c0-0.783,0.635-1.419,1.418-1.419h8.662c0.782-0.045,1.453,0.553,1.498,1.335
	c0.045,0.781-0.552,1.452-1.334,1.497c-0.054,0.004-0.109,0.004-0.164,0h-7.248v43.262c-0.447,8.16-3.295,16.007-8.184,22.556
	c-0.868-0.49-1.813-0.831-2.794-1.008C15.609,93.475,18.452,85.919,18.894,78.039L18.894,78.039z M9.149,101.854
	c3.682-0.003,6.668,2.979,6.671,6.661c0.003,3.682-2.98,6.669-6.662,6.672c-3.682,0.002-6.668-2.98-6.671-6.662
	c0-0.002,0-0.003,0-0.005C2.49,104.842,5.47,101.858,9.149,101.854L9.149,101.854z M9.149,112.35
	c2.116,0.001,3.833-1.713,3.835-3.83c0.002-2.116-1.713-3.834-3.83-3.835c-2.117-0.002-3.833,1.713-3.835,3.829
	c0,0.001,0,0.002,0,0.003C5.323,110.632,7.035,112.344,9.149,112.35L9.149,112.35z M3.206,27.06
	c0.478-0.002,0.953-0.065,1.414-0.191v44.49c-0.925-0.256-1.902-0.256-2.827,0v-44.49C2.253,26.994,2.729,27.058,3.206,27.06
	L3.206,27.06z M3.206,18.356c1.769-0.001,3.202,1.433,3.203,3.2c0,1.769-1.432,3.202-3.201,3.203c-1.768,0-3.202-1.433-3.203-3.201
	c0,0,0,0,0-0.001C0.007,19.791,1.439,18.358,3.206,18.356L3.206,18.356z M3.206,79.872c-1.768,0-3.202-1.433-3.203-3.201
	s1.433-3.202,3.201-3.202c1.769-0.001,3.202,1.432,3.203,3.2c0,0.001,0,0.001,0,0.002C6.404,78.437,4.973,79.869,3.206,79.872
	L3.206,79.872z M7.627,1.439c0,0,1.319-1.436,4.681-1.436c3.361,0,5.134,1.436,5.134,1.436 M60.5,1.439
	c2.378-0.455,4.794-0.681,7.215-0.673c2.249-0.034,4.493,0.191,6.69,0.673"/>
</svg>
