<?xml version="1.0" encoding="utf-8"?>
<!-- Generator: Adobe Illustrator 15.1.0, SVG Export Plug-In . SVG Version: 6.00 Build 0)  -->
<!DOCTYPE svg PUBLIC "-//W3C//DTD SVG 1.1//EN" "http://www.w3.org/Graphics/SVG/1.1/DTD/svg11.dtd">
<svg version="1.1" id="Layer_1" xmlns="http://www.w3.org/2000/svg" xmlns:xlink="http://www.w3.org/1999/xlink" x="0px" y="0px"
	 width="199.829px" height="115.186px" viewBox="0 0 199.829 115.186" enable-background="new 0 0 199.829 115.186"
	 xml:space="preserve">
<path id="Top_Left_Corner_Shape" fill="#323333" d="M181.133,20.408c-3.797-0.749-7.477-2.011-10.936-3.749
	c-1.498-2.193-3.261-4.194-5.248-5.957c5.311,2.941,10.799,5.864,16.686,6.918c2.779,0.5,6.69,0.666,9.508-1.371
	c1.17-0.849,2.07-2.017,2.59-3.363c1.492-3.858-0.426-8.195-4.283-9.687c-1.473-0.609-3.128-0.598-4.591,0.033
	c-1.322,0.61-2.192,1.907-2.261,3.361c0.02,1.302,1.064,2.56,2.242,2.69c0.365,0.04,0.734-0.025,1.063-0.189
	c-0.245,0.017-0.491-0.005-0.728-0.067c-0.631-0.16-1.172-0.56-1.514-1.113c-0.787-1.276-0.424-2.947,0.823-3.782
	c0.674-0.45,1.497-0.619,2.293-0.473c0.907,0.161,1.714,0.673,2.25,1.423c0.622,0.859,0.883,1.927,0.729,2.976
	c-0.373,2.533-2.684,4.318-5.229,4.039c-2.591-0.287-4.728-2.742-4.761-5.472c0.027-2.043,1-3.958,2.633-5.187l5.134-1.188
	l4.681,1.188c0.241,0.15,0.477,0.311,0.705,0.479c4.555,3.384,5.502,9.819,2.118,14.374c-1.503,0.461-2.737,1.541-3.396,2.97
	c-2.041,1.043-4.309,1.562-6.6,1.506C183.733,20.763,182.424,20.643,181.133,20.408z M43.573,3.332H9.096
	c21.049,8.379,43.067,20.086,64.131,34.125c0.631,0.434,0.803,1.291,0.388,1.935c-0.424,0.657-1.3,0.848-1.958,0.423
	C48.368,24.29,23.909,11.645,0.93,3.247C0.289,3.011-0.095,1.602,0.024,0.926C0.04,0.847,0.059,0.77,0.084,0.694h45.625
	c-0.812,0.526-1.531,1.91-2.137,2.641V3.332z M87.846,48.505h9.281c0.295,0.954,0.623,1.897,0.982,2.832H86.688
	c-0.67,0.001-1.248-0.468-1.387-1.123c-2.651-12.521-0.76-25.966,4.922-37.464c0.787,0.557,1.552,1.142,2.293,1.753
	C87.403,25.058,85.768,36.962,87.846,48.505L87.846,48.505z M123.028,51.337c-0.668-0.957-1.281-1.9-1.839-2.832h6.671
	c1.166,1.116,2.479,2.068,3.9,2.832H123.028z M106.157,51.337c-0.434-0.929-0.832-1.873-1.191-2.832h6.945
	c0.521,0.961,1.073,1.908,1.669,2.832H106.157z M96.248,7.966c-0.741-0.581-1.509-1.137-2.284-1.67
	c0.678-1.01,1.381-1.999,2.123-2.961h-7.049c-1.23-0.64-2.488-1.971-3.77-2.497c-0.122-0.048-0.24-0.095-0.358-0.144h15.494
	c0.17,0.479,0.075,1.762-0.26,2.15C98.739,4.469,97.438,6.18,96.248,7.966L96.248,7.966z M66.824,0.694
	c-0.978,0.537-1.896,1.916-2.746,2.641h-7.399c-0.506-0.748-1.139-2.13-1.861-2.641H66.824z M138.59,51.041
	c-4.748-0.447-9.014-3.088-11.527-7.14c-2.184-3.592-2.657-8.093-1.229-11.745c1.579-4.044,5.404-6.9,9.518-7.113
	c4.393-0.228,8.648,2.802,9.688,6.896c0.523,2.042,0.225,4.207-0.832,6.03c-0.871,1.529-2.308,2.654-4,3.134
	c-1.423,0.412-2.949,0.25-4.255-0.449c-1.11-0.589-1.946-1.591-2.325-2.788c-0.334-1.027-0.252-2.145,0.227-3.112
	c0.416-0.842,1.143-1.489,2.027-1.801c0.775-0.278,1.629-0.242,2.379,0.102c0.404,0.188,0.761,0.466,1.039,0.815
	c0.455,0.571,0.668,1.298,0.597,2.025c-0.064,0.656-0.382,1.261-0.884,1.685c-0.457,0.39-1.047,0.586-1.646,0.548
	c-0.053-0.004-0.108-0.01-0.161-0.018c0.028,0.019,0.053,0.033,0.08,0.049c0.657,0.352,1.426,0.433,2.143,0.226
	c0.983-0.28,1.818-0.934,2.326-1.822c0.686-1.188,0.879-2.597,0.539-3.925c-0.705-2.785-3.759-4.921-6.795-4.765
	c-2.974,0.152-5.863,2.338-7.025,5.313c-1.111,2.849-0.723,6.391,1.012,9.243c2.038,3.285,5.497,5.427,9.347,5.788
	c5.233,0.444,10.708-2.882,13.025-7.912c2.231-4.835,1.62-11.01-1.552-15.729c-2.982-4.438-8.192-7.627-13.933-8.525
	c-6.907-1.082-13.923,1.321-17.881,6.124c-2.989,3.629-4.379,8.714-3.948,14.072c-0.26-0.658-0.515-1.316-0.775-1.981
	c-0.562-1.448-1.133-2.911-1.734-4.377c0.59-3.483,2.062-6.759,4.273-9.514c4.582-5.562,12.629-8.356,20.506-7.121
	c6.506,1.019,12.426,4.661,15.844,9.742c3.711,5.521,4.406,12.781,1.773,18.496C151.631,47.569,144.969,51.585,138.59,51.041z
	 M58.742,16.312c0.033,0.268,0.075,0.531,0.127,0.794c-0.037,0.019-0.075,0.038-0.112,0.057c-1.683,0.816-3.526,1.245-5.396,1.253
	c-1.798,0.018-3.573-0.43-5.147-1.298c-3.5-1.981-5.314-6.189-4.232-9.782c0.537-1.79,1.752-3.3,3.386-4.208
	c1.368-0.768,2.981-0.97,4.497-0.567c1.284,0.337,2.387,1.162,3.072,2.3c0.589,0.971,0.777,2.134,0.525,3.24
	c-0.217,0.958-0.799,1.795-1.623,2.33c-0.718,0.472-1.591,0.646-2.435,0.481c-0.748-0.141-1.411-0.568-1.849-1.189
	c-0.393-0.558-0.553-1.245-0.449-1.919c0.093-0.612,0.423-1.164,0.917-1.537c0.45-0.345,1.021-0.499,1.584-0.431
	c0.252,0.03,0.495,0.105,0.719,0.224c-0.306-0.372-0.721-0.639-1.188-0.761c-0.806-0.215-1.664-0.106-2.392,0.301
	c-0.991,0.551-1.728,1.467-2.052,2.553c-0.705,2.32,0.576,5.177,2.912,6.499c2.226,1.264,5.258,1.247,7.914-0.04
	c0.392-0.188,0.771-0.401,1.135-0.636C58.62,14.756,58.649,15.537,58.742,16.312z M162.301,93.169
	c7.678,1.904,14.944,5.184,21.451,9.682c-0.604,0.736-1.086,1.565-1.428,2.454c-6.268-4.365-13.281-7.546-20.693-9.387
	c-1.646-0.404-3.357-0.754-5.017-1.095c-5.517-1.128-11.219-2.296-15.966-5.626c-0.467-0.326-0.693-0.899-0.574-1.455
	c0.163-0.766,0.915-1.253,1.68-1.091c7.139,1.506,15.961-0.329,22.188-4.573v-9.301c-1.175,0.653-2.399,1.215-3.664,1.675
	c-2.33,0.86-4.706,1.593-7.116,2.193c-16.302,3.984-32.594-0.302-43.583-11.466c-8.836-8.978-13.418-22.274-11.946-34.698
	c0.424-3.738,1.453-7.385,3.043-10.795c-4.5-5.913-10.492-10.522-17.36-13.354c-3.834-1.574-7.238-2.153-10.118-1.716
	c-3.012,0.45-5.729,2.062-7.568,4.49c-1.437,1.879-2.078,4.245-1.793,6.593c0.215,1.806,1.125,3.456,2.539,4.599
	c1.934,1.569,4.702,1.582,6.651,0.03c0.808-0.642,1.332-1.571,1.461-2.593c0.101-0.744-0.097-1.499-0.548-2.099
	c-0.229-0.312-0.547-0.549-0.907-0.685c0.281,0.198,0.513,0.461,0.671,0.767c0.273,0.534,0.331,1.153,0.161,1.729
	c-0.043,0.142-0.101,0.28-0.17,0.412c-0.308,0.588-0.832,1.029-1.461,1.234c-0.697,0.23-1.455,0.178-2.114-0.145
	c-0.744-0.359-1.318-0.996-1.599-1.773c-0.322-0.884-0.287-1.859,0.1-2.716c0.772-1.724,2.606-2.712,4.47-2.411
	c1.246,0.198,2.366,0.877,3.119,1.891c0.893,1.189,1.282,2.682,1.088,4.155c-0.223,1.752-1.121,3.347-2.506,4.444
	c-2.988,2.38-7.23,2.359-10.197-0.048c-1.988-1.605-3.27-3.924-3.57-6.459c-0.375-3.079,0.469-6.181,2.35-8.645
	c2.303-3.026,5.641-5.753,9.399-6.324c3.39-0.514,7.3,0.868,11.622,2.642c6.926,2.856,13.025,7.41,17.734,13.237
	c2.621-4.407,6.268-8.117,10.629-10.816c3.877-2.379,8.187-3.974,12.68-4.691l6.689-0.674l7.215,0.674
	c4.724,0.751,9.315,2.171,13.637,4.221c7.796,3.679,13.384,8.525,16.609,14.41c1.627,3.002,2.658,6.291,3.034,9.686h-1.753
	c-0.365,0-0.729,0.054-1.078,0.159c-0.349-2.973-1.26-5.852-2.686-8.482c-2.889-5.273-8.194-9.843-15.333-13.211
	c-13.002-6.133-27.375-6.013-37.517,0.313c-4.313,2.669-7.853,6.423-10.264,10.885c0.734,1.053,1.424,2.137,2.066,3.253
	c2.264,3.937,3.943,8.253,5.568,12.427c2.682,6.897,5.215,13.411,10.162,18.329c8.061,8.014,21.791,9.7,32.651,4.01
	c6.468-3.39,11.55-9.045,13.946-15.519c0.592-1.598,1.021-3.249,1.281-4.933c0.387,0.134,0.793,0.201,1.201,0.202h1.631
	c-0.287,1.949-0.773,3.864-1.457,5.713c-2.638,7.121-8.212,13.334-15.289,17.043c-4.646,2.416-9.808,3.675-15.045,3.665
	c-7.857,0-15.521-2.812-20.916-8.175c-5.371-5.34-8.138-12.44-10.809-19.309c-1.584-4.075-3.221-8.29-5.381-12.041
	c-0.326-0.569-0.668-1.128-1.021-1.681c-1.085,2.694-1.804,5.522-2.137,8.407c-1.371,11.589,2.902,23.996,11.152,32.379
	c10.279,10.445,25.565,14.447,40.894,10.702c5.636-1.375,10.955-3.553,11.456-4.681c0.027-0.765,0.658-1.369,1.423-1.363
	c0.78,0.006,1.409,0.645,1.404,1.424v13.543c0.001,0.454-0.216,0.88-0.582,1.146c-4.87,3.53-11.347,5.66-17.593,5.991
	c2.816,0.867,5.682,1.568,8.58,2.101C158.864,92.396,160.609,92.752,162.301,93.169L162.301,93.169z M196.92,82.159
	c2.08,1.966,2.922,4.91,2.194,7.679c-0.931,3.128-3.51,5.489-6.709,6.137c-0.597,0.12-1.203,0.182-1.812,0.18
	c-0.414-0.001-0.83-0.027-1.242-0.081c-0.76-1.144-1.455-2.326-2.081-3.548c1.405,0.725,3.012,0.962,4.567,0.678
	c2.153-0.423,3.899-1.998,4.539-4.099c0.539-2.006-0.359-4.364-2.048-5.373c-0.7-0.443-1.541-0.612-2.358-0.476
	c-0.545,0.112-1.028,0.418-1.362,0.861c0.173-0.122,0.364-0.218,0.567-0.28c0.541-0.17,1.129-0.123,1.636,0.132
	c0.552,0.276,0.974,0.755,1.178,1.337c0.224,0.64,0.192,1.342-0.09,1.959c-0.315,0.689-0.884,1.229-1.589,1.503
	c-0.795,0.314-1.68,0.305-2.469-0.025c-0.902-0.372-1.625-1.082-2.01-1.979c-0.453-1.034-0.482-2.205-0.08-3.26
	c0.623-1.562,1.996-2.698,3.646-3.021c0.389-0.077,0.786-0.113,1.182-0.105c1.04,1.143,2.513,1.795,4.058,1.797
	C196.732,82.174,196.826,82.164,196.92,82.159L196.92,82.159z M180.949,78.039c0.442,7.88,3.285,15.436,8.146,21.654
	c-0.98,0.178-1.926,0.519-2.793,1.009c-4.89-6.55-7.737-14.396-8.185-22.557V34.884h-7.248c-0.055,0.004-0.11,0.004-0.164,0
	c-0.782-0.045-1.379-0.716-1.334-1.497c0.046-0.782,0.716-1.38,1.498-1.335h8.662c0.783,0,1.418,0.636,1.418,1.419V78.039
	L180.949,78.039z M190.694,101.854c3.679,0.004,6.658,2.988,6.662,6.666c0,0.002,0,0.003,0,0.005
	c-0.004,3.683-2.989,6.664-6.672,6.662c-3.682-0.003-6.664-2.99-6.661-6.672S187.012,101.851,190.694,101.854L190.694,101.854z
	 M190.694,112.35c2.113-0.006,3.826-1.718,3.83-3.833c0-0.001,0-0.002,0-0.003c-0.002-2.116-1.719-3.831-3.835-3.829
	c-2.117,0.001-3.832,1.719-3.83,3.835C186.861,110.637,188.578,112.351,190.694,112.35L190.694,112.35z M196.637,27.06
	c0.477-0.002,0.953-0.065,1.412-0.19v44.489c-0.924-0.256-1.901-0.256-2.826,0V26.869C195.684,26.995,196.159,27.058,196.637,27.06
	L196.637,27.06z M196.637,18.356c1.767,0.002,3.199,1.436,3.201,3.201c0,0.001,0,0.001,0,0.001
	c-0.002,1.769-1.436,3.201-3.203,3.201c-1.77-0.001-3.201-1.434-3.201-3.203C193.434,19.789,194.868,18.355,196.637,18.356
	L196.637,18.356z M196.637,79.872c-1.768-0.003-3.198-1.436-3.201-3.201c0-0.001,0-0.001,0-0.002c0.001-1.769,1.434-3.201,3.203-3.2
	c1.768,0,3.201,1.434,3.201,3.202C199.838,78.439,198.405,79.872,196.637,79.872L196.637,79.872z M182.401,1.439
	c0,0,1.773-1.436,5.134-1.436c3.362,0,4.681,1.436,4.681,1.436 M125.438,1.439c2.197-0.481,4.441-0.707,6.689-0.673
	c2.422-0.008,4.838,0.218,7.215,0.673"/>
</svg>
