<?xml version="1.0" encoding="utf-8"?>
<!-- Generator: Adobe Illustrator 15.1.0, SVG Export Plug-In . SVG Version: 6.00 Build 0)  -->
<!DOCTYPE svg PUBLIC "-//W3C//DTD SVG 1.1//EN" "http://www.w3.org/Graphics/SVG/1.1/DTD/svg11.dtd">
<svg version="1.1" id="elements" xmlns="http://www.w3.org/2000/svg" xmlns:xlink="http://www.w3.org/1999/xlink" x="0px" y="0px"
	 width="242px" height="78px" viewBox="0 0 242 78" enable-background="new 0 0 242 78" xml:space="preserve">
<g>
	<path fill="none" d="M120.902,21.247l0.111-0.149l0.112,0.148c0.341-0.406,0.68-0.814,1.014-1.227
		c1.479-1.822,3.087-3.965,3.433-6.346c0.158-1.087-0.158-2.733-1.219-3.959c-0.827-0.955-1.91-1.439-3.219-1.439l-0.146,0.001
		c-0.001,0-0.002,0-0.003,0c-1.403,0-2.485,0.484-3.312,1.438c-1.061,1.226-1.377,2.872-1.219,3.959
		c0.346,2.38,1.953,4.523,3.432,6.346C120.223,20.432,120.562,20.84,120.902,21.247z"/>
	<path fill="none" d="M215.896,38.604c0.569-0.024,1.146-0.358,1.162-0.674c0.004-0.056,0.009-0.16-0.175-0.299
		c-0.354-0.268-1.021-0.352-1.488-0.191c-0.532,0.186-1.003,0.532-1.377,0.978c0.207,0.022,0.409,0.052,0.609,0.08
		C215.076,38.56,215.499,38.621,215.896,38.604z"/>
	<path fill="none" d="M26.634,37.439c-0.159-0.055-0.343-0.081-0.528-0.081c-0.357,0-0.727,0.097-0.959,0.272
		c-0.185,0.139-0.179,0.243-0.176,0.299c0.018,0.315,0.594,0.649,1.163,0.674c0.392,0.016,0.817-0.043,1.268-0.106
		c0.2-0.028,0.403-0.058,0.609-0.08C27.637,37.972,27.166,37.625,26.634,37.439z"/>
	<path fill="none" d="M110.309,51.548c4.741,3.821,8.459,8.898,10.705,14.596c2.247-5.697,5.965-10.774,10.707-14.596
		c-3.68-2.84-7.272-5.771-10.707-8.733C117.58,45.776,113.986,48.708,110.309,51.548z"/>
	<path fill="none" d="M121.037,24.428l-0.023,0.026l-0.021-0.026c-2.139,2.698-4.528,5.155-7.041,7.473
		c2.266,2.684,4.615,5.303,7.062,7.823c2.448-2.521,4.798-5.14,7.063-7.823C125.564,29.583,123.175,27.126,121.037,24.428z"/>
	<path fill="#323333" d="M236.458,21.486H136.142l-0.299,0.422c-2.046,2.884-4.218,5.701-6.48,8.453
		c-2.517-2.328-4.887-4.803-6.991-7.502c0.444-0.524,0.89-1.047,1.322-1.58c1.646-2.028,3.438-4.434,3.857-7.318
		c0.272-1.876-0.389-4.057-1.686-5.555c-1.206-1.395-2.842-2.131-4.73-2.131l-0.096,0.001l-0.146-0.001
		c-1.889,0-3.525,0.736-4.731,2.131c-1.296,1.498-1.957,3.679-1.686,5.555c0.42,2.884,2.212,5.29,3.858,7.318
		c0.433,0.533,0.878,1.056,1.321,1.58c-2.104,2.699-4.474,5.174-6.99,7.502c-2.263-2.752-4.435-5.569-6.48-8.453l-0.299-0.422H5.57
		c-0.552,0-1,0.447-1,1s0.448,1,1,1h99.284c2.003,2.804,4.132,5.539,6.337,8.218c-2.962,2.626-6.075,5.087-9.149,7.5H40.879
		c-0.471-3.632-2.603-7.186-5.719-9.451c-3.357-2.442-7.932-3.049-11.656-1.547c-3.914,1.58-6.698,5.391-6.929,9.483
		c-0.142,2.529,0.679,4.979,2.255,6.723c1.473,1.629,3.547,2.554,5.615,2.554c0.378,0,0.756-0.031,1.129-0.094
		c2.614-0.44,4.773-2.489,5.25-4.98c0.166-0.867,0.107-1.755-0.133-2.588c-0.014-0.067-0.033-0.133-0.061-0.195
		c-0.53-1.623-1.754-3.006-3.342-3.558c-1.107-0.384-2.451-0.19-3.346,0.482c-0.668,0.503-1.012,1.214-0.97,2.004
		c0.085,1.583,1.647,2.503,3.075,2.564c0.573,0.021,1.113-0.051,1.631-0.124c0.426-0.061,0.825-0.111,1.203-0.109
		c0.055,0.38,0.05,0.769-0.022,1.146c-0.318,1.662-1.84,3.085-3.618,3.385c-1.729,0.288-3.66-0.426-4.93-1.829
		c-1.219-1.349-1.854-3.269-1.74-5.268c0.185-3.283,2.521-6.467,5.68-7.741c3.099-1.251,6.919-0.737,9.732,1.309
		c2.865,2.084,4.821,5.57,4.982,8.883l0.046,0.951h63.721l0.271-0.213c3.171-2.488,6.392-5.018,9.462-7.733
		c2.327,2.753,4.759,5.423,7.275,8.007c-3.736,3.223-7.657,6.413-11.679,9.485l-1.054,0.806l1.063,0.792
		c5.674,4.221,9.929,10.305,11.983,17.131l0.957,3.183l0.958-3.183c2.055-6.826,6.31-12.91,11.983-17.131l1.062-0.792l-1.053-0.806
		c-4.021-3.072-7.942-6.263-11.679-9.485c2.517-2.584,4.948-5.254,7.275-8.007c3.07,2.716,6.291,5.245,9.462,7.733l0.271,0.213
		h63.72l0.047-0.951c0.161-3.312,2.117-6.799,4.982-8.883c2.813-2.045,6.633-2.56,9.732-1.309c3.159,1.274,5.494,4.458,5.68,7.741
		c0.112,1.999-0.521,3.919-1.74,5.268c-1.269,1.403-3.2,2.12-4.93,1.829c-1.778-0.3-3.3-1.723-3.618-3.384
		c-0.072-0.379-0.077-0.767-0.022-1.147c0.374-0.006,0.778,0.049,1.202,0.109c0.519,0.073,1.059,0.147,1.633,0.124
		c1.427-0.062,2.989-0.981,3.075-2.564c0.042-0.79-0.303-1.502-0.971-2.004c-0.894-0.673-2.239-0.866-3.347-0.482
		c-1.586,0.551-2.809,1.933-3.34,3.555c-0.027,0.064-0.048,0.132-0.062,0.202c-0.24,0.831-0.299,1.719-0.134,2.584
		c0.479,2.491,2.637,4.54,5.25,4.98c2.421,0.402,5.003-0.534,6.746-2.46c1.575-1.743,2.396-4.193,2.253-6.723
		c-0.229-4.092-3.014-7.903-6.928-9.483c-3.725-1.502-8.3-0.895-11.656,1.547c-3.116,2.265-5.248,5.819-5.72,9.451h-61.162
		c-3.074-2.413-6.188-4.874-9.149-7.5c2.205-2.679,4.334-5.414,6.337-8.218h99.284c0.553,0,1-0.447,1-1
		S237.011,21.486,236.458,21.486z M27.401,38.497c-0.45,0.063-0.876,0.122-1.268,0.106c-0.569-0.024-1.146-0.358-1.163-0.674
		c-0.003-0.056-0.009-0.16,0.176-0.299c0.232-0.176,0.602-0.272,0.959-0.272c0.186,0,0.369,0.026,0.528,0.081
		c0.532,0.186,1.003,0.532,1.377,0.978C27.805,38.439,27.602,38.469,27.401,38.497z M215.395,37.439
		c0.467-0.16,1.135-0.076,1.488,0.191c0.184,0.139,0.179,0.243,0.175,0.299c-0.017,0.315-0.593,0.649-1.162,0.674
		c-0.396,0.018-0.819-0.044-1.269-0.106c-0.2-0.028-0.402-0.058-0.609-0.08C214.392,37.972,214.862,37.625,215.395,37.439z
		 M116.456,13.674c-0.158-1.087,0.158-2.733,1.219-3.959c0.826-0.954,1.908-1.438,3.312-1.438c0.001,0,0.002,0,0.003,0l0.146-0.001
		c1.309,0,2.392,0.484,3.219,1.439c1.061,1.226,1.377,2.872,1.219,3.959c-0.346,2.381-1.953,4.523-3.433,6.346
		c-0.334,0.412-0.673,0.82-1.014,1.227l-0.112-0.148l-0.111,0.149c-0.341-0.407-0.68-0.815-1.015-1.228
		C118.409,18.197,116.802,16.054,116.456,13.674z M121.014,66.144c-2.246-5.697-5.964-10.774-10.705-14.596
		c3.678-2.84,7.271-5.771,10.705-8.733c3.435,2.962,7.027,5.894,10.707,8.733C126.979,55.369,123.261,60.446,121.014,66.144z
		 M121.014,39.724c-2.447-2.521-4.797-5.14-7.062-7.823c2.513-2.317,4.902-4.774,7.041-7.473l0.021,0.026l0.023-0.026
		c2.138,2.698,4.527,5.155,7.04,7.473C125.812,34.584,123.462,37.203,121.014,39.724z"/>
</g>
</svg>
