<?xml version="1.0" encoding="utf-8"?>
<!-- Generator: Adobe Illustrator 24.1.2, SVG Export Plug-In . SVG Version: 6.00 Build 0)  -->
<svg version="1.1" id="Layer_1" xmlns="http://www.w3.org/2000/svg" xmlns:xlink="http://www.w3.org/1999/xlink" x="0px" y="0px"
	 viewBox="0 0 319 108.1" style="enable-background:new 0 0 319 108.1;" xml:space="preserve">
<style type="text/css">
	.st0{fill-rule:evenodd;clip-rule:evenodd;fill:#FFFFFF;}
	.st1{fill-rule:evenodd;clip-rule:evenodd;fill:#FFFFFF;stroke:#000000;stroke-width:9;stroke-miterlimit:10;}
	.st2{fill:#171717;}
	.st3{font-family:'Poppins-ExtraBold';}
	.st4{font-size:29.2394px;}
</style>
<path id="bubble_fill" class="st0" d="M315.9,3.6c0-0.7-0.5-1.4-1.3-1.4H3.6C2.8,2.3,2.2,2.9,2.3,3.6v80.5c0,0.7,0.5,1.4,1.3,1.4
	h19.6v15l16.8-13.8l1.6-1.3h273.2c0.7-0.1,1.3-0.7,1.3-1.4L315.9,3.6L315.9,3.6z"/>
<path id="bubble_outline" class="st1" d="M314,6.4c0-0.7-0.5-1.4-1.3-1.4H6.3C5.6,5.1,5,5.7,5,6.4V81c0,0.7,0.5,1.4,1.3,1.4h19.6
	v15.1l16.8-13.8l1.6-1.3h268.4c0.7-0.1,1.3-0.7,1.3-1.4V6.4z"/>
<text transform="matrix(1 0 0 1 18.4229 53.5169)" class="st2 st3 st4">Text Etiquette Test</text>
</svg>
