<?xml version="1.0" encoding="utf-8"?>
<!-- Generator: Adobe Illustrator 24.1.2, SVG Export Plug-In . SVG Version: 6.00 Build 0)  -->
<svg version="1.1" id="Layer_1" xmlns="http://www.w3.org/2000/svg" xmlns:xlink="http://www.w3.org/1999/xlink" x="0px" y="0px"
	 viewBox="0 0 443.8 152.7" style="enable-background:new 0 0 443.8 152.7;" xml:space="preserve">
<style type="text/css">
	.st0{fill-rule:evenodd;clip-rule:evenodd;fill:#FFFFFF;}
	.st1{fill-rule:evenodd;clip-rule:evenodd;}
	.st2{enable-background:new    ;}
	.st3{fill:#171717;}
</style>
<path id="bubble_fill" class="st0" d="M438.6,6c0-1-0.7-1.9-1.8-2H5.8C4.7,4.1,3.9,5,4,6v111.5c0,1,0.7,1.9,1.8,2h27.1v20.8
	l23.3-19.1l2.2-1.8h378.5c1-0.1,1.8-1,1.8-2L438.6,6L438.6,6z"/>
<path id="bubble_outline" class="st1" d="M434.1,123.1H65l-36.1,29.7v-29.7H9.6c-5.4-0.1-9.7-4.5-9.6-9.9V9.9C0,4.5,4.3,0.1,9.6,0
	h424.5c5.4,0.1,9.7,4.5,9.6,9.9v103.3C443.8,118.6,439.5,123,434.1,123.1z M435.9,9.9c0-1-0.7-1.9-1.8-2H9.6c-1,0.1-1.8,1-1.8,2
	v103.3c0,1,0.7,1.9,1.8,2h27.1v20.9L60,117l2.2-1.8h371.9c1-0.1,1.8-1,1.8-2V9.9z"/>
<g class="st2">
	<path class="st3" d="M50.2,46.4v6.4h-7.7v22.3h-7.9V52.8h-7.7v-6.4H50.2z"/>
	<path class="st3" d="M74.4,65.2h-15c0.1,2.6,1.3,3.8,3.4,3.8c0.8,0,1.4-0.2,1.9-0.6c0.5-0.4,0.9-0.9,1.1-1.5h8.4
		c-0.3,1.6-1,3-2,4.3c-1,1.3-2.3,2.3-3.9,3c-1.6,0.7-3.3,1.1-5.1,1.1c-2.3,0-4.3-0.5-6-1.4s-3.1-2.3-4.1-4.1c-1-1.8-1.5-3.8-1.5-6.2
		c0-2.4,0.5-4.4,1.5-6.2c1-1.8,2.3-3.1,4.1-4c1.8-0.9,3.8-1.4,6-1.4c2.3,0,4.3,0.5,6,1.4c1.7,0.9,3.1,2.2,4,3.9
		c1,1.7,1.4,3.7,1.4,5.9C74.7,63.9,74.6,64.5,74.4,65.2z M65.6,59.2c-0.6-0.6-1.5-0.9-2.4-0.9c-1.1,0-1.9,0.3-2.6,0.9
		c-0.7,0.6-1,1.5-1.2,2.6h7.1C66.6,60.7,66.3,59.8,65.6,59.2z"/>
	<path class="st3" d="M92.4,75.1l-4.3-5.8l-3.3,5.8h-8.8l7.6-11.9l-7.9-10.8h8.9l4.2,5.8l3.3-5.8h8.8L93.2,64l8.1,11.1H92.4z"/>
	<path class="st3" d="M117.2,68.3v6.8h-3.3c-2.8,0-5-0.7-6.5-2.1c-1.6-1.4-2.3-3.7-2.3-6.8V59h-2.9v-6.6h2.9v-5.5h8v5.5h4.1V59H113
		v7.3c0,0.7,0.2,1.2,0.5,1.5c0.3,0.3,0.8,0.4,1.6,0.4H117.2z"/>
	<path class="st3" d="M136.3,52.8v4.7h9.3v6h-9.3v5.2h10.5v6.4h-18.5V46.4h18.5v6.4H136.3z"/>
	<path class="st3" d="M164,68.3v6.8h-3.3c-2.8,0-5-0.7-6.5-2.1c-1.6-1.4-2.3-3.7-2.3-6.8V59h-2.9v-6.6h2.9v-5.5h8v5.5h4.1V59h-4.1
		v7.3c0,0.7,0.2,1.2,0.5,1.5c0.3,0.3,0.8,0.4,1.6,0.4H164z"/>
	<path class="st3" d="M168.3,43.2c0.9-0.8,2-1.2,3.4-1.2c1.4,0,2.5,0.4,3.4,1.2c0.8,0.8,1.3,1.7,1.3,2.9c0,1.1-0.4,2.1-1.3,2.8
		c-0.9,0.8-2,1.1-3.3,1.1c-1.4,0-2.5-0.4-3.4-1.1c-0.9-0.8-1.3-1.7-1.3-2.8C167,44.9,167.4,43.9,168.3,43.2z M175.6,52.4v22.7h-8
		V52.4H175.6z"/>
	<path class="st3" d="M192.6,52.9c1,0.4,1.9,1.2,2.6,2.1v-2.6h7.9V86h-7.9V72c-0.8,1.1-1.7,1.9-2.7,2.5c-1,0.6-2.2,0.8-3.5,0.8
		c-1.8,0-3.5-0.5-5.1-1.4c-1.6-1-2.8-2.3-3.7-4.1c-0.9-1.7-1.4-3.7-1.4-6c0-2.2,0.5-4.2,1.4-6c0.9-1.8,2.2-3.2,3.7-4.2
		c1.6-1,3.2-1.5,5.1-1.5C190.4,52.2,191.6,52.5,192.6,52.9z M188.2,60.3c-0.8,0.8-1.3,2-1.3,3.6c0,1.5,0.4,2.7,1.2,3.4
		c0.8,0.7,1.8,1.1,2.9,1.1c1.1,0,2-0.4,2.9-1.2c0.8-0.8,1.3-2,1.3-3.5c0-1.5-0.4-2.7-1.3-3.5c-0.8-0.8-1.8-1.2-2.9-1.2
		C190,59.1,189,59.5,188.2,60.3z"/>
	<path class="st3" d="M230.9,52.4v22.7h-7.9v-3.8c-0.6,1.2-1.6,2.2-2.8,2.9c-1.2,0.7-2.7,1.1-4.4,1.1c-2.6,0-4.7-0.9-6.2-2.6
		c-1.5-1.7-2.2-4.1-2.2-7.2V52.4h7.9v12.2c0,1.3,0.3,2.3,1,3.1c0.7,0.7,1.6,1.1,2.8,1.1c1.2,0,2.1-0.4,2.8-1.1
		c0.7-0.8,1.1-1.8,1.1-3.2v-12H230.9z"/>
	<path class="st3" d="M256.9,65.2h-15c0.1,2.6,1.3,3.8,3.4,3.8c0.8,0,1.4-0.2,1.9-0.6c0.5-0.4,0.9-0.9,1.1-1.5h8.4
		c-0.3,1.6-1,3-2,4.3c-1,1.3-2.3,2.3-3.9,3c-1.6,0.7-3.3,1.1-5.1,1.1c-2.3,0-4.3-0.5-6-1.4s-3.1-2.3-4.1-4.1c-1-1.8-1.5-3.8-1.5-6.2
		c0-2.4,0.5-4.4,1.5-6.2c1-1.8,2.3-3.1,4.1-4c1.8-0.9,3.8-1.4,6-1.4c2.3,0,4.3,0.5,6,1.4c1.7,0.9,3.1,2.2,4,3.9
		c1,1.7,1.4,3.7,1.4,5.9C257.1,63.9,257.1,64.5,256.9,65.2z M248.1,59.2c-0.6-0.6-1.5-0.9-2.4-0.9c-1.1,0-1.9,0.3-2.6,0.9
		c-0.7,0.6-1,1.5-1.2,2.6h7.1C249,60.7,248.7,59.8,248.1,59.2z"/>
	<path class="st3" d="M273.9,68.3v6.8h-3.3c-2.8,0-5-0.7-6.5-2.1c-1.6-1.4-2.3-3.7-2.3-6.8V59h-2.9v-6.6h2.9v-5.5h8v5.5h4.1V59h-4.1
		v7.3c0,0.7,0.2,1.2,0.5,1.5c0.3,0.3,0.8,0.4,1.6,0.4H273.9z"/>
	<path class="st3" d="M291,68.3v6.8h-3.3c-2.8,0-5-0.7-6.5-2.1c-1.6-1.4-2.3-3.7-2.3-6.8V59H276v-6.6h2.9v-5.5h8v5.5h4.1V59h-4.1
		v7.3c0,0.7,0.2,1.2,0.5,1.5c0.3,0.3,0.8,0.4,1.6,0.4H291z"/>
	<path class="st3" d="M316.3,65.2h-15c0.1,2.6,1.3,3.8,3.4,3.8c0.8,0,1.4-0.2,1.9-0.6c0.5-0.4,0.9-0.9,1.1-1.5h8.4
		c-0.3,1.6-1,3-2,4.3c-1,1.3-2.3,2.3-3.9,3c-1.6,0.7-3.3,1.1-5.1,1.1c-2.3,0-4.3-0.5-6-1.4s-3.1-2.3-4.1-4.1c-1-1.8-1.5-3.8-1.5-6.2
		c0-2.4,0.5-4.4,1.5-6.2c1-1.8,2.3-3.1,4.1-4c1.8-0.9,3.8-1.4,6-1.4c2.3,0,4.3,0.5,6,1.4c1.7,0.9,3.1,2.2,4,3.9
		c1,1.7,1.4,3.7,1.4,5.9C316.5,63.9,316.4,64.5,316.3,65.2z M307.5,59.2c-0.6-0.6-1.5-0.9-2.4-0.9c-1.1,0-1.9,0.3-2.6,0.9
		c-0.7,0.6-1,1.5-1.2,2.6h7.1C308.4,60.7,308.1,59.8,307.5,59.2z"/>
	<path class="st3" d="M348.8,46.4v6.4h-7.7v22.3h-7.9V52.8h-7.7v-6.4H348.8z"/>
	<path class="st3" d="M373.1,65.2h-15c0.1,2.6,1.3,3.8,3.4,3.8c0.8,0,1.4-0.2,1.9-0.6c0.5-0.4,0.9-0.9,1.1-1.5h8.4
		c-0.3,1.6-1,3-2,4.3c-1,1.3-2.3,2.3-3.9,3c-1.6,0.7-3.3,1.1-5.1,1.1c-2.3,0-4.3-0.5-6-1.4s-3.1-2.3-4.1-4.1c-1-1.8-1.5-3.8-1.5-6.2
		c0-2.4,0.5-4.4,1.5-6.2s2.3-3.1,4.1-4s3.8-1.4,6-1.4c2.3,0,4.3,0.5,6,1.4c1.7,0.9,3.1,2.2,4,3.9c1,1.7,1.4,3.7,1.4,5.9
		C373.3,63.9,373.2,64.5,373.1,65.2z M364.2,59.2c-0.6-0.6-1.5-0.9-2.4-0.9c-1.1,0-1.9,0.3-2.6,0.9c-0.7,0.6-1,1.5-1.2,2.6h7.1
		C365.2,60.7,364.9,59.8,364.2,59.2z"/>
	<path class="st3" d="M392.3,54.3c1.8,1.5,2.9,3.4,3.4,5.8h-7.5c-0.2-0.8-0.6-1.4-1.2-1.8s-1.3-0.6-2.1-0.6c-0.6,0-1,0.1-1.4,0.4
		s-0.5,0.6-0.5,1.1c0,0.6,0.3,1,1,1.3c0.7,0.3,1.7,0.6,3.3,1c1.8,0.4,3.2,0.8,4.4,1.2c1.1,0.4,2.1,1.1,3,2.1c0.9,1,1.3,2.3,1.3,3.9
		c0,1.3-0.4,2.5-1.1,3.5s-1.8,1.8-3.2,2.4c-1.4,0.6-3,0.9-4.9,0.9c-3.2,0-5.7-0.7-7.6-2.1c-1.9-1.4-3-3.3-3.4-5.9h7.7
		c0.1,0.8,0.5,1.5,1.1,1.9s1.4,0.6,2.3,0.6c0.6,0,1.1-0.1,1.4-0.4c0.3-0.3,0.5-0.6,0.5-1.1c0-0.6-0.3-1.1-1-1.4s-1.8-0.6-3.3-0.9
		c-1.7-0.4-3.1-0.7-4.3-1.2c-1.1-0.4-2.1-1.1-2.9-2c-0.8-0.9-1.2-2.2-1.2-3.9c0-2.1,0.8-3.7,2.4-5c1.6-1.3,3.9-1.9,6.8-1.9
		C388.1,52.1,390.5,52.8,392.3,54.3z"/>
	<path class="st3" d="M413,68.3v6.8h-3.3c-2.8,0-5-0.7-6.5-2.1c-1.6-1.4-2.3-3.7-2.3-6.8V59h-2.9v-6.6h2.9v-5.5h8v5.5h4.1V59h-4.1
		v7.3c0,0.7,0.2,1.2,0.5,1.5c0.3,0.3,0.8,0.4,1.6,0.4H413z"/>
</g>
</svg>
