<?xml version="1.0" encoding="utf-8"?>
<!-- Generator: Adobe Illustrator 15.1.0, SVG Export Plug-In . SVG Version: 6.00 Build 0)  -->
<!DOCTYPE svg PUBLIC "-//W3C//DTD SVG 1.1//EN" "http://www.w3.org/Graphics/SVG/1.1/DTD/svg11.dtd">
<svg version="1.1" id="Layer_1" xmlns="http://www.w3.org/2000/svg" xmlns:xlink="http://www.w3.org/1999/xlink" x="0px" y="0px"
	 width="108.264px" height="94.238px" viewBox="0 0 108.264 94.238" enable-background="new 0 0 108.264 94.238"
	 xml:space="preserve">
<g>
	<path fill="#DCE6EF" d="M34.74,38.882h36.667c-2.927-7.276-9.871-12.381-18.248-12.381C44.784,26.501,37.723,31.605,34.74,38.882z"
		/>
	<path fill="#DCE6EF" d="M23.549,59.525c1.611,3.815,3.917,7.245,6.853,10.188c2.829,2.835,6.108,5.085,9.75,6.689
		c0.158,0.492,0.511,0.9,0.978,1.133c0.244,0.292,0.566,0.512,0.925,0.633c0.036,0.32,0.121,0.634,0.251,0.924
		c0.557,1.24,1.844,2.012,3.358,2.012c0.128,0,0.255-0.006,0.379-0.019c0.474-0.044,0.894-0.149,1.277-0.273
		c0.005,0.005,0.009,0.011,0.013,0.016c0.012,0.164,0.039,0.328,0.08,0.488c0.188,0.734,0.647,1.357,1.294,1.754
		c0.111,0.069,0.229,0.131,0.35,0.186c0.259,0.775,0.955,1.333,1.773,1.408c0.205,0.104,0.429,0.164,0.656,0.177
		c0.015,0.027,0.027,0.056,0.041,0.083l0.02,0.037c0.271,0.559,0.848,0.917,1.466,0.917s1.194-0.358,1.467-0.917l0.019-0.036
		l0.042-0.084c0.228-0.013,0.453-0.071,0.655-0.177c0.818-0.075,1.516-0.633,1.773-1.408c0.12-0.055,0.237-0.115,0.35-0.186
		c0.646-0.396,1.105-1.02,1.294-1.754c0.042-0.16,0.068-0.323,0.08-0.488c0.004-0.005,0.009-0.011,0.012-0.016
		c0.386,0.124,0.805,0.229,1.277,0.273c0.124,0.013,0.252,0.019,0.38,0.019c1.515,0,2.802-0.771,3.358-2.012
		c0.13-0.29,0.215-0.604,0.25-0.924c0.358-0.121,0.682-0.341,0.926-0.633c0.467-0.23,0.818-0.641,0.979-1.133
		c3.642-1.604,6.921-3.854,9.749-6.689c2.936-2.941,5.241-6.371,6.853-10.188c0.657-1.56,1.179-3.194,1.577-4.878h-62.08
		C22.371,56.331,22.892,57.967,23.549,59.525z M34.852,54.684c3.043,7.128,10.032,12.093,18.309,12.093
		c8.275,0,15.151-4.965,18.137-12.093h8.948c-3.434,11.881-14.297,20.563-27.18,20.563c-12.881,0-23.745-8.684-27.177-20.563H34.852
		z"/>
	<path fill="#DCE6EF" d="M53.066,18.102c12.959,0,23.876,8.79,27.239,20.779h3.757c-0.4-1.638-0.928-3.256-1.587-4.816
		c-1.609-3.817-3.917-7.244-6.853-10.188c-2.828-2.835-6.107-5.085-9.749-6.689c-0.159-0.492-0.512-0.901-0.979-1.132
		c-0.244-0.292-0.566-0.513-0.926-0.634c-0.035-0.319-0.12-0.635-0.25-0.923c-0.558-1.241-1.845-2.012-3.358-2.012
		c-0.126,0-0.254,0.006-0.38,0.018c-0.475,0.044-0.894,0.151-1.277,0.275c-0.004-0.005-0.008-0.011-0.012-0.017
		c-0.012-0.164-0.038-0.327-0.08-0.487c-0.188-0.735-0.646-1.358-1.294-1.755c-0.112-0.069-0.229-0.131-0.35-0.186
		c-0.259-0.774-0.955-1.333-1.773-1.407c-0.202-0.104-0.429-0.165-0.655-0.178c-0.015-0.028-0.028-0.057-0.042-0.085l-0.019-0.036
		c-0.272-0.557-0.849-0.916-1.467-0.916s-1.194,0.359-1.466,0.916l-0.023,0.049c-0.012,0.022-0.023,0.048-0.036,0.072
		c-0.229,0.013-0.451,0.072-0.656,0.178c-0.819,0.074-1.516,0.633-1.773,1.407c-0.12,0.055-0.237,0.116-0.35,0.186
		c-0.646,0.396-1.105,1.02-1.294,1.755c-0.042,0.16-0.068,0.324-0.08,0.488c-0.004,0.005-0.008,0.01-0.013,0.016
		c-0.384-0.124-0.804-0.231-1.277-0.275c-0.125-0.011-0.252-0.018-0.379-0.018c-1.515,0-2.802,0.771-3.358,2.012
		c-0.129,0.289-0.214,0.604-0.25,0.923c-0.357,0.121-0.682,0.342-0.925,0.634c-0.467,0.23-0.818,0.64-0.978,1.132
		c-3.642,1.604-6.921,3.854-9.75,6.689c-2.937,2.943-5.241,6.37-6.853,10.188c-0.658,1.559-1.185,3.175-1.587,4.816h3.867
		C29.191,26.892,40.108,18.102,53.066,18.102z"/>
</g>
<path fill="#323232" d="M51.576,9.771c0.479,0.461,0.8,1.009,1.002,1.642c-0.154,0.114-0.317,0.167-0.472,0.281
	c0.444,0.632,0.762,1.353,0.932,2.105c0.17-0.754,0.487-1.474,0.931-2.105c-0.153-0.114-0.317-0.167-0.471-0.281
	c0.201-0.633,0.522-1.181,1.002-1.642c-0.479,0.264-0.888,0.649-1.177,1.112c0.284-0.469,0.188-1.076-0.019-1.585
	c-0.08-0.195-0.174-0.386-0.267-0.575c-0.094,0.189-0.188,0.38-0.268,0.575c-0.207,0.509-0.303,1.117-0.018,1.585
	C52.462,10.421,52.053,10.035,51.576,9.771z"/>
<path fill="#323232" d="M52.051,79.904c-0.113-0.592-0.468-1.117-0.974-1.441c-0.971-0.623-2.428-0.364-3.479-0.039
	c-0.201,0.062-0.397,0.134-0.59,0.202c-0.434,0.157-0.844,0.306-1.263,0.343c-0.483,0.046-1.098-0.112-1.301-0.565
	c-0.104-0.232-0.062-0.529,0.102-0.688c0.148-0.146,0.425-0.168,0.565-0.044c0.229,0.201,0.165,0.586-0.049,0.801
	c0.335-0.051,0.629-0.313,0.716-0.643c0.12-0.453-0.111-1.061-0.911-1.061c-0.326,0-0.658,0.12-0.899,0.356
	c-0.409,0.402-0.522,1.066-0.275,1.617c0.371,0.825,1.335,1.121,2.126,1.049c0.523-0.049,1.002-0.222,1.467-0.389
	c0.19-0.068,0.37-0.134,0.555-0.19c1.231-0.382,2.25-0.4,2.791-0.055c0.312,0.2,0.54,0.537,0.609,0.901
	c0.062,0.332-0.004,0.67-0.188,0.95c-0.136,0.208-0.344,0.354-0.586,0.406c-0.173,0.039-0.351,0.01-0.501-0.083
	c-0.104-0.062-0.175-0.161-0.205-0.276c-0.019-0.072-0.008-0.147,0.028-0.213c0.037-0.065,0.097-0.112,0.168-0.134
	c0.072,0.177,0.287,0.306,0.469,0.244c0.845-0.28,0.205-1.797-0.867-1.521c-0.414,0.106-0.812,0.351-0.953,0.755
	c0.321-0.231,0.733-0.334,1.125-0.279c0.005,0.001,0.012,0.001,0.018,0.003c-0.007,0.002-0.015,0.004-0.021,0.006
	c-0.277,0.081-0.51,0.265-0.654,0.518c-0.144,0.252-0.183,0.546-0.11,0.826c0.084,0.324,0.287,0.601,0.573,0.775
	c0.334,0.205,0.729,0.271,1.111,0.186c0.452-0.103,0.84-0.37,1.095-0.76C52.046,81,52.155,80.447,52.051,79.904z"/>
<circle fill="#323232" cx="51.017" cy="82.973" r="0.521"/>
<circle fill="#323232" cx="51.017" cy="10.386" r="0.521"/>
<path fill="#323232" d="M50.633,14.202c-0.541,0.347-1.558,0.328-2.791-0.055c-0.184-0.058-0.364-0.122-0.555-0.19
	c-0.464-0.167-0.943-0.34-1.467-0.388c-0.791-0.073-1.755,0.223-2.126,1.049c-0.246,0.55-0.134,1.215,0.275,1.617
	c0.241,0.237,0.573,0.357,0.899,0.357c0.799,0,1.03-0.607,0.911-1.061c-0.087-0.329-0.381-0.592-0.716-0.643
	c0.214,0.214,0.277,0.599,0.049,0.799c-0.142,0.125-0.417,0.104-0.565-0.043c-0.163-0.16-0.206-0.456-0.102-0.689
	c0.203-0.453,0.816-0.611,1.301-0.565c0.419,0.039,0.829,0.187,1.263,0.343c0.191,0.068,0.389,0.14,0.59,0.202
	c1.052,0.325,2.509,0.584,3.479-0.039c0.506-0.325,0.86-0.851,0.974-1.441c0.104-0.543-0.005-1.097-0.308-1.559
	c-0.254-0.389-0.644-0.657-1.095-0.759c-0.383-0.087-0.776-0.021-1.111,0.185c-0.286,0.175-0.489,0.451-0.573,0.776
	c-0.072,0.28-0.033,0.574,0.111,0.826c0.144,0.252,0.375,0.437,0.653,0.518c0.007,0.002,0.016,0.004,0.021,0.006
	c-0.005,0.001-0.011,0.002-0.018,0.002c-0.392,0.055-0.804-0.047-1.125-0.279c0.142,0.404,0.539,0.648,0.953,0.754
	c1.072,0.277,1.712-1.24,0.867-1.521c-0.182-0.061-0.396,0.067-0.469,0.245c-0.072-0.021-0.131-0.068-0.168-0.133
	c-0.037-0.065-0.047-0.141-0.028-0.212c0.03-0.116,0.104-0.216,0.205-0.278c0.151-0.092,0.329-0.122,0.501-0.083
	c0.242,0.054,0.45,0.198,0.586,0.406c0.186,0.281,0.251,0.619,0.188,0.95C51.173,13.665,50.945,14.001,50.633,14.202z"/>
<path fill="#323232" d="M55.442,79.157c0.541-0.347,1.559-0.327,2.791,0.055c0.184,0.058,0.363,0.122,0.555,0.19
	c0.464,0.167,0.942,0.34,1.467,0.389c0.791,0.072,1.755-0.224,2.126-1.049c0.247-0.551,0.135-1.215-0.274-1.617
	c-0.24-0.236-0.571-0.356-0.898-0.356c-0.799,0-1.031,0.606-0.911,1.061c0.087,0.328,0.381,0.592,0.716,0.643
	c-0.214-0.215-0.276-0.6-0.049-0.801c0.142-0.124,0.417-0.104,0.565,0.044c0.162,0.159,0.206,0.456,0.102,0.688
	c-0.203,0.453-0.816,0.611-1.3,0.565c-0.419-0.037-0.829-0.186-1.264-0.343c-0.19-0.068-0.39-0.14-0.59-0.202
	c-1.052-0.325-2.509-0.584-3.479,0.039c-0.506,0.324-0.86,0.851-0.975,1.441c-0.104,0.543,0.005,1.096,0.309,1.559
	c0.254,0.39,0.643,0.657,1.095,0.76c0.383,0.086,0.777,0.021,1.111-0.186c0.286-0.176,0.488-0.451,0.571-0.775
	c0.072-0.28,0.033-0.574-0.109-0.826c-0.145-0.253-0.375-0.437-0.653-0.518c-0.008-0.002-0.015-0.004-0.021-0.006
	c0.005-0.002,0.011-0.002,0.017-0.003c0.393-0.055,0.804,0.048,1.125,0.279c-0.141-0.404-0.539-0.647-0.952-0.755
	c-1.072-0.276-1.712,1.239-0.867,1.521c0.183,0.062,0.396-0.066,0.47-0.244c0.071,0.021,0.132,0.067,0.169,0.134
	c0.036,0.064,0.047,0.141,0.027,0.213c-0.029,0.115-0.103,0.215-0.205,0.276c-0.149,0.093-0.328,0.122-0.502,0.083
	c-0.24-0.054-0.448-0.198-0.586-0.406c-0.184-0.28-0.251-0.618-0.188-0.95C54.902,79.694,55.13,79.357,55.442,79.157z"/>
<circle fill="#323232" cx="55.059" cy="82.973" r="0.459"/>
<path fill="#323232" d="M54.5,83.588c-0.479-0.461-0.801-1.009-1.002-1.643c0.152-0.113,0.316-0.166,0.471-0.28
	c-0.443-0.632-0.761-1.353-0.931-2.105c-0.17,0.754-0.487,1.475-0.932,2.105c0.154,0.114,0.317,0.167,0.472,0.28
	c-0.202,0.634-0.523,1.182-1.002,1.643c0.478-0.264,0.887-0.649,1.177-1.112c-0.285,0.469-0.188,1.077,0.018,1.586
	c0.079,0.194,0.174,0.386,0.268,0.575c0.093-0.189,0.188-0.381,0.267-0.575c0.207-0.509,0.303-1.117,0.019-1.586
	C53.613,82.938,54.022,83.324,54.5,83.588z"/>
<circle fill="#323232" cx="55.059" cy="10.385" r="0.458"/>
<path fill="#323232" d="M54.332,11.896c-0.304,0.462-0.412,1.016-0.309,1.559c0.113,0.591,0.469,1.117,0.975,1.441
	c0.97,0.623,2.427,0.364,3.479,0.039c0.2-0.062,0.398-0.134,0.59-0.202c0.435-0.157,0.845-0.306,1.264-0.343
	c0.482-0.044,1.097,0.113,1.3,0.565c0.104,0.233,0.062,0.529-0.102,0.689c-0.148,0.146-0.425,0.168-0.565,0.043
	c-0.229-0.2-0.165-0.585,0.049-0.799c-0.335,0.051-0.629,0.313-0.716,0.643c-0.12,0.453,0.112,1.061,0.911,1.061
	c0.327,0,0.658-0.12,0.898-0.357c0.409-0.402,0.521-1.067,0.274-1.617c-0.371-0.826-1.335-1.122-2.126-1.049
	c-0.523,0.048-1.003,0.221-1.467,0.388c-0.19,0.069-0.371,0.134-0.555,0.19c-1.232,0.382-2.25,0.401-2.791,0.055
	c-0.312-0.2-0.54-0.537-0.608-0.902c-0.063-0.331,0.004-0.669,0.188-0.95c0.138-0.208,0.346-0.353,0.586-0.406
	c0.173-0.039,0.353-0.009,0.502,0.083c0.104,0.062,0.176,0.162,0.205,0.278c0.02,0.071,0.008,0.146-0.027,0.212
	c-0.037,0.064-0.098,0.111-0.169,0.133c-0.073-0.177-0.287-0.306-0.47-0.245c-0.845,0.28-0.205,1.797,0.867,1.521
	c0.413-0.105,0.812-0.35,0.952-0.754c-0.321,0.232-0.732,0.334-1.125,0.279c-0.006,0-0.012-0.001-0.017-0.002l0.021-0.006
	c0.278-0.081,0.51-0.266,0.653-0.518s0.183-0.546,0.109-0.826c-0.083-0.325-0.286-0.602-0.571-0.776
	c-0.334-0.205-0.729-0.271-1.111-0.185C54.975,11.239,54.586,11.508,54.332,11.896z"/>
<path fill="#323232" d="M52.266,78.789c0.279,0.014,0.562-0.087,0.772-0.27c0.211,0.183,0.492,0.282,0.771,0.27
	c0.335-0.017,0.657-0.197,0.848-0.474c0.178-0.259,0.227-0.631,0.032-0.877c-0.087,0.146-0.159,0.274-0.245,0.423
	c-0.061-0.152-0.119-0.305-0.181-0.457c-0.001,0.26-0.157,0.512-0.388,0.63c-0.123-0.129-0.188-0.312-0.169-0.489
	c0.017-0.178,0.114-0.346,0.261-0.446c-0.203-0.115-0.387-0.261-0.551-0.424c0.021-0.011,0.037-0.029,0.037-0.056l-0.003-0.24
	l-0.127,0.002l0.001,0.193c-0.105-0.117-0.204-0.24-0.287-0.373c-0.083,0.134-0.183,0.258-0.289,0.375l0.002-0.195l-0.127-0.002
	l-0.003,0.24c0,0.026,0.017,0.045,0.038,0.057c-0.164,0.162-0.349,0.308-0.551,0.423c0.146,0.102,0.244,0.27,0.262,0.446
	c0.018,0.179-0.046,0.36-0.169,0.489c-0.23-0.118-0.387-0.37-0.389-0.63l-0.18,0.457c-0.086-0.147-0.159-0.275-0.245-0.423
	c-0.194,0.246-0.145,0.618,0.033,0.877C51.609,78.592,51.931,78.772,52.266,78.789z"/>
<path fill="#323232" d="M53.81,14.57c-0.279-0.013-0.561,0.087-0.771,0.27c-0.211-0.183-0.493-0.282-0.772-0.27
	c-0.334,0.017-0.657,0.197-0.847,0.473c-0.177,0.259-0.228,0.631-0.033,0.877c0.086-0.146,0.159-0.274,0.245-0.423l0.18,0.457
	c0.002-0.259,0.157-0.511,0.389-0.629c0.124,0.129,0.187,0.312,0.169,0.49c-0.018,0.177-0.115,0.345-0.262,0.447
	c0.202,0.114,0.387,0.258,0.551,0.421c-0.021,0.011-0.038,0.029-0.038,0.057l0.003,0.239l0.127-0.001l-0.002-0.195
	c0.105,0.118,0.206,0.241,0.289,0.375c0.083-0.134,0.182-0.256,0.287-0.374l-0.002,0.193l0.128,0.001l0.003-0.239
	c0-0.026-0.017-0.045-0.036-0.056c0.164-0.164,0.347-0.308,0.55-0.423c-0.146-0.102-0.244-0.27-0.261-0.446
	c-0.019-0.177,0.046-0.361,0.169-0.49c0.229,0.118,0.387,0.37,0.388,0.629l0.181-0.457c0.086,0.147,0.158,0.276,0.245,0.423
	c0.193-0.246,0.146-0.619-0.033-0.877C54.467,14.767,54.145,14.586,53.81,14.57z"/>
<path fill="#323232" d="M23.922,34.097c1.592-3.771,3.87-7.156,6.771-10.062c2.842-2.847,6.143-5.096,9.812-6.685l0.194-0.084
	l0.042-0.208c0.072-0.36,0.328-0.676,0.667-0.82l0.1-0.042l0.064-0.087c0.195-0.26,0.49-0.439,0.81-0.492l0.335-0.055l0.004-0.341
	c0.004-0.321,0.074-0.643,0.203-0.929c0.432-0.962,1.453-1.559,2.664-1.559c0.104,0,0.208,0.004,0.311,0.014
	c0.528,0.049,0.996,0.194,1.421,0.344l0.36,0.126l0.147-0.353c0.036-0.087,0.087-0.167,0.15-0.238l0.103-0.112l0.002-0.152
	c0.003-0.151,0.023-0.304,0.062-0.453c0.14-0.539,0.477-0.997,0.95-1.287c0.129-0.079,0.268-0.146,0.41-0.199l0.207-0.076
	l0.047-0.217c0.124-0.559,0.628-0.983,1.2-1.009l0.101-0.005l0.087-0.051c0.164-0.097,0.355-0.135,0.541-0.11l0.296,0.04
	l0.125-0.271c0.05-0.106,0.1-0.208,0.146-0.304l0.023-0.048c0.142-0.288,0.439-0.474,0.76-0.474s0.618,0.186,0.76,0.475l0.018,0.038
	c0.048,0.098,0.101,0.203,0.15,0.313l0.126,0.271l0.296-0.04c0.186-0.023,0.378,0.015,0.541,0.11l0.087,0.051l0.102,0.005
	c0.57,0.025,1.075,0.45,1.198,1.009l0.048,0.217l0.207,0.076c0.144,0.054,0.28,0.121,0.409,0.2c0.476,0.291,0.812,0.748,0.95,1.288
	c0.038,0.148,0.06,0.301,0.062,0.453l0.003,0.152l0.102,0.112c0.063,0.071,0.114,0.151,0.151,0.238l0.146,0.354l0.36-0.127
	c0.426-0.149,0.893-0.295,1.421-0.344c0.102-0.009,0.206-0.014,0.311-0.014c1.211,0,2.232,0.597,2.664,1.559
	c0.129,0.287,0.199,0.607,0.202,0.93l0.005,0.341l0.335,0.055c0.318,0.052,0.613,0.231,0.81,0.492l0.064,0.087l0.1,0.042
	c0.34,0.146,0.596,0.459,0.668,0.82l0.042,0.208l0.193,0.084c3.669,1.589,6.971,3.838,9.812,6.685
	c2.9,2.907,5.18,6.292,6.771,10.062c0.664,1.574,1.195,3.206,1.595,4.854h0.833c-0.414-1.759-0.976-3.497-1.682-5.171
	c-1.633-3.867-3.969-7.339-6.944-10.32c-2.866-2.873-6.189-5.15-9.882-6.776c-0.16-0.499-0.518-0.914-0.989-1.147
	c-0.246-0.295-0.575-0.519-0.938-0.641c-0.036-0.325-0.122-0.644-0.254-0.937c-0.563-1.256-1.868-2.037-3.402-2.037
	c-0.129,0-0.258,0.007-0.385,0.019c-0.48,0.044-0.906,0.153-1.296,0.278l-0.012-0.017c-0.012-0.167-0.039-0.333-0.081-0.495
	c-0.19-0.744-0.657-1.375-1.312-1.776c-0.113-0.07-0.231-0.133-0.354-0.188c-0.263-0.785-0.968-1.349-1.797-1.426
	c-0.208-0.106-0.437-0.167-0.667-0.179c-0.015-0.029-0.028-0.059-0.042-0.085l-0.019-0.037c-0.275-0.563-0.858-0.929-1.486-0.929
	c-0.626,0-1.21,0.364-1.486,0.929l-0.024,0.048c-0.012,0.023-0.023,0.049-0.035,0.074c-0.231,0.012-0.46,0.072-0.667,0.179
	c-0.83,0.077-1.535,0.641-1.798,1.426c-0.122,0.055-0.24,0.118-0.354,0.188c-0.655,0.401-1.121,1.032-1.312,1.776
	c-0.042,0.163-0.068,0.329-0.081,0.495l-0.012,0.017c-0.39-0.125-0.814-0.234-1.296-0.278c-0.126-0.012-0.256-0.019-0.385-0.019
	c-1.534,0-2.838,0.781-3.403,2.037c-0.131,0.293-0.218,0.612-0.254,0.937c-0.363,0.123-0.691,0.346-0.938,0.641
	c-0.474,0.234-0.829,0.648-0.99,1.147c-3.69,1.625-7.015,3.903-9.881,6.776c-2.977,2.981-5.312,6.453-6.944,10.32
	c-0.706,1.672-1.266,3.408-1.681,5.171h0.832C22.728,37.3,23.259,35.669,23.922,34.097z"/>
<path fill="#323232" d="M82.151,59.262c-1.592,3.77-3.87,7.154-6.771,10.062c-2.841,2.846-6.143,5.095-9.812,6.684l-0.193,0.084
	l-0.042,0.209c-0.072,0.36-0.328,0.676-0.668,0.819l-0.1,0.043l-0.064,0.087c-0.195,0.26-0.49,0.439-0.81,0.491l-0.335,0.056
	l-0.005,0.34c-0.003,0.321-0.073,0.644-0.202,0.93c-0.432,0.962-1.453,1.56-2.664,1.56c-0.104,0-0.21-0.006-0.311-0.015
	c-0.527-0.048-0.995-0.194-1.422-0.344l-0.359-0.126l-0.146,0.352c-0.037,0.088-0.088,0.168-0.151,0.238l-0.102,0.112l-0.003,0.152
	c-0.004,0.15-0.024,0.303-0.062,0.452c-0.139,0.54-0.476,0.997-0.949,1.288c-0.13,0.078-0.268,0.146-0.41,0.199l-0.207,0.075
	l-0.048,0.217c-0.123,0.56-0.628,0.983-1.198,1.01l-0.102,0.005l-0.087,0.051c-0.164,0.098-0.354,0.135-0.541,0.111l-0.296-0.041
	l-0.126,0.271c-0.051,0.11-0.103,0.216-0.15,0.314l-0.019,0.037c-0.142,0.287-0.439,0.474-0.759,0.474
	c-0.32,0-0.618-0.187-0.76-0.474l-0.021-0.047c-0.048-0.099-0.098-0.199-0.147-0.306l-0.125-0.271l-0.296,0.041
	c-0.186,0.022-0.377-0.015-0.541-0.111l-0.087-0.051l-0.101-0.005c-0.571-0.025-1.076-0.45-1.2-1.01l-0.047-0.217l-0.207-0.075
	c-0.144-0.055-0.281-0.121-0.41-0.199c-0.475-0.291-0.812-0.748-0.951-1.288c-0.038-0.149-0.059-0.302-0.062-0.452l-0.002-0.152
	l-0.103-0.112c-0.063-0.07-0.115-0.15-0.15-0.238L47.68,80.14l-0.36,0.126c-0.427,0.148-0.894,0.296-1.421,0.344
	c-0.101,0.009-0.206,0.015-0.311,0.015c-1.211,0-2.232-0.598-2.664-1.56c-0.129-0.286-0.199-0.607-0.203-0.93l-0.004-0.34
	l-0.335-0.056c-0.319-0.052-0.613-0.231-0.81-0.491l-0.064-0.087l-0.1-0.043c-0.34-0.145-0.596-0.459-0.667-0.819l-0.042-0.209
	l-0.194-0.084c-3.669-1.589-6.97-3.838-9.812-6.684c-2.9-2.907-5.18-6.293-6.771-10.062c-0.625-1.479-1.13-3.028-1.519-4.626h-0.829
	c0.402,1.706,0.936,3.362,1.602,4.941c1.632,3.867,3.969,7.339,6.944,10.32c2.866,2.872,6.189,5.15,9.881,6.775
	c0.161,0.499,0.517,0.914,0.99,1.147c0.246,0.296,0.575,0.519,0.938,0.642c0.036,0.324,0.123,0.644,0.254,0.937
	c0.564,1.257,1.868,2.037,3.402,2.037c0.13,0,0.26-0.006,0.385-0.019c0.48-0.044,0.906-0.151,1.296-0.276
	c0.003,0.005,0.008,0.01,0.012,0.016c0.013,0.166,0.039,0.332,0.081,0.494c0.191,0.744,0.657,1.376,1.312,1.776
	c0.114,0.07,0.231,0.134,0.354,0.188c0.263,0.785,0.968,1.35,1.798,1.426c0.208,0.106,0.435,0.168,0.667,0.181
	c0.014,0.026,0.026,0.056,0.042,0.084l0.018,0.038c0.276,0.562,0.86,0.929,1.486,0.929c0.627,0,1.21-0.365,1.486-0.93l0.02-0.036
	c0.014-0.028,0.026-0.057,0.041-0.085c0.23-0.013,0.459-0.073,0.667-0.181c0.829-0.076,1.534-0.641,1.797-1.426
	c0.122-0.055,0.241-0.117,0.354-0.188c0.655-0.4,1.121-1.032,1.312-1.776c0.042-0.162,0.069-0.328,0.081-0.494l0.012-0.016
	c0.391,0.125,0.815,0.232,1.296,0.276c0.125,0.013,0.255,0.019,0.385,0.019c1.534,0,2.839-0.78,3.402-2.037
	c0.132-0.293,0.218-0.611,0.254-0.937c0.363-0.123,0.692-0.346,0.938-0.642c0.473-0.233,0.829-0.648,0.989-1.147
	c3.691-1.625,7.016-3.903,9.882-6.775c2.977-2.981,5.312-6.453,6.944-10.32c0.667-1.579,1.198-3.235,1.603-4.941h-0.83
	C83.282,56.232,82.776,57.781,82.151,59.262z"/>
<g opacity="0.4">
	<path fill="#323232" d="M68.415,17.953c0.085,0.046,0.169,0.093,0.253,0.14l0.077-0.158l2.384-4.888l2.391-4.883V8.163l0.001-0.002
		l0.006-0.04l0.011-0.039c0.005-0.012,0.009-0.023,0.013-0.037c0.005-0.012,0.01-0.023,0.016-0.037
		c0.012-0.022,0.022-0.047,0.035-0.069s0.026-0.045,0.04-0.067c0.027-0.045,0.056-0.089,0.081-0.136
		c0.012-0.023,0.024-0.047,0.035-0.071l0.015-0.037l0.014-0.038L73.77,7.625l-0.016,0.037c-0.012,0.023-0.023,0.047-0.037,0.07
		c-0.026,0.045-0.055,0.088-0.083,0.133c-0.015,0.021-0.028,0.044-0.042,0.066s-0.025,0.047-0.037,0.069
		c-0.006,0.013-0.012,0.025-0.017,0.037c-0.005,0.013-0.011,0.025-0.016,0.039l-0.011,0.039l-0.007,0.039l-2.502,4.805l-2.495,4.812
		L68.415,17.953z"/>
	<path fill="#323232" d="M71.791,20.1c0.084,0.061,0.169,0.119,0.253,0.182l1.216-1.877l0.702-1.085l0.087-0.136l0.044-0.068
		l0.022-0.033c0.001-0.002,0.005-0.009,0.004-0.006l0.005-0.008l0.012-0.019l0.182-0.268l0.357-0.537
		c0.118-0.18,0.236-0.357,0.356-0.536l0.09-0.133l0.046-0.066l0.013-0.019l0.011-0.017l0.021-0.034l0.176-0.271l0.702-1.084
		l2.808-4.34l-2.902,4.252l-0.727,1.063l-0.182,0.266l-0.022,0.033l-0.012,0.017l-0.011,0.016l-0.047,0.064l-0.094,0.131
		c-0.125,0.175-0.248,0.351-0.369,0.525l-0.368,0.525l-0.188,0.261l-0.012,0.017l-0.013,0.02l-0.022,0.032l-0.046,0.067
		l-0.091,0.133l-0.726,1.062L71.791,20.1z"/>
	<path fill="#323232" d="M53.333,7.642L53.248,0l-0.053,4.67L53.145,0l-0.083,7.411C53.158,7.48,53.253,7.552,53.333,7.642z"/>
	<path fill="#323232" d="M61.873,12.236l1.846-8.746l-2.048,8.677C61.737,12.191,61.808,12.209,61.873,12.236z"/>
	<path fill="#323232" d="M57.729,10.202l0.896-9.484l-1.09,9.27C57.604,10.056,57.67,10.126,57.729,10.202z"/>
	<path fill="#323232" d="M65.223,15.77l0.461-1.356l2.911-8.562l-3.112,8.465l-0.479,1.307
		C65.078,15.669,65.154,15.715,65.223,15.77z"/>
	<path fill="#323232" d="M77.875,25.823l11.149-10.41L77.632,25.539C77.712,25.634,77.796,25.727,77.875,25.823z"/>
	<path fill="#323232" d="M84.786,38.26l18.076-5.758l-18.744,5.475c0.024,0.093,0.047,0.188,0.069,0.281
		C84.388,38.258,84.586,38.259,84.786,38.26z"/>
	<path fill="#323232" d="M82.681,33.781c0.005,0.012,0.01,0.025,0.015,0.037l15.5-7.741l-15.675,7.349
		C82.572,33.545,82.63,33.661,82.681,33.781z"/>
	<path fill="#323232" d="M80.51,29.539l13.465-9.461l-13.682,9.121C80.364,29.313,80.44,29.424,80.51,29.539z"/>
	<path fill="#323232" d="M75.022,22.778l9.033-10.821L74.772,22.54C74.857,22.618,74.938,22.7,75.022,22.778z"/>
	<path fill="#323232" d="M28.969,24.445l-10.162-9.032l9.938,9.276C28.818,24.607,28.894,24.526,28.969,24.445z"/>
	<path fill="#323232" d="M23.503,32.579L9.636,26.077l13.711,6.847C23.4,32.81,23.449,32.693,23.503,32.579z"/>
	<path fill="#323232" d="M26.008,28.179l-12.151-8.102l11.953,8.399C25.875,28.377,25.94,28.277,26.008,28.179z"/>
	<path fill="#323232" d="M49.861,8.551l-0.873-7.42l0.711,7.517C49.752,8.613,49.805,8.58,49.861,8.551z"/>
	<path fill="#323232" d="M21.693,37.385L4.968,32.502l16.604,5.289C21.61,37.655,21.654,37.521,21.693,37.385z"/>
	<path fill="#323232" d="M42.118,13.688l-2.882-7.836l2.747,8.081C42.023,13.847,42.072,13.769,42.118,13.688z"/>
	<path fill="#323232" d="M32.104,21.451l-8.328-9.494l8.096,9.697C31.949,21.587,32.024,21.517,32.104,21.451z"/>
	<path fill="#323232" d="M46.121,11.998L44.113,3.49l1.788,8.473C45.977,11.972,46.048,11.986,46.121,11.998z"/>
	<path fill="#323232" d="M32.444,15.17l0.177,0.271l0.021,0.034l0.012,0.017l0.013,0.019l0.046,0.066l0.09,0.133
		c0.12,0.179,0.238,0.356,0.357,0.536l0.356,0.537l0.181,0.268l0.013,0.019l0.006,0.008c-0.002-0.003,0.002,0.004,0.003,0.006
		l0.021,0.033l0.045,0.068l0.087,0.136l0.701,1.085l0.537,0.828c0.078-0.051,0.156-0.104,0.235-0.153l-0.58-0.849l-0.726-1.062
		l-0.092-0.133l-0.045-0.067l-0.022-0.032l-0.013-0.02L33.854,16.9l-0.187-0.261l-0.368-0.525c-0.122-0.176-0.245-0.352-0.369-0.525
		l-0.094-0.131l-0.047-0.064l-0.012-0.016l-0.012-0.017l-0.021-0.033l-0.183-0.266l-0.726-1.063l-2.902-4.252l2.809,4.34
		L32.444,15.17z"/>
	<path fill="#323232" d="M34.077,7.663c0.011,0.024,0.021,0.048,0.034,0.071c0.025,0.047,0.054,0.091,0.08,0.136
		c0.015,0.022,0.027,0.045,0.04,0.067c0.014,0.022,0.024,0.047,0.035,0.069c0.006,0.014,0.011,0.025,0.017,0.037
		c0.005,0.014,0.009,0.025,0.013,0.037l0.01,0.039l0.006,0.04l0.001,0.002v0.001l2.392,4.883l2.018,4.138
		c0.079-0.039,0.16-0.074,0.239-0.112l-2.132-4.11l-2.502-4.805L34.32,8.117l-0.011-0.039c-0.005-0.014-0.009-0.026-0.015-0.039
		c-0.005-0.012-0.01-0.024-0.017-0.037c-0.012-0.022-0.023-0.047-0.037-0.069c-0.015-0.022-0.027-0.045-0.041-0.066
		c-0.028-0.045-0.059-0.088-0.084-0.133C34.102,7.709,34.089,7.686,34.077,7.663l-0.016-0.038l-0.014-0.037l0.013,0.038
		L34.077,7.663z"/>
</g>
<g opacity="0.4">
	<path fill="#323232" d="M68.415,75.004c0.085-0.047,0.169-0.093,0.253-0.14l0.077,0.159l2.384,4.887l2.391,4.883l0,0l0.001,0.002
		l0.006,0.041l0.011,0.039c0.005,0.013,0.009,0.023,0.013,0.037c0.005,0.012,0.01,0.023,0.016,0.037
		c0.012,0.023,0.022,0.047,0.035,0.07c0.013,0.021,0.026,0.045,0.04,0.065c0.027,0.045,0.056,0.09,0.081,0.138
		c0.012,0.022,0.024,0.047,0.035,0.069l0.015,0.037l0.014,0.039l-0.015-0.037l-0.016-0.037c-0.012-0.022-0.023-0.047-0.037-0.069
		c-0.026-0.045-0.055-0.089-0.083-0.134c-0.015-0.021-0.028-0.045-0.042-0.065c-0.014-0.023-0.025-0.047-0.037-0.07
		c-0.006-0.012-0.012-0.024-0.017-0.037c-0.005-0.014-0.011-0.024-0.016-0.039l-0.011-0.039l-0.007-0.039l-2.502-4.805l-2.495-4.811
		L68.415,75.004z"/>
	<path fill="#323232" d="M71.791,72.856c0.084-0.062,0.169-0.12,0.253-0.183l1.216,1.878l0.702,1.084l0.087,0.138l0.044,0.067
		l0.022,0.033c0.001,0.002,0.005,0.008,0.004,0.006l0.005,0.009l0.012,0.018l0.182,0.268l0.357,0.537
		c0.118,0.181,0.236,0.357,0.356,0.535l0.09,0.133l0.046,0.066l0.013,0.02l0.011,0.017l0.021,0.035l0.176,0.271l0.702,1.084
		l2.808,4.34l-2.902-4.252l-0.727-1.063l-0.182-0.267l-0.022-0.032l-0.012-0.017l-0.011-0.016L74.995,77.5l-0.094-0.131
		c-0.125-0.174-0.248-0.35-0.369-0.525l-0.368-0.524l-0.188-0.262l-0.012-0.017l-0.013-0.02l-0.022-0.033l-0.046-0.066l-0.091-0.133
		l-0.726-1.062L71.791,72.856z"/>
	<path fill="#323232" d="M53.333,85.876l-0.085,7.644l-0.053-4.67l-0.052,4.67l-0.083-7.412
		C53.158,86.038,53.253,85.966,53.333,85.876z"/>
	<path fill="#323232" d="M61.873,80.721l1.846,8.745l-2.048-8.678C61.737,80.766,61.808,80.748,61.873,80.721z"/>
	<path fill="#323232" d="M57.729,82.775l0.896,9.483l-1.09-9.27C57.604,82.921,57.67,82.851,57.729,82.775z"/>
	<path fill="#323232" d="M65.223,77.187l0.461,1.355l2.911,8.562l-3.112-8.465l-0.479-1.308
		C65.078,77.287,65.154,77.242,65.223,77.187z"/>
	<path fill="#323232" d="M77.875,67.134l11.149,10.409L77.632,67.418C77.712,67.322,77.796,67.229,77.875,67.134z"/>
	<path fill="#323232" d="M84.786,54.696l18.076,5.759L84.118,54.98c0.024-0.095,0.047-0.188,0.069-0.281
		C84.388,54.698,84.586,54.697,84.786,54.696z"/>
	<path fill="#323232" d="M82.681,59.176c0.005-0.012,0.01-0.024,0.015-0.036l15.5,7.739l-15.675-7.348
		C82.572,59.412,82.63,59.295,82.681,59.176z"/>
	<path fill="#323232" d="M80.51,63.418l13.465,9.461l-13.682-9.121C80.364,63.643,80.44,63.532,80.51,63.418z"/>
	<path fill="#323232" d="M75.022,70.177L84.056,81l-9.283-10.583C74.857,70.339,74.938,70.257,75.022,70.177z"/>
	<path fill="#323232" d="M28.969,68.512l-10.162,9.03l9.938-9.274C28.818,68.35,28.894,68.43,28.969,68.512z"/>
	<path fill="#323232" d="M23.503,60.378L9.636,66.879l13.711-6.847C23.4,60.146,23.449,60.264,23.503,60.378z"/>
	<path fill="#323232" d="M26.008,64.777l-12.151,8.102L25.81,64.48C25.875,64.579,25.94,64.68,26.008,64.777z"/>
	<path fill="#323232" d="M49.861,84.405l-0.873,7.421l0.711-7.516C49.752,84.344,49.805,84.377,49.861,84.405z"/>
	<path fill="#323232" d="M21.693,55.57L4.968,60.455l16.604-5.289C21.61,55.301,21.654,55.436,21.693,55.57z"/>
	<path fill="#323232" d="M42.118,79.269l-2.882,7.837l2.747-8.081C42.023,79.109,42.072,79.188,42.118,79.269z"/>
	<path fill="#323232" d="M32.104,71.506L23.776,81l8.096-9.697C31.949,71.369,32.024,71.439,32.104,71.506z"/>
	<path fill="#323232" d="M46.121,80.959l-2.009,8.508l1.788-8.473C45.977,80.984,46.048,80.971,46.121,80.959z"/>
	<path fill="#323232" d="M32.444,77.787l0.177-0.271l0.021-0.035l0.012-0.017l0.013-0.02l0.046-0.066l0.09-0.133
		c0.12-0.178,0.238-0.354,0.357-0.535l0.356-0.537l0.181-0.268l0.013-0.018l0.006-0.009c-0.002,0.002,0.002-0.004,0.003-0.006
		l0.021-0.033l0.045-0.067l0.087-0.138l0.701-1.084l0.537-0.827c0.078,0.051,0.156,0.102,0.235,0.151l-0.58,0.851l-0.726,1.062
		l-0.092,0.133l-0.045,0.066l-0.022,0.033l-0.013,0.02l-0.013,0.017l-0.187,0.262l-0.368,0.524
		c-0.122,0.177-0.245,0.353-0.369,0.525L32.836,77.5l-0.047,0.064l-0.012,0.016l-0.012,0.017l-0.021,0.032l-0.183,0.267
		l-0.726,1.063l-2.902,4.252l2.809-4.34L32.444,77.787z"/>
	<path fill="#323232" d="M34.077,85.293c0.011-0.022,0.021-0.047,0.034-0.069c0.025-0.048,0.054-0.093,0.08-0.138
		c0.015-0.021,0.027-0.045,0.04-0.065c0.014-0.023,0.024-0.047,0.035-0.07c0.006-0.014,0.011-0.025,0.017-0.037
		c0.005-0.014,0.009-0.024,0.013-0.037l0.01-0.039l0.006-0.041l0.001-0.002l0,0l2.392-4.883l2.018-4.137
		c0.079,0.038,0.16,0.074,0.239,0.11l-2.132,4.111l-2.502,4.805L34.32,84.84l-0.011,0.039c-0.005,0.015-0.009,0.025-0.015,0.039
		c-0.005,0.013-0.01,0.025-0.017,0.037c-0.012,0.023-0.023,0.047-0.037,0.07c-0.015,0.021-0.027,0.045-0.041,0.065
		c-0.028,0.045-0.059,0.089-0.084,0.134C34.102,85.247,34.09,85.271,34.077,85.293l-0.016,0.038l-0.014,0.037l0.013-0.039
		L34.077,85.293z"/>
</g>
<path fill="#323232" d="M52.793,30.768c-0.036,0.107-0.073,0.216-0.11,0.323c-0.035,0.104-0.071,0.205-0.104,0.309
	c-0.16,0.483-0.312,1.015-0.283,1.533c-0.205-0.052-0.437-0.058-0.679-0.014c-0.114,0.021-0.205,0.105-0.23,0.216
	s0.02,0.226,0.114,0.291c0.706,0.489,1.278,1.607,1.278,2.491c0,0.155,0.132,0.281,0.29,0.281c0.16,0,0.29-0.126,0.29-0.281
	c0-0.884,0.573-2.002,1.279-2.491c0.095-0.065,0.14-0.18,0.114-0.291c-0.026-0.11-0.116-0.194-0.23-0.216
	c-0.242-0.043-0.473-0.038-0.68,0.014c0.03-0.519-0.122-1.05-0.282-1.533c-0.034-0.102-0.068-0.203-0.104-0.306
	c-0.038-0.108-0.075-0.218-0.11-0.326c-0.039-0.117-0.15-0.196-0.276-0.196S52.832,30.651,52.793,30.768z M53.109,33.459
	c-0.074,0.134-0.025,0.304,0.109,0.379c0.076,0.042,0.164,0.048,0.24,0.021c-0.151,0.229-0.283,0.477-0.391,0.731
	c-0.105-0.255-0.237-0.503-0.39-0.731c0.076,0.025,0.164,0.021,0.24-0.021c0.136-0.075,0.185-0.245,0.108-0.379
	c-0.274-0.492-0.142-1.122,0.04-1.701C53.25,32.337,53.384,32.967,53.109,33.459z M39.406,37.529
	c-0.033,0.537,0.207,1.077,0.66,1.37c0.04,0.025,0.087,0.037,0.129,0.058h1.296c0.087-0.042,0.18-0.076,0.256-0.136
	c0.262-0.206,0.429-0.498,0.47-0.822c0.035-0.273-0.04-0.547-0.211-0.768c-0.146-0.188-0.358-0.312-0.598-0.349
	c-0.207-0.031-0.415,0.017-0.586,0.134s-0.286,0.292-0.324,0.492c-0.021,0.104-0.016,0.211,0.015,0.312
	c0.05,0.171,0.165,0.313,0.323,0.402c0.14,0.078,0.303,0.101,0.459,0.062c0.126-0.031,0.234-0.103,0.311-0.204
	c-0.044,0.117-0.12,0.221-0.222,0.3c-0.271,0.213-0.709,0.233-0.997,0.047c-0.356-0.229-0.511-0.735-0.351-1.149
	c0.155-0.404,0.596-0.713,1.07-0.751c0.444-0.037,0.869,0.127,1.306,0.343l0.003,0.001c0.13,0.065,0.262,0.134,0.396,0.204
	c0.137,0.073,0.274,0.145,0.411,0.213c0.155,0.077,0.312,0.133,0.468,0.196c0.005,0.003,0.005,0.011,0.012,0.014
	c0.297,0.177,0.529,0.636,0.597,0.979c0.02,0.1,0.092,0.181,0.19,0.213c0.03,0.01,0.062,0.016,0.095,0.016
	c0.068,0,0.138-0.023,0.19-0.071c0.463-0.397,0.975-0.633,1.518-0.699c0.006,0,0.008-0.008,0.014-0.009
	c0.035-0.003,0.071,0.001,0.105-0.002l0.075-0.009c0.159-0.019,0.271-0.16,0.251-0.313c-0.02-0.154-0.164-0.265-0.322-0.245
	l-0.067,0.008c-0.772,0.081-1.599-0.067-2.415-0.397c0.185-0.085,0.352-0.191,0.478-0.332c0.275-0.304,0.38-0.717,0.27-1.076
	c-0.126-0.414-0.542-0.706-0.962-0.684c-0.369,0.022-0.703,0.276-0.831,0.632c-0.003,0.01,0.004,0.018,0.001,0.025
	c-0.01,0.037,0,0.068,0.006,0.106c0.005,0.036,0.005,0.068,0.024,0.101c0.004,0.008,0,0.018,0.006,0.025
	c0.019,0.024,0.05,0.026,0.074,0.044c0.023,0.018,0.036,0.047,0.064,0.057c0.009,0.003,0.019-0.003,0.026-0.001
	c0.037,0.009,0.07-0.001,0.107-0.006c0.038-0.006,0.072-0.005,0.104-0.024c0.008-0.004,0.018,0,0.026-0.006
	c0.014-0.01,0.031-0.014,0.048-0.012c0.041,0.006,0.076,0.025,0.101,0.058c0.042,0.054,0.062,0.121,0.053,0.188
	c-0.012,0.103-0.063,0.194-0.146,0.26c-0.117,0.093-0.265,0.138-0.416,0.126c-0.208-0.017-0.397-0.111-0.534-0.263
	c-0.184-0.205-0.276-0.468-0.262-0.738c0.03-0.553,0.521-1.071,1.144-1.204c0.58-0.124,1.252,0.056,1.8,0.48
	c0.467,0.36,0.854,0.886,1.185,1.604c0.379,0.821,0.603,1.726,0.663,2.626h0.579c-0.02-0.279-0.049-0.558-0.098-0.836
	c0-0.007,0.006-0.012,0.005-0.019c-0.117-0.724-0.061-1.47,0.165-2.157c0.064-0.197,0.151-0.413,0.312-0.529
	c0.058-0.042,0.138-0.065,0.213-0.062c0.076,0.003,0.146,0.033,0.198,0.087c0.031,0.031,0.048,0.073,0.048,0.118
	c0,0.018-0.007,0.035-0.02,0.049c-0.014,0.016-0.032,0.025-0.059,0.026c-0.126-0.095-0.308-0.072-0.406,0.051
	c-0.098,0.122-0.074,0.3,0.052,0.395c0.12,0.091,0.271,0.133,0.423,0.116c0.171-0.019,0.326-0.1,0.436-0.229
	c0.096-0.113,0.15-0.257,0.151-0.403c0.001-0.191-0.072-0.373-0.208-0.512c-0.156-0.159-0.367-0.252-0.594-0.261
	c-0.203-0.008-0.413,0.055-0.576,0.172c0.162-0.175,0.276-0.391,0.32-0.625c0.089-0.471-0.105-0.967-0.496-1.265
	c-0.381-0.292-0.92-0.364-1.372-0.186c-0.007,0.002-0.014,0.006-0.02,0.009c0.196-0.208,0.447-0.362,0.731-0.444
	c0.835-0.24,1.866,0.214,2.3,1.013c0.42,0.774,0.32,1.814-0.249,2.586c-0.285,0.387-0.687,0.714-1.16,0.946
	c-0.143,0.07-0.2,0.24-0.128,0.378c0.051,0.098,0.153,0.155,0.259,0.155c0.044,0,0.088-0.01,0.13-0.03
	c0.559-0.272,1.031-0.661,1.37-1.121c0.089-0.121,0.159-0.251,0.229-0.382c0.075,0.46,0.239,0.909,0.488,1.306
	c0.229,0.368,0.538,0.676,0.882,0.946c-0.081,0.042-0.17,0.075-0.248,0.117c-0.09,0.049-0.18,0.097-0.271,0.143
	c-0.336,0.169-0.601,0.24-0.832,0.226c-0.216-0.015-0.468-0.139-0.529-0.347c-0.024-0.085-0.016-0.176,0.027-0.254
	c0.027-0.05,0.073-0.087,0.128-0.104c0.03-0.009,0.062-0.007,0.09,0.007c0.006,0.003,0.012,0.007,0.016,0.013
	c-0.059,0.14,0.007,0.298,0.147,0.361c0.146,0.065,0.317,0.002,0.384-0.139c0.061-0.127,0.066-0.271,0.019-0.402
	c-0.054-0.148-0.164-0.268-0.309-0.337c-0.163-0.079-0.35-0.093-0.522-0.038c-0.199,0.062-0.363,0.195-0.462,0.375
	c-0.115,0.208-0.142,0.448-0.074,0.675c0.121,0.41,0.551,0.719,1.045,0.752c0.449,0.032,0.865-0.148,1.138-0.287
	c0.097-0.048,0.191-0.1,0.286-0.15c0.204-0.111,0.397-0.216,0.601-0.287c0.173-0.062,0.505-0.145,0.776-0.012
	c0.175,0.084,0.316,0.306,0.247,0.478c-0.022,0.058-0.068,0.104-0.127,0.129c-0.033,0.015-0.069,0.016-0.104,0.004
	c-0.005-0.001-0.009-0.004-0.014-0.007c0.104-0.083,0.137-0.229,0.07-0.348c-0.074-0.139-0.25-0.19-0.391-0.118
	c-0.117,0.061-0.205,0.161-0.246,0.285c-0.045,0.136-0.035,0.281,0.03,0.411c0.071,0.144,0.197,0.253,0.353,0.308
	c0.08,0.028,0.162,0.042,0.244,0.042c0.1,0,0.2-0.021,0.294-0.062c0.196-0.086,0.349-0.24,0.427-0.436
	c0.003-0.008,0.002-0.017,0.005-0.025c0.003,0.009,0.001,0.018,0.004,0.025c0.079,0.195,0.231,0.35,0.429,0.436
	c0.094,0.042,0.193,0.062,0.295,0.062c0.082,0,0.164-0.014,0.243-0.042c0.154-0.054,0.279-0.164,0.353-0.308
	c0.065-0.13,0.076-0.274,0.03-0.41c-0.041-0.124-0.128-0.226-0.246-0.285c-0.143-0.072-0.316-0.021-0.393,0.118
	c-0.063,0.12-0.03,0.265,0.072,0.348c-0.005,0.003-0.009,0.005-0.014,0.007c-0.034,0.013-0.071,0.011-0.104-0.004
	c-0.059-0.026-0.104-0.072-0.128-0.129c-0.062-0.157,0.056-0.384,0.247-0.478c0.271-0.133,0.604-0.05,0.776,0.012
	c0.203,0.071,0.396,0.175,0.6,0.287c0.096,0.051,0.189,0.103,0.285,0.15c0.273,0.139,0.688,0.318,1.138,0.287
	c0.494-0.033,0.926-0.342,1.045-0.752c0.067-0.227,0.041-0.467-0.072-0.675c-0.1-0.18-0.264-0.313-0.462-0.375
	c-0.175-0.055-0.359-0.041-0.523,0.038c-0.145,0.069-0.254,0.188-0.308,0.336c-0.048,0.132-0.042,0.275,0.018,0.403
	c0.066,0.141,0.238,0.204,0.384,0.14c0.143-0.063,0.206-0.223,0.148-0.362c0.004-0.005,0.009-0.009,0.015-0.012
	c0.028-0.014,0.062-0.016,0.09-0.007c0.057,0.018,0.102,0.055,0.128,0.104c0.043,0.079,0.054,0.169,0.028,0.254
	c-0.062,0.208-0.312,0.332-0.529,0.347c-0.232,0.015-0.495-0.057-0.832-0.226c-0.091-0.045-0.18-0.094-0.27-0.143
	c-0.073-0.04-0.157-0.071-0.233-0.11c0.597-0.473,1.053-1.112,1.264-1.832c0.043-0.145,0.061-0.294,0.085-0.441
	c0.07,0.135,0.144,0.271,0.235,0.396c0.34,0.46,0.812,0.849,1.37,1.122c0.042,0.021,0.086,0.03,0.13,0.03
	c0.105,0,0.208-0.058,0.26-0.155c0.071-0.139,0.015-0.308-0.128-0.378c-0.476-0.232-0.875-0.56-1.16-0.947
	c-0.569-0.771-0.669-1.812-0.249-2.586c0.434-0.799,1.465-1.254,2.301-1.013c0.284,0.082,0.535,0.235,0.73,0.444
	c-0.007-0.003-0.013-0.007-0.02-0.009c-0.453-0.179-0.992-0.105-1.373,0.186c-0.39,0.298-0.585,0.794-0.496,1.265
	c0.044,0.234,0.159,0.451,0.321,0.625c-0.163-0.117-0.372-0.179-0.576-0.172c-0.227,0.008-0.438,0.102-0.594,0.261
	c-0.136,0.14-0.21,0.32-0.208,0.512c0.001,0.146,0.055,0.291,0.15,0.403c0.11,0.129,0.266,0.21,0.438,0.229
	c0.151,0.017,0.302-0.025,0.423-0.116c0.126-0.095,0.146-0.271,0.049-0.395c-0.099-0.123-0.282-0.146-0.409-0.05
	c-0.021-0.002-0.039-0.012-0.053-0.027c-0.012-0.015-0.019-0.031-0.019-0.05c-0.001-0.045,0.017-0.086,0.048-0.118
	c0.052-0.054,0.122-0.084,0.198-0.087c0.074-0.001,0.154,0.021,0.213,0.062c0.159,0.116,0.246,0.333,0.311,0.529
	c0.226,0.688,0.281,1.434,0.164,2.157c-0.001,0.007,0.005,0.012,0.005,0.019c-0.047,0.278-0.078,0.557-0.097,0.836h0.578
	c0.06-0.9,0.284-1.805,0.663-2.626c0.331-0.718,0.718-1.243,1.185-1.604c0.548-0.426,1.221-0.604,1.8-0.48
	c0.622,0.133,1.114,0.65,1.145,1.204c0.016,0.271-0.078,0.533-0.263,0.738c-0.137,0.151-0.325,0.246-0.532,0.263
	c-0.15,0.013-0.299-0.032-0.416-0.125c-0.081-0.065-0.135-0.158-0.146-0.26c-0.008-0.067,0.011-0.134,0.053-0.188
	c0.025-0.031,0.062-0.052,0.103-0.058c0.017-0.002,0.034,0.001,0.048,0.012c0.008,0.005,0.02,0.001,0.026,0.006
	c0.033,0.02,0.066,0.02,0.104,0.024c0.038,0.005,0.07,0.015,0.107,0.006c0.009-0.002,0.018,0.004,0.025,0.001
	c0.03-0.01,0.042-0.039,0.065-0.057c0.024-0.019,0.056-0.021,0.074-0.045c0.006-0.008,0.001-0.018,0.006-0.025
	c0.02-0.032,0.02-0.065,0.023-0.102c0.007-0.037,0.017-0.069,0.007-0.105c-0.002-0.009,0.005-0.017,0.002-0.025
	c-0.128-0.355-0.462-0.609-0.831-0.632c-0.422-0.021-0.835,0.27-0.961,0.684c-0.11,0.359-0.009,0.772,0.269,1.076
	c0.127,0.141,0.293,0.247,0.479,0.333c-0.817,0.33-1.645,0.479-2.414,0.397l-0.068-0.008c-0.16-0.02-0.303,0.09-0.323,0.245
	c-0.02,0.154,0.093,0.295,0.252,0.313l0.077,0.009c0.034,0.003,0.069,0,0.104,0.002c0.005,0.001,0.008,0.008,0.014,0.009
	c0.544,0.065,1.054,0.302,1.518,0.699c0.055,0.047,0.122,0.071,0.191,0.071c0.031,0,0.062-0.005,0.094-0.016
	c0.1-0.033,0.171-0.114,0.19-0.213c0.066-0.343,0.3-0.802,0.598-0.979c0.006-0.003,0.006-0.011,0.011-0.015
	c0.156-0.063,0.313-0.12,0.469-0.196c0.137-0.068,0.272-0.14,0.409-0.212c0.58-0.307,1.129-0.596,1.704-0.549
	c0.476,0.038,0.915,0.347,1.07,0.751c0.16,0.414,0.006,0.919-0.351,1.149c-0.288,0.187-0.727,0.165-0.997-0.047
	c-0.104-0.08-0.179-0.184-0.223-0.3c0.076,0.102,0.186,0.173,0.312,0.204c0.157,0.038,0.32,0.016,0.459-0.062
	c0.158-0.09,0.272-0.232,0.323-0.402c0.028-0.102,0.034-0.209,0.015-0.312c-0.038-0.199-0.153-0.375-0.324-0.492
	s-0.379-0.165-0.586-0.134c-0.239,0.036-0.452,0.16-0.598,0.349c-0.171,0.221-0.246,0.493-0.211,0.768
	c0.041,0.325,0.208,0.617,0.47,0.822c0.077,0.06,0.169,0.094,0.256,0.136h1.295c0.043-0.021,0.09-0.032,0.13-0.058
	c0.454-0.293,0.693-0.833,0.66-1.371c0.31,0.461,0.595,0.938,0.855,1.429h0.655c-1.948-3.884-5.439-6.876-9.615-8.296
	c-0.054-0.239-0.263-0.422-0.523-0.422c-0.301,0-0.546,0.238-0.546,0.531s0.245,0.531,0.546,0.531c0.123,0,0.231-0.047,0.322-0.113
	c1.749,0.596,3.37,1.478,4.803,2.593c-0.092-0.034-0.186-0.064-0.283-0.085c-0.614-0.131-1.298,0.007-1.901,0.35
	c0.062-0.391-0.001-0.789-0.203-1.138c-0.281-0.485-0.738-0.839-1.287-0.997c-0.858-0.247-1.836,0.045-2.495,0.674l0.144-0.492
	c0.087-0.295,0.193-0.661,0.094-1.035c-0.065-0.245-0.237-0.465-0.46-0.588c-0.186-0.103-0.392-0.13-0.581-0.075
	c-0.181,0.05-0.33,0.165-0.423,0.321c-0.082,0.14-0.104,0.302-0.064,0.456c0.036,0.14,0.125,0.256,0.25,0.331s0.272,0.1,0.416,0.069
	c0.156-0.034,0.255-0.184,0.221-0.336c-0.032-0.146-0.176-0.239-0.327-0.218c0.002-0.008,0.004-0.016,0.008-0.021
	c0.018-0.03,0.046-0.051,0.08-0.061c0.041-0.013,0.086-0.003,0.136,0.023c0.086,0.048,0.161,0.145,0.187,0.24
	c0.057,0.209-0.005,0.448-0.09,0.74l-0.479,1.639c-0.29-0.49-0.664-0.927-1.042-1.343c-0.581-0.637-1.129-1.239-1.278-2.001
	c-0.034-0.178-0.067-0.51,0.1-0.741c0.012-0.015,0.022-0.029,0.035-0.042c-0.032,0.089-0.037,0.187-0.012,0.278
	c0.035,0.134,0.121,0.247,0.242,0.318c0.121,0.072,0.265,0.096,0.401,0.064c0.155-0.034,0.288-0.124,0.374-0.252
	c0.1-0.146,0.135-0.32,0.102-0.491c-0.039-0.196-0.152-0.367-0.32-0.48c-0.432-0.295-1.029-0.089-1.296,0.279
	c-0.275,0.38-0.258,0.848-0.194,1.17c0.18,0.915,0.808,1.604,1.413,2.271c0.248,0.271,0.496,0.551,0.714,0.842
	c-0.051-0.015-0.104-0.018-0.158-0.002c-0.112,0.03-0.194,0.124-0.208,0.235c-0.048,0.367-0.323,0.684-0.616,1.018
	c-0.062,0.07-0.122,0.14-0.183,0.21c-0.465,0.554-0.933,1.343-1.171,2.195c-0.237-0.853-0.706-1.642-1.171-2.195
	c-0.059-0.07-0.12-0.14-0.181-0.21c-0.292-0.334-0.569-0.65-0.617-1.018c-0.015-0.112-0.096-0.206-0.208-0.236
	c-0.054-0.015-0.11-0.012-0.161,0.002c0.147-0.199,0.312-0.391,0.481-0.583c0.359-0.405,0.756-0.807,1.088-1.285
	c0.041-0.061,0.083-0.12,0.122-0.182l0.112-0.191c0.037-0.062,0.065-0.133,0.1-0.199c0.016-0.033,0.035-0.065,0.057-0.098
	c0.021-0.033,0.033-0.068,0.043-0.104c0.093-0.286,0.18-0.58,0.168-0.908c-0.013-0.32-0.112-0.69-0.438-0.94
	c-0.153-0.115-0.334-0.189-0.536-0.21c-0.199-0.021-0.433,0.03-0.605,0.17c-0.086,0.068-0.156,0.155-0.206,0.251
	c-0.049,0.098-0.079,0.2-0.08,0.322c0,0.118,0.032,0.236,0.094,0.338c0.062,0.107,0.17,0.203,0.294,0.251
	c0.031,0.013,0.062,0.023,0.095,0.03c0.036,0.008,0.074,0.013,0.111,0.014c0.075,0.001,0.149-0.012,0.219-0.04
	c0.139-0.055,0.251-0.169,0.303-0.306c0.014-0.033,0.022-0.071,0.028-0.113c0.005-0.041,0.004-0.083-0.002-0.124
	c-0.004-0.027-0.014-0.054-0.022-0.081c0.011,0.012,0.023,0.021,0.032,0.033c0.026,0.037,0.049,0.078,0.066,0.122
	c0.038,0.088,0.056,0.192,0.06,0.301c0.003,0.11-0.007,0.225-0.034,0.34c-0.032,0.116-0.051,0.237-0.112,0.347
	c-0.028,0.054-0.027,0.12-0.062,0.174c-0.027,0.055-0.05,0.113-0.083,0.167l-0.096,0.164c-0.034,0.054-0.072,0.105-0.107,0.16
	c-0.294,0.425-0.675,0.813-1.046,1.23c-0.186,0.208-0.372,0.423-0.542,0.657c-0.088,0.113-0.165,0.238-0.245,0.36
	c-0.008,0.014-0.015,0.027-0.021,0.042l-0.472-1.619c-0.07-0.241-0.15-0.516-0.091-0.74c0.026-0.096,0.102-0.192,0.188-0.24
	c0.05-0.026,0.095-0.036,0.135-0.023c0.034,0.009,0.063,0.03,0.081,0.061c0.003,0.006,0.006,0.014,0.006,0.021
	c-0.148-0.021-0.293,0.071-0.326,0.218c-0.034,0.152,0.064,0.302,0.221,0.336c0.144,0.031,0.292,0.006,0.416-0.068
	c0.125-0.074,0.214-0.192,0.25-0.331c0.041-0.154,0.018-0.316-0.064-0.456c-0.093-0.157-0.243-0.271-0.423-0.321
	c-0.19-0.054-0.396-0.026-0.581,0.076c-0.223,0.123-0.395,0.343-0.46,0.587c-0.1,0.374,0.007,0.74,0.093,1.034l0.145,0.492
	c-0.66-0.629-1.637-0.92-2.494-0.674c-0.549,0.158-1.006,0.512-1.288,0.997c-0.203,0.349-0.268,0.748-0.204,1.138
	c-0.605-0.343-1.288-0.48-1.902-0.35c-0.097,0.021-0.19,0.051-0.282,0.084c1.433-1.115,3.054-1.998,4.802-2.593
	c0.091,0.066,0.2,0.113,0.323,0.113c0.301,0,0.546-0.238,0.546-0.531s-0.245-0.531-0.546-0.531c-0.263,0-0.472,0.184-0.524,0.423
	c-4.175,1.419-7.667,4.412-9.616,8.295h0.656C38.812,38.466,39.097,37.99,39.406,37.529z M44.913,37.856
	c-0.059,0.035-0.12,0.055-0.178,0.093c-0.021-0.05-0.047-0.099-0.07-0.148C44.747,37.82,44.83,37.841,44.913,37.856z M44.122,35.721
	c0.03,0.101,0.015,0.212-0.024,0.32c0.001-0.183-0.047-0.36-0.163-0.508c-0.017-0.021-0.043-0.034-0.062-0.054
	C43.983,35.522,44.085,35.602,44.122,35.721z M61.401,37.949c-0.057-0.038-0.118-0.058-0.177-0.093
	c0.083-0.016,0.165-0.036,0.248-0.056C61.448,37.851,61.422,37.899,61.401,37.949z M62.202,35.534
	c-0.115,0.146-0.163,0.325-0.162,0.508c-0.039-0.108-0.056-0.22-0.024-0.32c0.036-0.119,0.139-0.199,0.248-0.24
	C62.245,35.5,62.22,35.512,62.202,35.534z M65.669,36.124c-0.188-0.08-0.382-0.14-0.59-0.156c-0.214-0.018-0.418,0.005-0.618,0.043
	c0.063-0.188,0.094-0.387,0.083-0.59c-0.015-0.244-0.093-0.479-0.213-0.698C64.805,35.164,65.253,35.629,65.669,36.124z
	 M59.085,33.515c0.108-0.083,0.245-0.137,0.386-0.154c-0.024,0.055-0.044,0.111-0.059,0.168c-0.168-0.004-0.334,0.042-0.475,0.136
	C58.979,33.608,59.028,33.558,59.085,33.515z M59.309,36.101c-0.033,0.072-0.059,0.149-0.09,0.224
	c-0.038-0.186-0.085-0.37-0.144-0.55c-0.082-0.25-0.214-0.558-0.474-0.77c0.158,0.155,0.353,0.277,0.569,0.335
	c0.175,0.048,0.358,0.055,0.54,0.026C59.569,35.591,59.434,35.83,59.309,36.101z M60.274,33.088
	c0.021,0.032,0.042,0.064,0.062,0.098c0.158,0.272,0.2,0.59,0.118,0.893c-0.062,0.229-0.209,0.421-0.416,0.543
	c-0.153,0.09-0.333,0.118-0.509,0.08c-0.125-0.028-0.23-0.101-0.301-0.205c-0.048-0.071-0.064-0.156-0.048-0.239
	c0.01-0.052,0.041-0.098,0.086-0.128c0.035-0.023,0.076-0.037,0.119-0.037c0.012,0,0.022,0.001,0.034,0.004
	c0.028,0.004,0.054,0.019,0.07,0.042c0.089,0.115,0.255,0.147,0.382,0.072c0.128-0.075,0.176-0.231,0.11-0.362
	c-0.062-0.127,0.025-0.358,0.184-0.476c0.083-0.061,0.126-0.161,0.11-0.261C60.277,33.103,60.276,33.094,60.274,33.088z
	 M54.688,35.269c0.058-0.067,0.115-0.135,0.174-0.201c0.151-0.172,0.311-0.355,0.445-0.556c0.003,0.285-0.089,0.584-0.227,0.825
	c-0.217,0.379-0.535,0.694-0.874,1.028c-0.109,0.108-0.22,0.216-0.324,0.327c-0.037,0.038-0.071,0.075-0.105,0.112
	C54.013,36.203,54.362,35.658,54.688,35.269z M53.764,37.76c0.127-0.215,0.299-0.432,0.54-0.683
	c0.104-0.106,0.208-0.211,0.314-0.315c0.35-0.347,0.711-0.704,0.966-1.15c0.229-0.398,0.353-0.919,0.265-1.401
	c0.279,0.647,0.338,1.384,0.14,2.06c-0.208,0.706-0.688,1.326-1.315,1.73c-0.369-0.099-0.722-0.088-1.015,0.035
	C53.691,37.934,53.721,37.833,53.764,37.76z M53.069,38.628c0.006,0.002,0.01,0.005,0.014,0.008
	c-0.007,0.02-0.008,0.039-0.015,0.059c-0.006-0.02-0.005-0.039-0.012-0.059C53.06,38.633,53.064,38.63,53.069,38.628z
	 M51.275,35.068c0.06,0.066,0.118,0.134,0.175,0.201c0.325,0.389,0.675,0.934,0.912,1.535c-0.033-0.037-0.068-0.074-0.104-0.111
	c-0.105-0.11-0.215-0.219-0.325-0.327c-0.338-0.333-0.657-0.649-0.874-1.028c-0.138-0.24-0.229-0.54-0.227-0.825
	C50.965,34.713,51.125,34.896,51.275,35.068z M50.297,34.167c-0.104,0.494,0.02,1.034,0.255,1.445
	c0.255,0.446,0.617,0.804,0.968,1.15c0.106,0.104,0.211,0.209,0.314,0.315c0.242,0.251,0.413,0.468,0.54,0.683
	c0.043,0.073,0.072,0.174,0.104,0.275c-0.292-0.123-0.643-0.133-1.01-0.036c-0.824-0.528-1.389-1.439-1.435-2.4
	C50.004,35.109,50.098,34.614,50.297,34.167z M47.537,35.003c-0.262,0.213-0.394,0.521-0.476,0.771
	c-0.059,0.18-0.104,0.364-0.144,0.55c-0.032-0.074-0.058-0.151-0.09-0.224c-0.125-0.271-0.262-0.51-0.404-0.734
	c0.181,0.028,0.366,0.021,0.54-0.026C47.184,35.282,47.378,35.16,47.537,35.003z M47.052,33.515
	c0.056,0.043,0.105,0.094,0.147,0.149c-0.134-0.09-0.289-0.137-0.448-0.137c-0.009,0-0.019,0-0.026,0
	c-0.015-0.057-0.034-0.114-0.059-0.168C46.807,33.379,46.943,33.431,47.052,33.515z M45.802,33.185
	c0.019-0.033,0.04-0.065,0.061-0.098c-0.001,0.007-0.003,0.016-0.004,0.022c-0.014,0.1,0.029,0.2,0.111,0.261
	c0.157,0.117,0.246,0.348,0.183,0.476c-0.064,0.131-0.017,0.287,0.111,0.362c0.128,0.076,0.293,0.043,0.382-0.073
	c0.019-0.022,0.042-0.037,0.071-0.042c0.054-0.008,0.108,0.004,0.154,0.034c0.044,0.03,0.074,0.076,0.086,0.128
	c0.017,0.083,0,0.168-0.048,0.239c-0.07,0.104-0.178,0.177-0.302,0.205c-0.174,0.039-0.354,0.01-0.507-0.08
	c-0.208-0.122-0.354-0.314-0.417-0.543C45.601,33.775,45.643,33.458,45.802,33.185z M41.806,34.722
	c-0.12,0.219-0.199,0.454-0.212,0.698c-0.011,0.203,0.019,0.402,0.083,0.59c-0.2-0.038-0.404-0.061-0.619-0.043
	c-0.208,0.018-0.403,0.077-0.59,0.156C40.885,35.629,41.333,35.164,41.806,34.722z M66.731,55.917
	c0.031-0.49-0.183-0.977-0.576-1.274h-1.758c-0.002,0.002-0.005,0.002-0.007,0.004c-0.262,0.203-0.429,0.489-0.47,0.809
	c-0.035,0.271,0.04,0.539,0.211,0.756c0.146,0.187,0.357,0.308,0.598,0.342c0.206,0.031,0.415-0.016,0.586-0.131
	c0.171-0.114,0.286-0.287,0.324-0.483c0.021-0.103,0.015-0.207-0.015-0.308c-0.05-0.168-0.165-0.309-0.323-0.396
	c-0.139-0.078-0.303-0.101-0.459-0.062c-0.126,0.029-0.234,0.101-0.312,0.201c0.045-0.115,0.119-0.219,0.223-0.297
	c0.271-0.209,0.709-0.229,0.997-0.047c0.355,0.229,0.511,0.725,0.351,1.133c-0.155,0.396-0.596,0.701-1.07,0.738
	c-0.444,0.035-0.869-0.125-1.306-0.338c-0.001,0-0.001,0-0.002,0c-0.131-0.064-0.263-0.133-0.396-0.201
	c-0.138-0.072-0.273-0.144-0.41-0.209c-0.154-0.076-0.312-0.131-0.468-0.193c-0.006-0.004-0.006-0.012-0.012-0.014
	c-0.298-0.176-0.529-0.627-0.598-0.963c-0.021-0.099-0.092-0.178-0.19-0.211c-0.099-0.031-0.207-0.013-0.284,0.055
	c-0.465,0.391-0.975,0.623-1.518,0.688c-0.006,0.002-0.009,0.008-0.016,0.008c-0.034,0.004-0.069,0-0.104,0.004l-0.076,0.008
	c-0.158,0.021-0.271,0.158-0.252,0.309c0.021,0.152,0.164,0.261,0.323,0.242l0.067-0.008c0.771-0.08,1.598,0.066,2.414,0.391
	c-0.185,0.085-0.351,0.189-0.478,0.326c-0.275,0.299-0.379,0.705-0.269,1.062c0.121,0.391,0.507,0.674,0.911,0.674
	c0.017,0,0.032-0.002,0.05-0.002c0.369-0.021,0.703-0.271,0.831-0.621c0.003-0.01-0.004-0.018-0.002-0.025
	c0.01-0.034,0-0.067-0.006-0.104c-0.006-0.037-0.006-0.068-0.024-0.1c-0.005-0.009,0-0.019-0.006-0.025
	c-0.02-0.025-0.052-0.029-0.076-0.045c-0.023-0.019-0.034-0.045-0.062-0.055c-0.01-0.005-0.018,0.004-0.025,0
	c-0.037-0.009-0.07,0.002-0.108,0.006c-0.038,0.006-0.07,0.006-0.104,0.022c-0.008,0.006-0.019,0.002-0.025,0.006
	c-0.015,0.011-0.032,0.017-0.049,0.013c-0.041-0.007-0.076-0.025-0.101-0.058c-0.043-0.053-0.062-0.117-0.055-0.184
	c0.013-0.103,0.064-0.191,0.146-0.256c0.117-0.092,0.265-0.138,0.416-0.125c0.104,0.01,0.202,0.035,0.292,0.08
	c0.001,0,0.001,0,0.002,0c0.09,0.045,0.171,0.104,0.239,0.18c0.184,0.201,0.276,0.459,0.262,0.727
	c-0.029,0.543-0.521,1.054-1.145,1.185c-0.579,0.123-1.253-0.056-1.8-0.474c-0.467-0.354-0.854-0.87-1.185-1.577
	c-0.36-0.771-0.578-1.613-0.65-2.455H58.61c0.021,0.229,0.041,0.463,0.081,0.692c0,0.006-0.006,0.013-0.005,0.019
	c0.117,0.713,0.062,1.446-0.164,2.123c-0.063,0.192-0.15,0.405-0.311,0.521C58.155,58.038,58.07,58.062,58,58.06
	c-0.076-0.004-0.146-0.033-0.198-0.086c-0.031-0.031-0.049-0.072-0.048-0.117c0-0.019,0.007-0.033,0.019-0.049
	c0.015-0.017,0.032-0.023,0.06-0.025c0.126,0.094,0.308,0.072,0.404-0.049c0.1-0.121,0.075-0.295-0.051-0.39
	c-0.121-0.09-0.271-0.131-0.423-0.114c-0.172,0.02-0.327,0.1-0.437,0.227c-0.098,0.111-0.15,0.252-0.151,0.396
	c-0.002,0.188,0.072,0.366,0.208,0.504c0.156,0.156,0.367,0.248,0.594,0.256c0.012,0,0.023,0.002,0.034,0.002
	c0.192,0,0.388-0.062,0.542-0.17c-0.162,0.172-0.277,0.385-0.321,0.615c-0.089,0.463,0.106,0.95,0.496,1.244
	c0.381,0.284,0.92,0.356,1.373,0.182c0.007-0.002,0.013-0.006,0.02-0.008c-0.195,0.205-0.446,0.354-0.73,0.436
	c-0.836,0.236-1.867-0.211-2.301-0.996c-0.42-0.762-0.32-1.785,0.249-2.545c0.284-0.381,0.686-0.703,1.16-0.932
	c0.143-0.068,0.2-0.234,0.128-0.371s-0.246-0.191-0.39-0.123c-0.558,0.27-1.03,0.65-1.369,1.104
	c-0.094,0.123-0.166,0.257-0.237,0.39c-0.023-0.146-0.041-0.291-0.084-0.435c-0.211-0.709-0.666-1.338-1.262-1.803
	c0.074-0.039,0.158-0.07,0.231-0.109c0.089-0.047,0.179-0.096,0.271-0.141c0.336-0.166,0.6-0.236,0.832-0.221
	c0.217,0.014,0.468,0.137,0.528,0.34c0.025,0.084,0.016,0.174-0.027,0.252c-0.027,0.049-0.072,0.084-0.128,0.102
	c-0.029,0.011-0.062,0.007-0.091-0.006c-0.006-0.004-0.011-0.008-0.015-0.014c0.058-0.137-0.007-0.293-0.148-0.355
	c-0.146-0.062-0.316-0.002-0.384,0.14c-0.06,0.125-0.064,0.266-0.018,0.395c0.054,0.146,0.163,0.265,0.308,0.332
	c0.099,0.047,0.203,0.07,0.311,0.07c0.071,0,0.144-0.012,0.214-0.033c0.199-0.061,0.362-0.19,0.462-0.369
	c0.114-0.205,0.141-0.44,0.073-0.664c-0.12-0.401-0.552-0.707-1.045-0.739c-0.448-0.029-0.864,0.146-1.139,0.28
	c-0.097,0.049-0.19,0.101-0.286,0.15c-0.204,0.106-0.396,0.211-0.599,0.281c-0.173,0.061-0.505,0.141-0.776,0.012
	c-0.174-0.084-0.315-0.303-0.247-0.471c0.024-0.058,0.069-0.103,0.129-0.127c0.031-0.015,0.068-0.017,0.104-0.005
	c0.005,0.003,0.01,0.005,0.014,0.007c-0.104,0.082-0.137,0.225-0.071,0.344c0.074,0.135,0.25,0.188,0.392,0.115
	c0.118-0.06,0.205-0.158,0.246-0.279c0.046-0.135,0.035-0.277-0.03-0.404c-0.072-0.141-0.197-0.25-0.353-0.303
	c-0.176-0.061-0.367-0.055-0.538,0.02c-0.196,0.087-0.35,0.238-0.428,0.431c-0.004,0.008-0.001,0.016-0.006,0.024
	c-0.003-0.01-0.001-0.018-0.004-0.024c-0.078-0.191-0.229-0.344-0.426-0.431c-0.172-0.073-0.363-0.079-0.539-0.02
	c-0.155,0.053-0.28,0.16-0.353,0.303c-0.065,0.127-0.075,0.271-0.03,0.404c0.042,0.121,0.129,0.221,0.246,0.279
	c0.141,0.071,0.315,0.02,0.391-0.115c0.065-0.119,0.033-0.262-0.069-0.344c0.004-0.002,0.008-0.004,0.014-0.007
	c0.033-0.012,0.07-0.01,0.104,0.005c0.059,0.024,0.104,0.069,0.127,0.127c0.069,0.168-0.072,0.387-0.246,0.471
	c-0.271,0.129-0.604,0.049-0.777-0.012c-0.202-0.07-0.396-0.175-0.599-0.281c-0.096-0.051-0.19-0.103-0.286-0.15
	c-0.273-0.135-0.689-0.311-1.139-0.28c-0.495,0.032-0.924,0.338-1.045,0.739c-0.066,0.224-0.041,0.459,0.074,0.664
	c0.099,0.179,0.263,0.31,0.462,0.369c0.07,0.021,0.143,0.033,0.214,0.033c0.106,0,0.211-0.023,0.31-0.07
	c0.145-0.067,0.254-0.186,0.308-0.332c0.048-0.129,0.042-0.27-0.018-0.396c-0.066-0.14-0.238-0.199-0.385-0.138
	c-0.141,0.062-0.206,0.22-0.147,0.355c-0.004,0.006-0.009,0.01-0.015,0.014c-0.028,0.013-0.061,0.017-0.091,0.006
	c-0.055-0.018-0.101-0.053-0.128-0.104c-0.043-0.076-0.053-0.166-0.026-0.25c0.061-0.203,0.312-0.326,0.528-0.34
	c0.231-0.017,0.496,0.055,0.832,0.221c0.091,0.045,0.182,0.094,0.271,0.142c0.073,0.038,0.157,0.069,0.231,0.108
	c-0.595,0.465-1.05,1.094-1.262,1.803c-0.042,0.142-0.061,0.289-0.084,0.435c-0.071-0.133-0.144-0.267-0.236-0.39
	c-0.339-0.452-0.812-0.834-1.369-1.104c-0.144-0.068-0.316-0.014-0.39,0.123c-0.072,0.137-0.015,0.303,0.128,0.371
	c0.475,0.229,0.875,0.551,1.16,0.932c0.569,0.76,0.669,1.783,0.249,2.545c-0.433,0.785-1.466,1.232-2.3,0.996
	c-0.285-0.08-0.536-0.229-0.731-0.436c0.006,0.002,0.014,0.006,0.02,0.008c0.453,0.176,0.992,0.104,1.373-0.182
	c0.39-0.293,0.584-0.781,0.496-1.244c-0.044-0.23-0.16-0.443-0.322-0.617c0.154,0.108,0.349,0.172,0.542,0.172
	c0.011,0,0.022-0.002,0.034-0.002c0.227-0.008,0.438-0.1,0.594-0.256c0.136-0.137,0.209-0.314,0.208-0.504
	c-0.001-0.146-0.055-0.285-0.151-0.396c-0.109-0.127-0.265-0.207-0.436-0.227c-0.152-0.017-0.302,0.024-0.423,0.115
	c-0.126,0.094-0.146,0.268-0.049,0.389s0.281,0.141,0.408,0.047c0.021,0.004,0.04,0.014,0.054,0.029
	c0.012,0.014,0.019,0.028,0.019,0.047c0,0.045-0.017,0.086-0.048,0.117c-0.052,0.053-0.123,0.082-0.198,0.086
	c-0.072,0.002-0.155-0.021-0.213-0.062c-0.16-0.115-0.247-0.328-0.311-0.521c-0.226-0.677-0.282-1.41-0.164-2.123
	c0.001-0.006-0.005-0.013-0.005-0.019c0.04-0.229,0.061-0.463,0.082-0.692H46.95c-0.072,0.842-0.29,1.686-0.65,2.455
	c-0.331,0.707-0.718,1.223-1.184,1.577c-0.549,0.418-1.221,0.595-1.801,0.474c-0.623-0.131-1.113-0.642-1.144-1.185
	c-0.015-0.268,0.078-0.524,0.262-0.727c0.068-0.074,0.149-0.135,0.239-0.178c0.001-0.002,0.002-0.002,0.003-0.002
	c0.09-0.045,0.188-0.072,0.292-0.08c0.151-0.013,0.298,0.032,0.416,0.125c0.082,0.063,0.134,0.153,0.146,0.256
	c0.009,0.065-0.011,0.131-0.053,0.184c-0.024,0.031-0.061,0.051-0.101,0.058c-0.018,0.004-0.034-0.002-0.048-0.011
	c-0.008-0.006-0.018-0.002-0.024-0.006c-0.034-0.02-0.068-0.02-0.107-0.024c-0.037-0.004-0.069-0.015-0.106-0.006
	c-0.009,0.004-0.017-0.005-0.026,0c-0.028,0.01-0.041,0.036-0.063,0.055c-0.025,0.016-0.058,0.02-0.076,0.045
	c-0.006,0.008-0.001,0.016-0.006,0.025c-0.021,0.028-0.02,0.062-0.024,0.098c-0.006,0.037-0.016,0.067-0.006,0.104
	c0.002,0.009-0.004,0.017-0.001,0.023c0.127,0.352,0.461,0.602,0.831,0.623c0.017,0,0.033,0.002,0.05,0.002
	c0.404,0,0.79-0.283,0.912-0.674c0.11-0.355,0.007-0.76-0.27-1.062c-0.127-0.137-0.292-0.242-0.477-0.326
	c0.816-0.323,1.643-0.471,2.413-0.391l0.068,0.008c0.16,0.021,0.303-0.09,0.322-0.242c0.021-0.149-0.093-0.288-0.251-0.309
	l-0.076-0.008c-0.034-0.004-0.069,0-0.104-0.004c-0.006,0-0.009-0.006-0.015-0.008c-0.543-0.064-1.055-0.298-1.518-0.688
	c-0.078-0.066-0.187-0.086-0.284-0.055c-0.1,0.033-0.172,0.112-0.191,0.211c-0.067,0.336-0.299,0.787-0.597,0.963
	c-0.006,0.002-0.006,0.01-0.012,0.014c-0.155,0.062-0.312,0.117-0.468,0.193c-0.137,0.065-0.272,0.137-0.411,0.209
	c-0.58,0.301-1.129,0.586-1.703,0.539c-0.475-0.037-0.916-0.342-1.07-0.738c-0.16-0.408-0.005-0.904,0.351-1.133
	c0.288-0.182,0.727-0.162,0.997,0.047c0.102,0.078,0.178,0.182,0.222,0.297c-0.075-0.1-0.185-0.172-0.311-0.201
	c-0.156-0.039-0.319-0.018-0.459,0.062c-0.158,0.088-0.273,0.229-0.323,0.396c-0.03,0.101-0.035,0.205-0.015,0.308
	c0.039,0.196,0.153,0.369,0.325,0.483c0.17,0.115,0.379,0.162,0.585,0.131c0.239-0.034,0.451-0.155,0.598-0.342
	c0.171-0.217,0.246-0.483,0.211-0.756c-0.042-0.318-0.208-0.604-0.47-0.809c-0.002-0.002-0.005-0.002-0.007-0.004h-1.758
	c-0.394,0.299-0.606,0.782-0.575,1.274c-0.281-0.412-0.541-0.84-0.783-1.274h-0.654c1.962,3.756,5.415,6.651,9.542,8.03
	c0.053,0.236,0.262,0.418,0.524,0.418c0.301,0,0.546-0.235,0.546-0.522c0-0.289-0.245-0.523-0.546-0.523
	c-0.124,0-0.231,0.047-0.323,0.113c-1.748-0.588-3.368-1.455-4.8-2.551c0.091,0.031,0.184,0.061,0.28,0.082
	c0.161,0.033,0.326,0.051,0.494,0.051c0.474,0,0.961-0.135,1.406-0.383c-0.06,0.381,0.006,0.768,0.206,1.106
	c0.281,0.479,0.739,0.826,1.288,0.98c0.208,0.061,0.421,0.088,0.637,0.088c0.677,0,1.357-0.283,1.858-0.754l-0.146,0.488
	c-0.086,0.289-0.192,0.649-0.093,1.018c0.065,0.24,0.238,0.457,0.46,0.578c0.123,0.065,0.255,0.102,0.386,0.102
	c0.066,0,0.132-0.01,0.195-0.026c0.18-0.049,0.33-0.16,0.423-0.316c0.082-0.137,0.104-0.295,0.064-0.447
	c-0.036-0.137-0.125-0.252-0.25-0.325c-0.125-0.074-0.272-0.099-0.416-0.068c-0.156,0.033-0.255,0.182-0.221,0.332
	c0.033,0.143,0.177,0.233,0.326,0.213c0,0.008-0.002,0.016-0.006,0.021c-0.018,0.029-0.046,0.052-0.081,0.062
	c-0.041,0.01-0.086,0.002-0.135-0.023c-0.085-0.047-0.161-0.143-0.188-0.237c-0.06-0.222,0.021-0.49,0.091-0.728l0.479-1.612
	c0.29,0.481,0.664,0.911,1.042,1.319c0.581,0.627,1.129,1.222,1.277,1.972c0.035,0.174,0.067,0.502-0.1,0.729
	c-0.011,0.014-0.021,0.027-0.035,0.041c0.032-0.088,0.036-0.182,0.013-0.273c-0.035-0.133-0.122-0.243-0.243-0.313
	s-0.263-0.094-0.402-0.064c-0.153,0.035-0.286,0.123-0.374,0.248c-0.098,0.146-0.134,0.316-0.1,0.484
	c0.039,0.193,0.152,0.361,0.32,0.473c0.143,0.097,0.304,0.14,0.464,0.14c0.326,0,0.651-0.172,0.832-0.414
	c0.274-0.373,0.258-0.832,0.193-1.15c-0.179-0.9-0.807-1.578-1.413-2.234c-0.259-0.278-0.518-0.563-0.743-0.864
	c0.038,0.018,0.066,0.051,0.108,0.051c0.026,0,0.054-0.004,0.079-0.012c0.112-0.029,0.193-0.121,0.208-0.23
	c0.047-0.363,0.324-0.674,0.616-1.002c0.062-0.068,0.123-0.139,0.182-0.207c0.466-0.545,0.934-1.322,1.171-2.16
	c0.238,0.838,0.706,1.615,1.172,2.16c0.06,0.068,0.119,0.139,0.182,0.207c0.293,0.328,0.569,0.639,0.616,1.002
	c0.015,0.109,0.096,0.201,0.208,0.23c0.024,0.008,0.053,0.012,0.079,0.012c0.041,0,0.069-0.033,0.106-0.051
	c-0.225,0.301-0.482,0.586-0.742,0.864c-0.605,0.656-1.233,1.334-1.413,2.234c-0.062,0.318-0.081,0.777,0.194,1.15
	c0.179,0.242,0.506,0.414,0.831,0.414c0.161,0,0.322-0.043,0.465-0.14c0.168-0.11,0.281-0.278,0.32-0.473
	c0.033-0.168-0.002-0.34-0.101-0.482c-0.087-0.127-0.22-0.215-0.375-0.25c-0.138-0.028-0.28-0.006-0.401,0.064
	s-0.207,0.182-0.242,0.313c-0.025,0.091-0.021,0.187,0.012,0.273c-0.013-0.014-0.023-0.027-0.035-0.041
	c-0.167-0.227-0.134-0.555-0.1-0.729c0.149-0.75,0.697-1.345,1.278-1.972c0.378-0.408,0.752-0.838,1.042-1.319l0.479,1.612
	c0.085,0.287,0.146,0.521,0.09,0.728c-0.024,0.096-0.101,0.19-0.187,0.237c-0.05,0.025-0.096,0.033-0.136,0.023
	c-0.034-0.01-0.062-0.031-0.08-0.062c-0.004-0.006-0.006-0.014-0.007-0.021c0.15,0.021,0.294-0.07,0.326-0.213
	c0.034-0.15-0.063-0.299-0.221-0.332c-0.144-0.029-0.291-0.006-0.416,0.068c-0.125,0.073-0.214,0.188-0.25,0.323
	c-0.04,0.154-0.018,0.312,0.064,0.449c0.093,0.156,0.242,0.269,0.423,0.316c0.062,0.018,0.129,0.026,0.194,0.026
	c0.132,0,0.264-0.035,0.387-0.102c0.223-0.121,0.395-0.338,0.46-0.578c0.101-0.367-0.007-0.729-0.093-1.018l-0.146-0.488
	c0.5,0.471,1.181,0.754,1.858,0.754c0.216,0,0.43-0.029,0.638-0.088c0.549-0.154,1.006-0.502,1.287-0.98
	c0.2-0.34,0.266-0.727,0.206-1.106c0.445,0.248,0.934,0.383,1.406,0.383c0.167,0,0.333-0.018,0.492-0.051
	c0.099-0.021,0.19-0.051,0.282-0.082c-1.433,1.096-3.053,1.963-4.801,2.551c-0.092-0.066-0.199-0.113-0.323-0.113
	c-0.301,0-0.546,0.234-0.546,0.523c0,0.287,0.245,0.522,0.546,0.522c0.262,0,0.472-0.182,0.523-0.416
	c4.127-1.381,7.58-4.276,9.542-8.032h-0.654C67.272,55.077,67.012,55.505,66.731,55.917z M61.225,55.597
	c0.059-0.035,0.12-0.056,0.177-0.093c0.021,0.05,0.048,0.097,0.071,0.146C61.39,55.632,61.308,55.61,61.225,55.597z M62.016,57.696
	c-0.03-0.1-0.015-0.209,0.024-0.316c-0.001,0.181,0.047,0.355,0.162,0.5c0.018,0.021,0.043,0.033,0.062,0.054
	C62.154,57.892,62.052,57.813,62.016,57.696z M44.736,55.505c0.057,0.037,0.119,0.058,0.178,0.093
	c-0.083,0.014-0.166,0.034-0.248,0.053C44.688,55.601,44.715,55.554,44.736,55.505z M43.935,57.88
	c0.116-0.145,0.164-0.319,0.163-0.5c0.039,0.107,0.055,0.218,0.024,0.316c-0.036,0.117-0.14,0.195-0.249,0.236
	C43.892,57.913,43.917,57.901,43.935,57.88z M40.469,57.3c0.186,0.078,0.382,0.138,0.589,0.154c0.06,0.004,0.116,0.008,0.174,0.008
	c0.152,0,0.299-0.021,0.444-0.049c-0.064,0.185-0.093,0.379-0.083,0.578c0.013,0.238,0.087,0.467,0.201,0.678
	C41.326,58.237,40.882,57.782,40.469,57.3z M47.052,59.868c-0.109,0.082-0.245,0.133-0.386,0.15
	c0.023-0.054,0.044-0.109,0.059-0.166c0.168,0.006,0.333-0.041,0.475-0.134C47.158,59.774,47.108,59.825,47.052,59.868z
	 M46.829,57.323c0.033-0.072,0.059-0.148,0.09-0.221c0.038,0.184,0.084,0.362,0.144,0.541c0.082,0.248,0.213,0.551,0.477,0.76
	c-0.159-0.154-0.354-0.275-0.573-0.332c-0.175-0.047-0.36-0.053-0.541-0.025C46.567,57.825,46.704,57.589,46.829,57.323z
	 M45.862,60.286c-0.021-0.029-0.042-0.062-0.061-0.094c-0.159-0.271-0.201-0.58-0.119-0.879c0.062-0.226,0.209-0.414,0.417-0.535
	c0.108-0.062,0.23-0.094,0.354-0.094c0.051,0,0.103,0.004,0.153,0.016c0.125,0.027,0.231,0.1,0.302,0.201
	c0.047,0.07,0.063,0.154,0.048,0.235c-0.012,0.052-0.042,0.097-0.086,0.125c-0.045,0.031-0.101,0.044-0.154,0.033
	c-0.028-0.004-0.053-0.018-0.071-0.041c-0.089-0.112-0.254-0.145-0.382-0.069c-0.128,0.071-0.176,0.229-0.111,0.356
	c0.063,0.125-0.025,0.353-0.183,0.467c-0.083,0.062-0.125,0.158-0.111,0.257C45.859,60.272,45.861,60.28,45.862,60.286z
	 M51.449,58.142c-0.057,0.063-0.115,0.131-0.175,0.196c-0.149,0.17-0.311,0.351-0.444,0.547c-0.003-0.28,0.089-0.573,0.228-0.812
	c0.216-0.373,0.536-0.684,0.874-1.012c0.109-0.107,0.219-0.213,0.324-0.32c0.036-0.037,0.071-0.074,0.104-0.111
	C52.125,57.222,51.775,57.759,51.449,58.142z M52.374,55.688c-0.127,0.213-0.298,0.426-0.54,0.674
	c-0.103,0.104-0.208,0.207-0.313,0.311c-0.351,0.341-0.713,0.691-0.968,1.132c-0.228,0.393-0.352,0.905-0.264,1.381
	c-0.279-0.64-0.339-1.363-0.141-2.027c0.208-0.693,0.688-1.305,1.316-1.703c0.368,0.096,0.72,0.086,1.013-0.035
	C52.446,55.521,52.417,55.618,52.374,55.688z M53.069,54.837c-0.005-0.002-0.009-0.006-0.013-0.008
	c0.007-0.02,0.008-0.039,0.014-0.059c0.007,0.02,0.006,0.039,0.013,0.059C53.078,54.831,53.074,54.835,53.069,54.837z
	 M54.862,58.339c-0.059-0.065-0.116-0.133-0.174-0.196c-0.326-0.384-0.675-0.92-0.912-1.513c0.034,0.037,0.068,0.074,0.105,0.111
	c0.104,0.107,0.215,0.213,0.324,0.32c0.338,0.328,0.656,0.639,0.874,1.012c0.138,0.238,0.229,0.531,0.227,0.812
	C55.173,58.688,55.013,58.509,54.862,58.339z M55.85,59.183c0.088-0.476-0.037-0.986-0.265-1.379
	c-0.255-0.439-0.617-0.791-0.967-1.132c-0.105-0.104-0.211-0.205-0.313-0.311c-0.242-0.248-0.413-0.461-0.54-0.674
	c-0.043-0.07-0.073-0.168-0.104-0.271c0.293,0.121,0.645,0.131,1.014,0.035c0.627,0.398,1.108,1.01,1.316,1.703
	C56.188,57.821,56.129,58.544,55.85,59.183z M58.602,58.401c0.26-0.209,0.393-0.512,0.475-0.758
	c0.059-0.179,0.104-0.357,0.144-0.541c0.031,0.071,0.057,0.147,0.09,0.221c0.125,0.266,0.261,0.5,0.403,0.723
	c-0.181-0.028-0.365-0.021-0.54,0.025C58.954,58.128,58.76,58.249,58.602,58.401z M59.085,59.868
	c-0.058-0.043-0.105-0.094-0.146-0.148c0.142,0.095,0.306,0.142,0.475,0.134c0.015,0.057,0.033,0.112,0.059,0.166
	C59.33,60.001,59.194,59.95,59.085,59.868z M60.336,60.192c-0.021,0.031-0.04,0.063-0.062,0.096
	c0.002-0.008,0.003-0.016,0.004-0.022c0.016-0.099-0.027-0.195-0.11-0.257c-0.157-0.114-0.245-0.342-0.184-0.467
	c0.064-0.129,0.018-0.285-0.11-0.356c-0.046-0.027-0.099-0.041-0.149-0.041c-0.089,0-0.176,0.039-0.231,0.11
	c-0.018,0.023-0.042,0.037-0.07,0.041c-0.054,0.011-0.108-0.002-0.153-0.032c-0.045-0.029-0.076-0.074-0.086-0.125
	c-0.018-0.082,0-0.166,0.048-0.236c0.069-0.103,0.177-0.174,0.302-0.201c0.175-0.037,0.354-0.01,0.508,0.078
	c0.207,0.121,0.354,0.311,0.416,0.535C60.536,59.612,60.494,59.923,60.336,60.192z M64.343,58.667
	c0.113-0.211,0.188-0.438,0.201-0.676c0.011-0.199-0.02-0.395-0.083-0.578c0.146,0.027,0.292,0.049,0.443,0.049
	c0.059,0,0.115-0.004,0.175-0.008c0.207-0.018,0.402-0.076,0.59-0.154C65.256,57.782,64.812,58.237,64.343,58.667z M53.457,62.247
	c0.035-0.1,0.069-0.199,0.104-0.299c0.16-0.477,0.312-0.998,0.282-1.508c0.207,0.051,0.437,0.057,0.68,0.014
	c0.114-0.021,0.205-0.104,0.23-0.213c0.024-0.109-0.021-0.221-0.114-0.285c-0.706-0.481-1.279-1.582-1.279-2.451
	c0-0.153-0.13-0.276-0.29-0.276c-0.158,0-0.29,0.123-0.29,0.276c0,0.869-0.572,1.97-1.278,2.451
	c-0.094,0.064-0.141,0.176-0.114,0.285c0.025,0.109,0.116,0.191,0.23,0.213c0.242,0.043,0.474,0.037,0.679-0.014
	c-0.029,0.51,0.123,1.031,0.283,1.508c0.033,0.102,0.069,0.203,0.104,0.305c0.037,0.105,0.074,0.211,0.11,0.316
	c0.038,0.115,0.148,0.193,0.274,0.193s0.237-0.078,0.276-0.193C53.38,62.462,53.418,62.354,53.457,62.247z M53.069,61.597
	c-0.182-0.57-0.314-1.191-0.04-1.675c0.075-0.133,0.026-0.299-0.108-0.373c-0.046-0.024-0.096-0.036-0.146-0.036
	c-0.032,0-0.063,0.006-0.096,0.016c0.151-0.225,0.283-0.469,0.39-0.721c0.106,0.252,0.238,0.496,0.391,0.721
	c-0.076-0.025-0.164-0.021-0.24,0.021c-0.136,0.074-0.185,0.24-0.109,0.373C53.384,60.405,53.25,61.026,53.069,61.597z"/>
<g>
	<g>
		<path fill="#323232" d="M11.981,42.271c-1.396,0-2.476,0.417-3.238,1.25c-0.764,0.833-1.145,1.975-1.145,3.427
			c0,1.454,0.355,2.562,1.067,3.329c0.711,0.766,1.786,1.147,3.226,1.147c1.44,0,2.52-0.401,3.239-1.206
			c0.72-0.804,1.08-1.935,1.08-3.392c0-1.456-0.355-2.579-1.067-3.37C14.432,42.667,13.378,42.271,11.981,42.271z M13.546,47.374
			c0,1.4-0.102,2.378-0.304,2.941c-0.203,0.562-0.646,0.844-1.325,0.844c-0.562,0-0.975-0.207-1.241-0.621
			c-0.121-0.186-0.222-0.497-0.304-0.933c-0.082-0.438-0.123-1.171-0.123-2.206v-0.915c0-0.956,0.025-1.679,0.078-2.17
			c0.043-0.338,0.101-0.602,0.174-0.787c0.073-0.187,0.17-0.364,0.291-0.533s0.273-0.288,0.459-0.354
			c0.186-0.067,0.407-0.102,0.666-0.102c0.258,0,0.479,0.034,0.659,0.102c0.318,0.109,0.563,0.397,0.736,0.862
			c0.155,0.406,0.232,1.383,0.232,2.932L13.546,47.374L13.546,47.374z M16.946,42.411v0.279h0.764v8.33h-0.764v0.278h4.888V51.02
			H20.23v-3.875h0.582c0.422,0,0.756,0.136,1.002,0.405c0.246,0.272,0.438,0.726,0.575,1.361h0.22v-3.76h-0.193
			c-0.104,0.516-0.293,0.922-0.569,1.219c-0.276,0.296-0.621,0.443-1.034,0.443H20.23V42.69h0.362c0.827,0,1.45,0.165,1.868,0.495
			s0.786,0.952,1.104,1.864h0.232l-0.129-2.639H16.946z M24.536,42.411v0.279h0.763v8.33h-0.763v0.278h4.887V51.02H27.82v-3.875
			h0.582c0.423,0,0.757,0.136,1.002,0.405c0.246,0.272,0.438,0.726,0.575,1.361h0.221v-3.76h-0.194
			c-0.104,0.516-0.293,0.922-0.569,1.219c-0.275,0.296-0.621,0.443-1.034,0.443H27.82V42.69h0.362c0.827,0,1.45,0.165,1.868,0.495
			s0.786,0.952,1.104,1.864h0.233l-0.129-2.639H24.536z M32.176,42.652h0.711v8.405h-0.711v0.241h3.943v-0.241h-0.711v-8.405h0.711
			v-0.241h-3.943V42.652z M41.64,51.172c-0.688,0-1.211-0.341-1.563-1.021c-0.354-0.683-0.53-1.623-0.53-2.828V46.32
			c0-2.53,0.668-3.795,2.004-3.795c0.525,0,0.993,0.226,1.403,0.679c0.408,0.453,0.808,1.106,1.195,1.96h0.233l-0.104-2.753h-0.142
			c-0.052,0.093-0.099,0.159-0.142,0.197s-0.108,0.057-0.194,0.057s-0.381-0.064-0.886-0.196c-0.504-0.131-1.02-0.196-1.545-0.196
			c-1.362,0-2.446,0.405-3.251,1.218c-0.807,0.812-1.209,1.965-1.209,3.458c0,1.496,0.386,2.616,1.156,3.36
			c0.771,0.743,1.859,1.116,3.266,1.116c0.56,0,1.111-0.065,1.654-0.196s0.855-0.196,0.938-0.196c0.082,0,0.144,0.019,0.188,0.057
			c0.043,0.038,0.091,0.104,0.143,0.196h0.142l0.091-2.83h-0.232C43.459,50.267,42.588,51.172,41.64,51.172z M45.558,42.652h0.711
			v8.405h-0.711v0.241h3.943v-0.241H48.79v-8.405h0.711v-0.241h-3.943V42.652z M54.802,42.335h-1.06l-3.298,8.723h-0.607v0.241
			h1.979v-0.241h-0.97l0.995-2.742h2.56l0.944,2.742h-0.918v0.241h4.229v-0.241h-0.595L54.802,42.335z M51.958,48.034l1.215-3.326
			l1.125,3.326H51.958z M64.44,50.359c-0.436,0.438-1.02,0.66-1.752,0.66h-0.465v-8.33h1.37V42.41h-4.654v0.279h0.764v8.33h-0.764
			v0.278h6.854l0.245-2.972h-0.271C65.317,49.242,64.876,49.92,64.44,50.359z M69.166,42.411l-0.129,3.186h0.245
			c0.361-1.092,0.693-1.852,0.995-2.278s0.729-0.642,1.279-0.642h0.168v8.355h-1.099v0.267h4.719v-0.267h-1.099v-8.355h0.154
			c0.553,0,0.975,0.206,1.268,0.616c0.293,0.411,0.629,1.179,1.009,2.304h0.246l-0.13-3.186H69.166z M83.407,50.321
			c-0.557,0.466-1.23,0.698-2.023,0.698h-0.491v-4.078h0.312c0.456,0,0.815,0.136,1.079,0.407c0.263,0.271,0.472,0.724,0.627,1.36
			h0.22v-3.76h-0.193c-0.111,0.507-0.307,0.912-0.582,1.211c-0.275,0.301-0.616,0.451-1.021,0.451h-0.439V42.69h0.452
			c0.769,0,1.35,0.159,1.746,0.476c0.396,0.317,0.775,0.903,1.138,1.757h0.232l-0.129-2.512H77.61v0.279h0.764v8.33H77.61v0.278h7.1
			l0.103-2.767h-0.258C84.345,49.26,83.963,49.855,83.407,50.321z M91.824,46.453c-0.169-0.148-0.328-0.271-0.479-0.368
			s-0.345-0.19-0.582-0.278c-0.237-0.091-0.436-0.159-0.595-0.21c-0.159-0.052-0.493-0.145-1.002-0.279s-0.938-0.312-1.286-0.526
			c-0.351-0.216-0.524-0.523-0.524-0.927c0-0.401,0.146-0.723,0.44-0.964c0.293-0.241,0.704-0.361,1.233-0.361
			c0.53,0,1.021,0.222,1.475,0.666s0.886,1.034,1.3,1.771h0.207l-0.091-2.563h-0.144c-0.095,0.169-0.201,0.253-0.322,0.253
			c-0.12,0-0.43-0.064-0.925-0.196c-0.495-0.131-0.972-0.196-1.429-0.196c-0.948,0-1.696,0.271-2.243,0.812
			c-0.548,0.542-0.82,1.189-0.82,1.941c0,0.922,0.268,1.604,0.802,2.044c0.267,0.221,0.55,0.397,0.847,0.533
			c0.298,0.136,0.775,0.295,1.437,0.477c0.658,0.184,1.168,0.396,1.524,0.645c0.357,0.244,0.536,0.598,0.536,1.06
			c0,0.461-0.166,0.806-0.497,1.034c-0.332,0.229-0.714,0.342-1.145,0.342c-0.655,0-1.278-0.274-1.868-0.824
			c-0.591-0.55-1.075-1.192-1.455-1.93h-0.22l0.13,3.021h0.181c0.112-0.254,0.229-0.381,0.351-0.381c0.067,0,0.42,0.062,1.054,0.189
			c0.633,0.127,1.195,0.19,1.687,0.19c0.948,0,1.713-0.276,2.295-0.832c0.582-0.554,0.873-1.286,0.873-2.201
			c0-0.562-0.115-1.043-0.35-1.45C92.123,46.764,91.992,46.602,91.824,46.453z M101.256,42.411h-7.629l-0.129,3.186h0.246
			c0.36-1.092,0.692-1.852,0.994-2.278c0.303-0.427,0.729-0.642,1.28-0.642h0.168v8.355h-1.099v0.267h4.719v-0.267h-1.1v-8.355
			h0.154c0.553,0,0.976,0.206,1.269,0.616c0.293,0.411,0.629,1.179,1.008,2.304h0.246L101.256,42.411z"/>
	</g>
</g>
<g>
	<g>
		<path fill="#323232" d="M33.213,36.083l0.233-0.428l-1.98-1.087l0.397-0.729l-0.369-0.203l-1.031,1.889l0.37,0.203l0.398-0.729
			L33.213,36.083z M35.941,32.046l-0.334-0.264l-0.767,0.975l-0.555-0.438l0.718-0.914l-0.331-0.261l-0.718,0.914L33.4,31.621
			l0.768-0.975l-0.331-0.262l-1.068,1.359l2.105,1.662L35.941,32.046z M37.208,30.654l0.445-0.396l-0.158-1.13l1.157,0.245
			l0.458-0.405l-1.634-0.348l-0.208-1.604l-0.441,0.392l0.199,1.114l-1.146-0.276l-0.449,0.397l1.604,0.381L37.208,30.654z
			 M41.117,27.598l0.416-0.255l-1.178-1.932l0.708-0.433l-0.219-0.36l-1.833,1.121l0.22,0.36l0.708-0.434L41.117,27.598z
			 M47.861,24.774l-0.112-0.411l-1.194,0.329l-0.188-0.683l1.118-0.308l-0.11-0.407l-1.119,0.309l-0.188-0.684l1.194-0.329
			l-0.111-0.406l-1.665,0.458l0.71,2.589L47.861,24.774z M50.423,24.353l0.485-0.048l-0.226-2.253l0.826-0.083l-0.042-0.42
			l-2.137,0.215l0.042,0.42l0.826-0.083L50.423,24.353z M53.568,24.226l0.486,0.019l0.107-2.683l-0.487-0.021L53.568,24.226z
			 M57.193,24.69l0.122,0.298c0.127,0.309,0.321,0.49,0.583,0.542c0.13,0.026,0.255,0.025,0.375-0.001l0.1-0.495
			c-0.158,0.033-0.296,0.038-0.412,0.015c-0.126-0.029-0.211-0.102-0.256-0.215l-0.045-0.114c0.253-0.028,0.471-0.138,0.653-0.327
			c0.185-0.19,0.312-0.468,0.383-0.833c0.089-0.443,0.046-0.808-0.13-1.088c-0.168-0.272-0.433-0.444-0.795-0.517
			c-0.363-0.072-0.673-0.017-0.925,0.167c-0.269,0.194-0.447,0.517-0.536,0.965c-0.086,0.434-0.046,0.793,0.119,1.082
			C56.591,24.441,56.846,24.615,57.193,24.69z M56.804,23.189c0.06-0.302,0.169-0.522,0.328-0.661
			c0.159-0.138,0.346-0.188,0.559-0.145c0.214,0.042,0.367,0.158,0.46,0.347c0.095,0.188,0.11,0.434,0.052,0.734
			c-0.06,0.302-0.168,0.521-0.325,0.657s-0.343,0.184-0.558,0.142c-0.213-0.042-0.366-0.157-0.463-0.344
			C56.762,23.734,56.744,23.491,56.804,23.189z M62.271,25.16c-0.084,0.204-0.194,0.33-0.335,0.377
			c-0.14,0.047-0.291,0.037-0.454-0.03c-0.163-0.066-0.277-0.166-0.345-0.298c-0.067-0.131-0.059-0.299,0.024-0.503l0.632-1.547
			l-0.45-0.185l-0.632,1.547c-0.13,0.315-0.143,0.597-0.036,0.841c0.104,0.245,0.317,0.432,0.636,0.562
			c0.318,0.132,0.603,0.146,0.849,0.045c0.245-0.1,0.434-0.309,0.562-0.625l0.632-1.547l-0.45-0.185L62.271,25.16z M65.677,25.037
			l-1.448,2.259l1.452,0.936l0.229-0.358l-1.042-0.671l0.382-0.596l0.977,0.629l0.229-0.355l-0.978-0.628l0.382-0.595l1.042,0.671
			l0.229-0.354L65.677,25.037z M68.066,30.185l1.521-1.676L70.2,29.07l0.282-0.312l-1.59-1.446l-0.283,0.312l0.614,0.56l-1.52,1.675
			L68.066,30.185z M70.207,32.475l0.303,0.382l1.769-1.409l0.518,0.651l0.329-0.264l-1.337-1.684l-0.329,0.263l0.517,0.651
			L70.207,32.475z M72.863,36.557l0.372-0.206l-0.6-1.086l0.617-0.344l0.562,1.018l0.368-0.205l-0.562-1.018l0.616-0.343
			l0.602,1.086l0.368-0.204l-0.836-1.513l-2.346,1.301L72.863,36.557z M33.593,59.438l0.352-0.208l-1.058-1.79l-0.351,0.207
			l0.409,0.692l-1.88,1.113l0.239,0.406l1.879-1.114L33.593,59.438z M35.009,61.346l0.769,0.921l0.312-0.262l-1.07-1.282
			l-1.987,1.664l1.069,1.283l0.315-0.265l-0.768-0.922l0.523-0.438l0.719,0.86l0.312-0.262l-0.719-0.861L35.009,61.346z
			 M37.741,64.881l0.101-1.14l-0.442-0.373l-0.137,1.59l-1.529,0.398l0.439,0.371l1.057-0.312L37.16,66.56l0.452,0.381l0.1-1.615
			l1.502-0.428l-0.437-0.368L37.741,64.881z M40.401,66.224l0.691,0.405l-1.102,1.889l0.407,0.238l1.102-1.89l0.693,0.406
			l0.206-0.353l-1.792-1.051L40.401,66.224z M45.688,71.042l1.613,0.427l0.105-0.398l-1.158-0.307l0.174-0.661l1.085,0.286
			l0.104-0.396l-1.084-0.286l0.174-0.66l1.158,0.306l0.104-0.396l-1.614-0.427L45.688,71.042z M49.668,69.688l0.799,0.076
			l-0.207,2.178l0.47,0.045l0.206-2.178l0.8,0.076l0.039-0.406l-2.067-0.197L49.668,69.688z M53.598,69.473l0.104,2.594l0.471-0.019
			l-0.104-2.595L53.598,69.473z M58.498,71.724c-0.124,0.019-0.227-0.016-0.308-0.1l-0.082-0.086
			c0.216-0.118,0.371-0.296,0.467-0.532c0.095-0.236,0.107-0.532,0.04-0.887c-0.082-0.429-0.253-0.737-0.513-0.927
			c-0.248-0.184-0.549-0.24-0.898-0.173c-0.354,0.068-0.608,0.229-0.77,0.487c-0.17,0.271-0.213,0.625-0.129,1.059
			c0.081,0.42,0.247,0.729,0.5,0.926c0.244,0.188,0.536,0.25,0.874,0.189l0.219,0.223c0.226,0.23,0.466,0.322,0.72,0.273
			c0.125-0.025,0.236-0.07,0.335-0.14l-0.093-0.479C58.732,71.648,58.611,71.703,58.498,71.724z M57.638,71.256
			c-0.206,0.041-0.386-0.007-0.539-0.139c-0.151-0.132-0.257-0.344-0.312-0.636s-0.038-0.529,0.054-0.711
			c0.093-0.183,0.242-0.293,0.448-0.334c0.207-0.039,0.386,0.008,0.538,0.143c0.151,0.136,0.256,0.35,0.312,0.642
			c0.057,0.292,0.039,0.526-0.053,0.707C57.993,71.107,57.845,71.217,57.638,71.256z M62.226,67.503l-0.438,0.176l0.595,1.502
			c0.078,0.197,0.085,0.359,0.02,0.486s-0.179,0.222-0.336,0.284c-0.158,0.063-0.306,0.071-0.439,0.024s-0.241-0.17-0.319-0.368
			l-0.595-1.502l-0.438,0.174l0.595,1.502c0.122,0.309,0.302,0.511,0.538,0.61c0.237,0.1,0.51,0.088,0.818-0.035
			c0.31-0.123,0.518-0.302,0.621-0.537c0.104-0.234,0.097-0.506-0.025-0.812L62.226,67.503z M65.677,68.126l-0.358-0.579
			l0.953-0.594l-0.215-0.347l-0.953,0.592l-0.359-0.581l1.018-0.632l-0.214-0.348l-1.419,0.881l1.365,2.207l1.418-0.881
			l-0.216-0.352L65.677,68.126z M68.814,63.536l-0.269-0.307l-1.563,1.365l0.268,0.309l0.604-0.529l1.436,1.65l0.354-0.311
			l-1.435-1.649L68.814,63.536z M71.237,60.831l-0.312-0.262l-1.334,1.594l0.312,0.263l0.516-0.615l1.674,1.404l0.304-0.361
			l-1.675-1.405L71.237,60.831z M74.086,59.764l-0.587-0.35l0.572-0.966L73.72,58.24l-0.571,0.967l-0.588-0.35l0.611-1.031
			l-0.351-0.209l-0.853,1.438l2.229,1.326l0.852-1.438l-0.354-0.21L74.086,59.764z"/>
	</g>
</g>
<g>
	<defs>
		<path id="SVGID_1_" d="M24.119,16.892V38.79h57.84V16.892H24.119z M24.119,76.412h57.84V54.515h-57.84V76.412z"/>
	</defs>
	<clipPath id="SVGID_2_">
		<use xlink:href="#SVGID_1_"  overflow="visible"/>
	</clipPath>
	<g clip-path="url(#SVGID_2_)">
		<g>
			<g>
				
					<circle fill="none" stroke="#323232" stroke-linecap="round" stroke-linejoin="round" stroke-dasharray="0.05,1.5004" cx="52.926" cy="46.669" r="28.138"/>
				
					<circle fill="none" stroke="#323232" stroke-width="0.35" stroke-linecap="round" stroke-linejoin="round" stroke-dasharray="0.05,0.5003" cx="52.926" cy="46.669" r="28.998"/>
				
					<circle fill="none" stroke="#323232" stroke-width="0.35" stroke-linecap="round" stroke-linejoin="round" stroke-dasharray="0.05,0.5004" cx="52.926" cy="46.669" r="27.339"/>
			</g>
			
				<circle fill="none" stroke="#323232" stroke-linecap="round" stroke-linejoin="round" stroke-dasharray="0.05,1.5004" cx="52.926" cy="46.669" r="19.705"/>
		</g>
		
			<circle fill="none" stroke="#323232" stroke-width="0.35" stroke-linecap="round" stroke-linejoin="round" stroke-dasharray="0.05,0.5003" cx="52.927" cy="46.669" r="20.555"/>
		
			<circle fill="none" stroke="#323232" stroke-width="0.35" stroke-linecap="round" stroke-linejoin="round" stroke-dasharray="0.05,0.5004" cx="52.927" cy="46.669" r="18.928"/>
	</g>
</g>
</svg>
