<?xml version="1.0" encoding="utf-8"?>
<!-- Generator: Adobe Illustrator 24.1.2, SVG Export Plug-In . SVG Version: 6.00 Build 0)  -->
<svg version="1.1" id="Layer_1" xmlns="http://www.w3.org/2000/svg" xmlns:xlink="http://www.w3.org/1999/xlink" x="0px" y="0px"
	 viewBox="0 0 443.8 152.7" style="enable-background:new 0 0 443.8 152.7;" xml:space="preserve">
<style type="text/css">
	.st0{fill-rule:evenodd;clip-rule:evenodd;fill:#FFFFFF;}
	.st1{fill-rule:evenodd;clip-rule:evenodd;}
	.st2{fill:#171717;}
	.st3{font-family:'Poppins-ExtraBold';}
	.st4{font-size:40.5139px;}
</style>
<path id="bubble_fill" class="st0" d="M438.6,6c0-1-0.7-1.9-1.8-2H5.8C4.7,4.1,3.9,5,4,6v111.5c0,1,0.7,1.9,1.8,2h27.1v20.8
	l23.3-19.1l2.2-1.8h378.5c1-0.1,1.8-1,1.8-2L438.6,6L438.6,6z"/>
<path id="bubble_outline" class="st1" d="M434.1,123.1H65l-36.1,29.7v-29.7H9.6c-5.4-0.1-9.7-4.5-9.6-9.9V9.9C0,4.5,4.3,0.1,9.6,0
	h424.5c5.4,0.1,9.7,4.5,9.6,9.9v103.3C443.8,118.6,439.5,123,434.1,123.1z M435.9,9.9c0-1-0.7-1.9-1.8-2H9.6c-1,0.1-1.8,1-1.8,2
	v103.3c0,1,0.7,1.9,1.8,2h27.1v20.9L60,117l2.2-1.8h371.9c1-0.1,1.8-1,1.8-2V9.9z"/>
<text transform="matrix(1 0 0 1 26.3989 75.1255)" class="st2 st3 st4">Text Etiquette Test</text>
</svg>
