<?xml version="1.0" encoding="utf-8"?>
<!-- Generator: Adobe Illustrator 24.1.2, SVG Export Plug-In . SVG Version: 6.00 Build 0)  -->
<svg version="1.1" id="Layer_1" xmlns="http://www.w3.org/2000/svg" xmlns:xlink="http://www.w3.org/1999/xlink" x="0px" y="0px"
	 viewBox="0 0 319 108.1" style="enable-background:new 0 0 319 108.1;" xml:space="preserve">
<style type="text/css">
	.st0{fill-rule:evenodd;clip-rule:evenodd;fill:#FFFFFF;}
	.st1{fill-rule:evenodd;clip-rule:evenodd;fill:#FFFFFF;stroke:#000000;stroke-width:9;stroke-miterlimit:10;}
	.st2{enable-background:new    ;}
	.st3{fill:#171717;}
</style>
<path id="bubble_fill" class="st0" d="M315.9,3.6c0-0.7-0.5-1.4-1.3-1.4H3.6C2.8,2.3,2.2,2.9,2.3,3.6v80.5c0,0.7,0.5,1.4,1.3,1.4
	h19.6v15L40,86.7l1.6-1.3h273.2c0.7-0.1,1.3-0.7,1.3-1.4L315.9,3.6L315.9,3.6z"/>
<path id="bubble_outline" class="st1" d="M314,6.4c0-0.7-0.5-1.4-1.3-1.4H6.3C5.6,5.1,5,5.7,5,6.4V81c0,0.7,0.5,1.4,1.3,1.4h19.6
	v15.1l16.8-13.8l1.6-1.3h268.4c0.7-0.1,1.3-0.7,1.3-1.4L314,6.4L314,6.4z"/>
<g class="st2">
	<path class="st3" d="M35.6,32.8v4.6H30v16.1h-5.7V37.4h-5.5v-4.6H35.6z"/>
	<path class="st3" d="M53.1,46.4H42.3c0.1,1.9,0.9,2.8,2.4,2.8c0.6,0,1-0.1,1.4-0.4c0.4-0.3,0.6-0.6,0.8-1.1h6.1
		c-0.2,1.2-0.7,2.2-1.4,3.1s-1.7,1.7-2.8,2.2c-1.1,0.5-2.4,0.8-3.7,0.8c-1.6,0-3.1-0.3-4.3-1c-1.3-0.7-2.2-1.6-2.9-2.9
		c-0.7-1.3-1.1-2.8-1.1-4.5c0-1.7,0.4-3.2,1.1-4.5c0.7-1.3,1.7-2.2,3-2.9c1.3-0.7,2.7-1,4.3-1c1.6,0,3.1,0.3,4.3,1
		c1.2,0.7,2.2,1.6,2.9,2.8c0.7,1.2,1,2.7,1,4.3C53.2,45.4,53.2,45.9,53.1,46.4z M46.7,42.1c-0.5-0.4-1.1-0.6-1.8-0.6
		c-0.8,0-1.4,0.2-1.9,0.6c-0.5,0.4-0.8,1.1-0.8,1.9h5.1C47.4,43.1,47.2,42.5,46.7,42.1z"/>
	<path class="st3" d="M66.1,53.5L63,49.3l-2.4,4.2h-6.3l5.5-8.6l-5.7-7.8h6.4l3,4.2l2.4-4.2h6.3l-5.6,8.4l5.9,8H66.1z"/>
	<path class="st3" d="M83.9,48.6v4.9h-2.4c-2,0-3.6-0.5-4.7-1.5c-1.1-1-1.7-2.6-1.7-4.9v-5.2h-2.1v-4.8h2.1v-4h5.8v4h3v4.8h-3v5.3
		c0,0.5,0.1,0.9,0.3,1.1c0.2,0.2,0.6,0.3,1.1,0.3H83.9z"/>
	<path class="st3" d="M97.7,37.4v3.4h6.7v4.4h-6.7v3.7h7.6v4.6H92V32.8h13.3v4.6H97.7z"/>
	<path class="st3" d="M117.7,48.6v4.9h-2.4c-2,0-3.6-0.5-4.7-1.5c-1.1-1-1.7-2.6-1.7-4.9v-5.2h-2.1v-4.8h2.1v-4h5.8v4h3v4.8h-3v5.3
		c0,0.5,0.1,0.9,0.3,1.1c0.2,0.2,0.6,0.3,1.1,0.3H117.7z"/>
	<path class="st3" d="M120.8,30.5c0.6-0.6,1.4-0.8,2.5-0.8c1,0,1.8,0.3,2.4,0.8c0.6,0.6,0.9,1.3,0.9,2.1c0,0.8-0.3,1.5-0.9,2
		c-0.6,0.5-1.4,0.8-2.4,0.8c-1,0-1.8-0.3-2.5-0.8c-0.6-0.5-0.9-1.2-0.9-2C119.9,31.7,120.2,31,120.8,30.5z M126.1,37.1v16.4h-5.8
		V37.1H126.1z"/>
	<path class="st3" d="M138.4,37.5c0.7,0.3,1.4,0.8,1.9,1.5v-1.9h5.7v24.2h-5.7V51.3c-0.6,0.8-1.2,1.4-2,1.8s-1.6,0.6-2.5,0.6
		c-1.3,0-2.5-0.3-3.7-1c-1.1-0.7-2-1.7-2.7-2.9c-0.7-1.3-1-2.7-1-4.3c0-1.6,0.3-3.1,1-4.3c0.7-1.3,1.6-2.3,2.7-3
		c1.1-0.7,2.3-1.1,3.7-1.1C136.8,37,137.6,37.2,138.4,37.5z M135.2,42.8c-0.6,0.6-0.9,1.4-0.9,2.6c0,1.1,0.3,1.9,0.9,2.5
		c0.6,0.5,1.3,0.8,2.1,0.8c0.8,0,1.5-0.3,2.1-0.9c0.6-0.6,0.9-1.4,0.9-2.5c0-1.1-0.3-1.9-0.9-2.5c-0.6-0.6-1.3-0.8-2.1-0.8
		C136.5,42,135.8,42.3,135.2,42.8z"/>
	<path class="st3" d="M166,37.1v16.4h-5.7v-2.7c-0.5,0.9-1.2,1.6-2,2.1c-0.9,0.5-1.9,0.8-3.2,0.8c-1.9,0-3.4-0.6-4.5-1.9
		c-1.1-1.3-1.6-3-1.6-5.2v-9.5h5.7v8.8c0,0.9,0.2,1.7,0.7,2.2s1.2,0.8,2,0.8c0.9,0,1.5-0.3,2-0.8s0.8-1.3,0.8-2.3v-8.7H166z"/>
	<path class="st3" d="M184.8,46.4h-10.8c0.1,1.9,0.9,2.8,2.4,2.8c0.6,0,1-0.1,1.4-0.4c0.4-0.3,0.6-0.6,0.8-1.1h6.1
		c-0.2,1.2-0.7,2.2-1.4,3.1c-0.7,0.9-1.7,1.7-2.8,2.2c-1.1,0.5-2.4,0.8-3.7,0.8c-1.6,0-3.1-0.3-4.3-1c-1.3-0.7-2.2-1.6-2.9-2.9
		c-0.7-1.3-1.1-2.8-1.1-4.5c0-1.7,0.4-3.2,1.1-4.5c0.7-1.3,1.7-2.2,3-2.9c1.3-0.7,2.7-1,4.3-1c1.6,0,3.1,0.3,4.3,1
		c1.2,0.7,2.2,1.6,2.9,2.8c0.7,1.2,1,2.7,1,4.3C184.9,45.4,184.9,45.9,184.8,46.4z M178.4,42.1c-0.5-0.4-1.1-0.6-1.8-0.6
		c-0.8,0-1.4,0.2-1.9,0.6c-0.5,0.4-0.8,1.1-0.8,1.9h5.1C179.1,43.1,178.9,42.5,178.4,42.1z"/>
	<path class="st3" d="M197,48.6v4.9h-2.4c-2,0-3.6-0.5-4.7-1.5s-1.7-2.6-1.7-4.9v-5.2h-2.1v-4.8h2.1v-4h5.8v4h3v4.8h-3v5.3
		c0,0.5,0.1,0.9,0.3,1.1c0.2,0.2,0.6,0.3,1.1,0.3H197z"/>
	<path class="st3" d="M209.4,48.6v4.9H207c-2,0-3.6-0.5-4.7-1.5s-1.7-2.6-1.7-4.9v-5.2h-2.1v-4.8h2.1v-4h5.8v4h3v4.8h-3v5.3
		c0,0.5,0.1,0.9,0.3,1.1c0.2,0.2,0.6,0.3,1.1,0.3H209.4z"/>
	<path class="st3" d="M227.7,46.4h-10.8c0.1,1.9,0.9,2.8,2.4,2.8c0.6,0,1-0.1,1.4-0.4c0.4-0.3,0.6-0.6,0.8-1.1h6.1
		c-0.2,1.2-0.7,2.2-1.4,3.1c-0.7,0.9-1.7,1.7-2.8,2.2c-1.1,0.5-2.4,0.8-3.7,0.8c-1.6,0-3.1-0.3-4.3-1c-1.3-0.7-2.2-1.6-2.9-2.9
		c-0.7-1.3-1.1-2.8-1.1-4.5c0-1.7,0.4-3.2,1.1-4.5c0.7-1.3,1.7-2.2,3-2.9c1.3-0.7,2.7-1,4.3-1c1.6,0,3.1,0.3,4.3,1
		c1.2,0.7,2.2,1.6,2.9,2.8c0.7,1.2,1,2.7,1,4.3C227.8,45.4,227.8,45.9,227.7,46.4z M221.3,42.1c-0.5-0.4-1.1-0.6-1.8-0.6
		c-0.8,0-1.4,0.2-1.9,0.6s-0.8,1.1-0.8,1.9h5.1C222,43.1,221.8,42.5,221.3,42.1z"/>
	<path class="st3" d="M251.1,32.8v4.6h-5.6v16.1h-5.7V37.4h-5.5v-4.6H251.1z"/>
	<path class="st3" d="M268.6,46.4h-10.8c0.1,1.9,0.9,2.8,2.4,2.8c0.6,0,1-0.1,1.4-0.4c0.4-0.3,0.6-0.6,0.8-1.1h6.1
		c-0.2,1.2-0.7,2.2-1.4,3.1c-0.7,0.9-1.7,1.7-2.8,2.2c-1.1,0.5-2.4,0.8-3.7,0.8c-1.6,0-3.1-0.3-4.3-1c-1.3-0.7-2.2-1.6-2.9-2.9
		c-0.7-1.3-1.1-2.8-1.1-4.5c0-1.7,0.4-3.2,1.1-4.5c0.7-1.3,1.7-2.2,3-2.9c1.3-0.7,2.7-1,4.3-1c1.6,0,3.1,0.3,4.3,1
		c1.2,0.7,2.2,1.6,2.9,2.8c0.7,1.2,1,2.7,1,4.3C268.8,45.4,268.7,45.9,268.6,46.4z M262.2,42.1c-0.5-0.4-1.1-0.6-1.8-0.6
		c-0.8,0-1.4,0.2-1.9,0.6s-0.8,1.1-0.8,1.9h5.1C262.9,43.1,262.7,42.5,262.2,42.1z"/>
	<path class="st3" d="M282.5,38.5c1.3,1.1,2.1,2.4,2.4,4.2h-5.4c-0.1-0.6-0.4-1-0.8-1.3c-0.4-0.3-0.9-0.4-1.5-0.4
		c-0.4,0-0.8,0.1-1,0.3c-0.2,0.2-0.3,0.4-0.3,0.8c0,0.4,0.2,0.7,0.7,0.9c0.5,0.2,1.3,0.4,2.4,0.7c1.3,0.3,2.3,0.6,3.1,0.9
		c0.8,0.3,1.5,0.8,2.2,1.5c0.6,0.7,0.9,1.6,0.9,2.8c0,1-0.3,1.8-0.8,2.5c-0.5,0.7-1.3,1.3-2.3,1.7s-2.2,0.6-3.6,0.6
		c-2.3,0-4.1-0.5-5.5-1.5s-2.2-2.4-2.5-4.3h5.5c0.1,0.6,0.3,1.1,0.8,1.3c0.4,0.3,1,0.4,1.7,0.4c0.4,0,0.8-0.1,1-0.3
		c0.2-0.2,0.4-0.4,0.4-0.8c0-0.5-0.2-0.8-0.7-1s-1.3-0.4-2.4-0.6c-1.2-0.3-2.3-0.5-3.1-0.8c-0.8-0.3-1.5-0.8-2.1-1.5
		c-0.6-0.7-0.9-1.6-0.9-2.8c0-1.5,0.6-2.7,1.7-3.6c1.2-0.9,2.8-1.4,4.9-1.4C279.5,36.9,281.2,37.4,282.5,38.5z"/>
	<path class="st3" d="M297.4,48.6v4.9h-2.4c-2,0-3.6-0.5-4.7-1.5c-1.1-1-1.7-2.6-1.7-4.9v-5.2h-2.1v-4.8h2.1v-4h5.8v4h3v4.8h-3v5.3
		c0,0.5,0.1,0.9,0.3,1.1c0.2,0.2,0.6,0.3,1.1,0.3H297.4z"/>
</g>
</svg>
