<?xml version="1.0" encoding="utf-8"?>
<!-- Generator: Adobe Illustrator 24.1.2, SVG Export Plug-In . SVG Version: 6.00 Build 0)  -->
<svg version="1.1" id="Mini_Logo" xmlns="http://www.w3.org/2000/svg" xmlns:xlink="http://www.w3.org/1999/xlink" x="0px" y="0px"
	 viewBox="0 0 79.8 76.7" style="enable-background:new 0 0 79.8 76.7;" xml:space="preserve">
<style type="text/css">
	.st0{fill-rule:evenodd;clip-rule:evenodd;}
	.st1{enable-background:new    ;}
	.st2{fill:#171717;}
</style>
<path id="bubble_outline" class="st0" d="M70.1,52.1H55L18.9,76.7V52.1H9.6C4.2,52-0.1,47.6,0,42.2V9.9c0-5.4,4.3-9.8,9.6-9.9h60.5
	c5.4,0.1,9.7,4.5,9.6,9.9v32.3C79.8,47.6,75.5,52,70.1,52.1z M71.9,9.9c0-1-0.7-1.9-1.8-2H9.6c-1,0.1-1.8,1-1.8,2v32.3
	c0,1,0.7,1.9,1.8,2h17.1v7.9l0.1,9.9L50,46l2.2-1.8h17.9c1-0.1,1.8-1,1.8-2L71.9,9.9L71.9,9.9z"/>
<g class="st1">
	<path class="st2" d="M31.1,15.3v4h-5.6v16.7h-5V19.3h-5.5v-4H31.1z"/>
	<path class="st2" d="M38.2,19.3v4.3h7v3.8h-7v4.6H46v4H33.2V15.3H46v4H38.2z"/>
	<path class="st2" d="M63.7,15.3v4h-5.6v16.7h-5V19.3h-5.5v-4H63.7z"/>
</g>
</svg>
