<svg xmlns="http://www.w3.org/2000/svg" xmlns:xlink="http://www.w3.org/1999/xlink" width="122" height="88" viewBox="0 0 122 88">
  <defs>
    <style>
      .cls-1 {
        fill: #fff;
        stroke: #000;
        stroke-linejoin: round;
        stroke-width: 6px;
        fill-rule: evenodd;
        filter: url(#filter);
      }
    </style>
    <filter id="filter" x="191" y="472" width="122" height="88" filterUnits="userSpaceOnUse">
      <feOffset result="offset" dx="8.81" dy="10.88" in="SourceAlpha"/>
      <feGaussianBlur result="blur"/>
      <feFlood result="flood" flood-opacity="0.17"/>
      <feComposite result="composite" operator="in" in2="blur"/>
      <feBlend result="blend" in="SourceGraphic"/>
    </filter>
  </defs>
  <g transform="translate(-191 -472)" style="fill: #fff; filter: url(#filter)">
    <path id="no" class="cls-1" d="M222.039,477H269.66a26,26,0,0,1,26.051,25.942v32.988s-0.544,6.651,8.289,12.972c0.5,0.356-13.949-.129-17.762-4.717a9.236,9.236,0,0,0-1.184-1.179c-5.14,4.329-8.443,5.278-15.394,5.9H222.039a26,26,0,0,1-26.051-25.943V502.945A26,26,0,0,1,222.039,477Z" style="stroke: inherit; filter: none; fill: inherit"/>
  </g>
  <use transform="translate(-191 -472)" xlink:href="#no" style="stroke: #000; filter: none; fill: none"/>
</svg>
