<svg width="80" height="77" viewBox="0 0 80 77" fill="none" xmlns="http://www.w3.org/2000/svg">
<g clip-path="url(#clip0)">
<path fill-rule="evenodd" clip-rule="evenodd" d="M70.1 52.1H55L18.9 76.7V52.1H9.6C4.2 52 -0.0999996 47.6 4.34695e-07 42.2V9.9C4.34695e-07 4.5 4.3 0.1 9.6 0H70.1C75.5 0.1 79.8 4.5 79.7 9.9V42.2C79.8 47.6 75.5 52 70.1 52.1ZM71.9 9.9C71.9 8.9 71.2 8 70.1 7.9H9.6C8.6 8 7.8 8.9 7.8 9.9V42.2C7.8 43.2 8.5 44.1 9.6 44.2H26.7V52.1L26.8 62L50 46L52.2 44.2H70.1C71.1 44.1 71.9 43.2 71.9 42.2V9.9Z" fill="black"/>
</g>
<defs>
<clipPath id="clip0">
<rect width="79.8" height="76.7" fill="white"/>
</clipPath>
</defs>
</svg>
