<?xml version="1.0" encoding="utf-8"?>
<!-- Generator: Adobe Illustrator 15.1.0, SVG Export Plug-In . SVG Version: 6.00 Build 0)  -->
<!DOCTYPE svg PUBLIC "-//W3C//DTD SVG 1.1//EN" "http://www.w3.org/Graphics/SVG/1.1/DTD/svg11.dtd">
<svg version="1.1" id="Layer_1" xmlns="http://www.w3.org/2000/svg" xmlns:xlink="http://www.w3.org/1999/xlink" x="0px" y="0px"
	 width="153.85px" height="50.5px" viewBox="0 0 153.85 50.5" enable-background="new 0 0 153.85 50.5" xml:space="preserve">
<g>
	<g>
		<path fill="#323333" d="M153.816,22.833c-0.363-2.154-1.062-4.191-2.081-6.059c-2.437-4.438-6.364-6.974-9.227-8.318
			c-2.982-1.394-6.417-2.327-10.228-2.777c-0.298-1.839-1.552-3.505-3.288-4.367c-1.35-0.69-2.922-1.026-4.957-1.055
			c-2.749,0-5.71,0.458-9.325,1.443c-2.926,0.814-5.892,1.799-8.811,2.921c-8.988,3.417-17.504,8.15-25.738,12.727
			c-2.41,1.34-4.817,2.678-7.232,3.982c-2.917,1.568-5.801,3.047-8.576,4.397l-1.031-0.699c-2.116-1.438-4.233-2.875-6.384-4.27
			c-3.669-2.36-7.043-4.332-10.309-6.024c-7.75-4.047-15.371-6.529-22.665-7.381c-4.909-0.5-8.691-0.252-12.218,0.777
			C9.459,8.807,7.49,9.788,5.904,11.039c-1.831,1.404-3.307,3.285-4.268,5.434c-0.896,1.989-1.368,4.254-1.4,6.731
			c-0.028,2.099,0.312,4.311,1.014,6.587c1.2,3.739,3.394,7.388,6.519,10.858c2.952,3.227,6.237,5.739,9.762,7.464
			c3.485,1.715,7.124,2.623,10.519,2.623c0.467,0,0.934-0.018,1.402-0.054c2.181-0.159,4.209-0.66,6.024-1.483
			c2.181-0.973,3.901-2.268,5.108-3.833c1.043-1.32,1.692-2.889,1.877-4.5c0.348,0.024,0.698,0.039,1.053,0.043
			c4.308-0.015,8.445-0.728,11.934-1.424c3.441-0.734,7.083-1.935,11.465-3.779c1.629-0.692,3.349-1.48,5.247-2.407
			c1.181,0.76,2.367,1.509,3.58,2.226c3.147,1.821,6.841,3.876,10.825,5.207c2.127,0.702,4.095,1.104,6.001,1.224
			c1.013,0.086,1.993,0.071,3.094,0.047c1.068-0.063,2.116-0.143,3.164-0.43c1.289-0.319,2.375-0.866,3.235-1.618
			c1.001-0.87,1.722-2.102,2.027-3.472c0.337-1.515,0.035-3.066-0.853-4.272c-0.554-0.714-1.374-1.2-2.184-1.299
			c-0.771-0.102-1.549,0.076-2.209,0.504l-0.486,0.554l0.273,1.253l0.646,0.07c0.345,0.039,0.722,0.096,0.928,0.228
			c0.166,0.106,0.283,0.237,0.38,0.443c0.216,0.458,0.276,1.146,0.163,1.768c-0.156,0.713-0.476,1.353-0.931,1.853
			c-0.458,0.519-1.111,0.973-1.878,1.313c-1.531,0.656-3.402,0.947-5.225,0.845c-1.715-0.096-3.508-0.451-5.479-1.075
			c-3.719-1.211-7.227-3.092-10.462-4.94c-0.833-0.479-1.655-0.979-2.472-1.491c1.131-0.567,2.253-1.145,3.366-1.727
			c3.356-1.721,6.647-3.651,9.83-5.519l4.151-2.479c5.454-3.279,11.097-6.672,16.913-9.354c3.817-1.759,7.354-3.073,10.817-4.024
			c3.231-0.896,6.74-1.301,10.319-1.212c-0.188,0.363-0.55,0.667-0.955,0.791c-0.547,0.172-1.051,0.191-1.552,0.199
			c-0.454,0-0.902-0.017-1.744-0.217l-0.643,0.041l-0.678,0.649l0.042,0.439c0.139,1.383,1.403,2.542,2.849,2.636
			c1.186,0.111,2.379-0.406,3.234-1.388c0.583-0.653,1.076-1.375,1.566-2.307c0.104-0.219,0.191-0.447,0.267-0.684
			c3.494,0.319,6.683,1.133,9.488,2.419c2.585,1.177,6.126,3.401,8.317,7.304c1.956,3.526,2.603,7.546,1.771,11.036
			c-0.845,3.735-3.242,6.982-6.42,8.693c-1.545,0.859-3.317,1.374-5.114,1.491c-1.864,0.113-3.579-0.316-4.929-1.2
			c-0.653-0.415-1.314-0.982-1.953-1.683c-0.536-0.589-1.08-1.228-1.428-1.916c-0.355-0.675-0.66-1.427-0.902-2.243
			c-0.195-0.643-0.369-1.384-0.301-2.461l-0.149-0.682l-1.002-0.546l-0.458,0.319c-1.311,0.901-1.775,2.594-1.775,3.877
			c0,1.292,0.359,2.566,1.076,3.808c1.463,2.399,3.792,3.476,5.678,4.153c2.447,0.812,4.286,1.117,6.311,0.976
			c2.127-0.191,4.219-0.855,6.048-1.916c3.661-2.119,6.406-5.935,7.344-10.2C154.153,27.241,154.198,24.998,153.816,22.833z
			 M43.039,38.275c-0.222,0-0.442-0.004-0.664-0.011c-0.154-0.699-0.417-1.392-0.783-2.073c4.718-0.642,9.691-2.029,15.883-4.414
			c2.359-0.892,4.854-1.937,7.608-3.191l0.63,0.437c0.859,0.592,1.724,1.175,2.589,1.757c-0.959,0.488-1.921,0.97-2.893,1.431
			c-3.922,1.888-7.422,3.244-10.684,4.138c-4.178,1.055-7.693,1.782-11.266,1.921L43.039,38.275z M18.561,46.044
			c-3.388-1.771-6.458-4.23-8.878-7.119c-2.52-2.984-4.298-6.47-5.146-10.081c-0.439-1.832-0.594-3.686-0.46-5.526
			c0.108-1.913,0.515-3.692,1.184-5.162c1.267-2.913,3.958-5.31,7.569-6.745c2.843-1.102,6.106-1.686,9.438-1.686
			c0.506,0,1.01,0.014,1.513,0.039c3.301,0.179,6.862,0.912,11.205,2.307c3.459,1.127,6.963,2.602,10.709,4.507
			c6.189,3.14,12.029,6.951,16.643,10.115c-1.803,0.854-3.802,1.766-5.82,2.579c-3.281,1.332-5.985,2.303-8.505,3.056
			c-2.91,0.862-5.521,1.412-7.96,1.686c-0.293-0.319-0.604-0.625-0.939-0.912c-0.729-0.596-1.534-1.186-2.546-1.856
			c-0.938-0.594-2.059-1.229-3.504-1.238c-0.202,0-0.404,0.02-0.639,0.062l-0.604,0.161c-0.302,0.115-0.661,0.273-1.005,0.534
			c-0.446,0.302-0.809,0.736-1.021,1.223c-0.172,0.397-0.256,0.841-0.239,1.295c-1.03-0.305-2.074-0.667-3.04-1.149
			c-1.233-0.593-2.168-1.551-2.573-2.658c-0.259-0.641-0.35-1.335-0.408-2.021c-0.018-0.27-0.037-0.545-0.024-0.782
			c0.013-0.195,0.048-0.378,0.108-0.584c0.139-0.384,0.373-0.697,0.715-0.944c0.316-0.239,0.766-0.406,1.258-0.47
			c0.445-0.045,0.898,0.022,1.33,0.227c0.183,0.082,0.344,0.191,0.658,0.503l0.191,0.214l-0.024,0.027
			c0.139,0.338,0.131,0.819-0.032,1.173c-0.068,0.157-0.243,0.243-0.612,0.229l-0.89,0.021l-0.465,1.524l0.662,0.352
			c0.591,0.313,1.119,0.446,1.831,0.319c0.649-0.132,1.264-0.529,1.695-1.101c0.701-0.962,0.939-2.22,0.638-3.51
			c-0.744-2.423-3.033-3.511-5.194-3.511h-0.014c-1.087,0.027-2.146,0.368-3.058,0.983c-1.042,0.694-1.794,1.698-2.101,2.788
			c-0.234,0.693-0.238,1.395-0.202,1.846c0.029,0.504,0.135,0.94,0.27,1.475c0.265,0.94,0.662,1.813,1.189,2.604
			c0.944,1.388,2.268,2.495,4.038,3.379c1.493,0.753,3.059,1.221,4.545,1.622c0.249,0.063,0.501,0.11,0.752,0.156L30.846,36
			c0.299,0.337,0.618,0.643,0.952,0.944c0.753,0.632,1.607,1.353,2.562,1.906c0.92,0.557,1.926,0.989,2.987,1.295
			c1.05,0.306,2.098,0.465,3.003,0.561c-0.142,1.192-0.63,2.385-1.397,3.372c-1.01,1.316-2.462,2.402-4.32,3.226
			c-1.698,0.76-3.488,1.193-5.315,1.289C25.825,48.787,22.137,47.883,18.561,46.044z M33.226,33.257
			c0.604-0.085,1.411,0.061,2.266,0.326c0.482,0.152,0.959,0.369,1.408,0.643c-1.38,0.021-2.723-0.057-3.999-0.227
			c-0.167-0.334-0.224-0.543-0.254-0.547c0.023-0.015,0.1-0.057,0.284-0.124l-0.312-0.853L33.226,33.257z M39.229,36.482
			c0.382,0.536,0.675,1.087,0.875,1.65c-0.79-0.081-1.476-0.202-2.107-0.365c-0.895-0.237-1.712-0.571-2.424-0.983
			c-0.119-0.067-0.235-0.142-0.353-0.223C36.544,36.625,37.896,36.59,39.229,36.482z M86.113,21.132
			c-3.736,2.159-7.095,4.031-10.273,5.719c-1.83,0.969-3.658,1.933-5.488,2.88c-1.062-0.695-2.122-1.396-3.178-2.107
			c2.383-1.126,4.785-2.327,7.16-3.582c3.301-1.731,6.57-3.527,9.833-5.321c7.348-4.041,14.943-8.218,22.738-11.497
			c2.895-1.201,5.753-2.234,8.498-3.07c2.695-0.804,5.597-1.546,8.544-1.546V2.074h0.032l0.046,0.532
			c1.666,0.017,2.919,0.263,3.949,0.784c0.858,0.421,1.544,1.168,1.871,2.055c-3.782-0.201-7.596,0.136-11.126,1.003
			c-3.626,0.822-7.361,2.034-11.424,3.706C99.823,13.258,92.853,17.259,86.113,21.132z"/>
	</g>
</g>
</svg>
