<svg xmlns="http://www.w3.org/2000/svg" xmlns:xlink="http://www.w3.org/1999/xlink" width="122" height="89" viewBox="0 0 122 89">
  <defs>
    <style>
      .cls-1 {
        fill: #fff;
        stroke: #000;
        stroke-linejoin: round;
        stroke-width: 6px;
        fill-rule: evenodd;
        filter: url(#filter);
      }
    </style>
    <filter id="filter" x="66" y="471" width="122" height="89" filterUnits="userSpaceOnUse">
      <feOffset result="offset" dx="8.81" dy="10.88" in="SourceAlpha"/>
      <feGaussianBlur result="blur"/>
      <feFlood result="flood" flood-opacity="0.17"/>
      <feComposite result="composite" operator="in" in2="blur"/>
      <feBlend result="blend" in="SourceGraphic"/>
    </filter>
  </defs>
  <g transform="translate(-66 -471)" style="fill: #fff; filter: url(#filter)">
    <path id="yes" class="cls-1" d="M152.653,476.6H105.211a25.937,25.937,0,0,0-25.953,25.92v32.96S79.8,542.121,71,548.436c-0.5.356,13.9-.129,17.7-4.713a9.309,9.309,0,0,1,1.18-1.178c5.12,4.325,8.412,5.274,15.336,5.891h47.442a25.937,25.937,0,0,0,25.953-25.92v-20A25.937,25.937,0,0,0,152.653,476.6Z" style="stroke: inherit; filter: none; fill: inherit"/>
  </g>
  <use transform="translate(-66 -471)" xlink:href="#yes" style="stroke: #000; filter: none; fill: none"/>
</svg>
